<svg width="35" height="35" viewBox="0 0 35 35" fill="none" xmlns="http://www.w3.org/2000/svg">
<path d="M22.3215 11.3724V8.37573L20.7842 8.38171C19.9387 8.38492 19.103 8.40799 18.927 8.43277C18.6933 8.46567 18.3468 8.56094 18.0392 8.66882C17.8268 8.74338 17.6333 8.82391 17.5081 8.89441C17.0458 9.15503 16.6592 9.49319 16.3546 9.90164C16.149 10.1772 15.9811 10.4848 15.8525 10.8219C15.5949 11.4968 15.5727 11.6862 15.5471 13.4354L15.5227 15.0732H12.6794V18.2765H15.5325V26.6243H18.9266L18.9518 18.3009L22.1741 18.2752V15.0732H18.9189L18.9518 12.3726L19.1 12.0866C19.2611 11.7764 19.5337 11.5658 19.8939 11.4741C19.9622 11.4568 20.2374 11.4365 20.592 11.4203C20.7795 11.4117 20.9893 11.4043 21.2025 11.3991L22.3215 11.3724Z" fill="#222222"/>
<path fill-rule="evenodd" clip-rule="evenodd" d="M0 17.5C0 7.83505 7.83527 0 17.5 0C27.1605 0.0108948 34.9893 7.83975 35 17.5C35 27.1649 27.1647 35 17.5 35C7.83527 35 0 27.1649 0 17.5ZM1.16681 17.5C1.16681 26.5207 8.47955 33.8334 17.5 33.8334C26.5162 33.8232 33.8229 26.5164 33.8332 17.5C33.8332 8.47934 26.5204 1.1666 17.5 1.1666C8.47955 1.1666 1.16681 8.47934 1.16681 17.5Z" fill="#222222"/>
</svg>
