<svg width="35" height="35" viewBox="0 0 35 35" fill="none" xmlns="http://www.w3.org/2000/svg">
<path d="M17.5 0C7.83511 0 0 7.83513 0 17.5C0 27.1649 7.83511 35 17.5 35C27.1649 35 35 27.1649 35 17.5C34.9892 7.83968 27.1604 0.0108234 17.5 0ZM17.5 33.8333C8.4794 33.8333 1.16667 26.5206 1.16667 17.5C1.16667 8.47942 8.4794 1.16667 17.5 1.16667C26.5206 1.16667 33.8333 8.47942 33.8333 17.5C33.8231 26.5163 26.5163 33.823 17.5 33.8333Z" fill="#222222"/>
<path fill-rule="evenodd" clip-rule="evenodd" d="M22.2096 10.4666H12.7902C11.4545 10.4666 10.3716 11.535 10.3716 12.8529V22.1468C10.3716 23.4647 11.4545 24.5331 12.7902 24.5331H22.2096C23.5454 24.5331 24.6282 23.4647 24.6282 22.1468V12.8529C24.6282 11.535 23.5454 10.4666 22.2096 10.4666ZM12.7902 9.34359C10.8259 9.34359 9.23345 10.9148 9.23345 12.8529V22.1468C9.23345 24.0849 10.8259 25.6561 12.7902 25.6561H22.2096C24.174 25.6561 25.7664 24.0849 25.7664 22.1468V12.8529C25.7664 10.9148 24.174 9.34359 22.2096 9.34359H12.7902Z" fill="#222222"/>
<path fill-rule="evenodd" clip-rule="evenodd" d="M14.7178 17.5C14.7178 19.0167 15.9639 20.2461 17.501 20.2461C19.0382 20.2461 20.2843 19.0167 20.2843 17.5C20.2843 15.9833 19.0382 14.7538 17.501 14.7538C15.9639 14.7538 14.7178 15.9833 14.7178 17.5ZM17.501 13.6309C15.3353 13.6309 13.5796 15.3631 13.5796 17.5C13.5796 19.6369 15.3353 21.3691 17.501 21.3691C19.6668 21.3691 21.4224 19.6369 21.4224 17.5C21.4224 15.3631 19.6668 13.6309 17.501 13.6309Z" fill="#222222"/>
<path d="M20.9696 12.9811C20.9696 12.446 21.4092 12.0123 21.9515 12.0123C22.4938 12.0123 22.9334 12.446 22.9334 12.9811C22.9334 13.5161 22.4938 13.9499 21.9515 13.9499C21.4092 13.9499 20.9696 13.5161 20.9696 12.9811Z" fill="#222222"/>
</svg>
