<svg width="35" height="35" viewBox="0 0 35 35" fill="none" xmlns="http://www.w3.org/2000/svg">
<g opacity="0.87" clip-path="url(#clip0_1_2027)">
<path d="M17.4468 0.0489502C7.93614 0.0489502 0.226044 7.86326 0.226044 17.5024C0.226044 27.1416 7.93614 34.956 17.4468 34.956C26.9575 34.956 34.6676 27.1416 34.6676 17.5024C34.657 7.8678 26.953 0.0597449 17.4468 0.0489502ZM17.4468 33.7924C8.57015 33.7924 1.3741 26.4991 1.3741 17.5024C1.3741 8.50584 8.57015 1.21252 17.4468 1.21252C26.3235 1.21252 33.5195 8.50584 33.5195 17.5024C33.5095 26.4948 26.3193 33.7821 17.4468 33.7924Z" fill="#222222"/>
<path d="M26.4124 24.601V24.6003H26.4165V18.5993C26.4165 15.6636 25.7929 13.4021 22.4066 13.4021C20.7787 13.4021 19.6862 14.3075 19.2402 15.1659H19.1932V13.6762H15.9824V24.6003H19.3257V19.1911C19.3257 17.7668 19.5921 16.3897 21.3323 16.3897C23.047 16.3897 23.0726 18.015 23.0726 19.2824V24.601H26.4124Z" fill="#222222"/>
<path d="M10.5383 13.6765H13.8856V24.6006H10.5383V13.6765Z" fill="#222222"/>
<path d="M12.2108 8.23828C11.1406 8.23828 10.2721 9.11844 10.2721 10.2032C10.2721 11.2879 11.1406 12.1864 12.2108 12.1864C13.2811 12.1864 14.1495 11.2879 14.1495 10.2032C14.1488 9.11844 13.2804 8.23828 12.2108 8.23828Z" fill="#222222"/>
</g>
<defs>
<clipPath id="clip0_1_2027">
<rect width="35" height="35" fill="white"/>
</clipPath>
</defs>
</svg>
