<svg width="195" height="255" viewBox="0 0 195 255" fill="none" xmlns="http://www.w3.org/2000/svg">
<path d="M177.033 9.25897L29.2481 18.8059C21.3557 19.3157 15.2151 25.8658 15.2151 33.7747V215.414C15.2151 223.214 21.1933 229.713 28.9664 230.362L176.751 242.707C185.498 243.438 193 236.536 193 227.759V24.2278C193 15.563 185.68 8.70039 177.033 9.25897Z" fill="#250958"/>
<path d="M177.033 9.25897L29.2481 18.8059C21.3557 19.3157 15.2151 25.8658 15.2151 33.7747V215.414C15.2151 223.214 21.1933 229.713 28.9664 230.362L176.751 242.707C185.498 243.438 193 236.536 193 227.759V24.2278C193 15.563 185.68 8.70039 177.033 9.25897Z" fill="url(#paint0_linear_4_2278)"/>
<path d="M191.574 9.76384C191.574 9.76384 192.47 10.5215 192.762 11.426C193.002 12.1668 192.992 12.3905 193 12.3851V239.587C193 239.587 192.909 240.249 192.762 240.653C192.483 241.421 191.574 242.427 191.574 242.427V9.76384Z" fill="url(#paint1_linear_4_2278)"/>
<path d="M191.574 9.76384C191.574 9.76384 192.47 10.5215 192.762 11.426C193.002 12.1668 192.992 12.3905 193 12.3851V239.587C193 239.587 192.909 240.249 192.762 240.653C192.483 241.421 191.574 242.427 191.574 242.427V9.76384Z" fill="url(#paint2_linear_4_2278)"/>
<g filter="url(#filter0_d_4_2278)">
<path d="M188.682 13.187L18.0587 24.2093V225.271L188.682 239.524V13.187Z" fill="white"/>
<path d="M188.682 13.187L18.0587 24.2093V225.271L188.682 239.524V13.187Z" stroke="#CBCBCB" stroke-width="1.52709"/>
</g>
<g filter="url(#filter1_d_4_2278)">
<path d="M187.748 12.6281L17.436 23.6912V225.497L187.748 239.803V12.6281Z" fill="white"/>
<path d="M187.748 12.6281L17.436 23.6912V225.497L187.748 239.803V12.6281Z" stroke="#CBCBCB" stroke-width="1.52709"/>
</g>
<g filter="url(#filter2_d_4_2278)">
<path d="M186.814 12.3487L16.5019 23.4526V226.003L186.814 240.362V12.3487Z" fill="white"/>
<path d="M186.814 12.3487L16.5019 23.4526V226.003L186.814 240.362V12.3487Z" stroke="#CBCBCB" stroke-width="1.52709"/>
</g>
<g filter="url(#filter3_d_4_2278)">
<path d="M185.88 11.7899L15.5679 22.9346V226.23L185.88 240.641V11.7899Z" fill="white"/>
<path d="M185.88 11.7899L15.5679 22.9346V226.23L185.88 240.641V11.7899Z" stroke="#CBCBCB" stroke-width="1.52709"/>
</g>
<g filter="url(#filter4_d_4_2278)">
<path d="M184.946 11.5104L14.6338 22.696V226.736L184.946 241.2V11.5104Z" fill="white"/>
<path d="M184.946 11.5104L14.6338 22.696V226.736L184.946 241.2V11.5104Z" stroke="#CBCBCB" stroke-width="1.52709"/>
</g>
<g filter="url(#filter5_d_4_2278)">
<path d="M184.012 10.9516L14.6338 22.2052V227.486L184.012 242.038V10.9516Z" fill="white"/>
<path d="M184.012 10.9516L14.6338 22.2052V227.486L184.012 242.038V10.9516Z" stroke="#CBCBCB" stroke-width="1.52709"/>
</g>
<g filter="url(#filter6_d_4_2278)">
<path d="M183.078 10.6721L13.6997 21.9802V228.254L183.078 242.877V10.6721Z" fill="white"/>
<path d="M183.078 10.6721L13.6997 21.9802V228.254L183.078 242.877V10.6721Z" stroke="#CBCBCB" stroke-width="1.52709"/>
</g>
<g filter="url(#filter7_d_4_2278)">
<path d="M182.144 9.83386L12.7657 21.2235V228.987L182.144 243.715V9.83386Z" fill="white"/>
<path d="M182.144 9.83386L12.7657 21.2235V228.987L182.144 243.715V9.83386Z" stroke="#CBCBCB" stroke-width="1.52709"/>
</g>
<g filter="url(#filter8_d_4_2278)">
<path d="M181.21 9.27501L11.8316 20.7327V229.737L181.21 244.553V9.27501Z" fill="white"/>
<path d="M181.21 9.27501L11.8316 20.7327V229.737L181.21 244.553V9.27501Z" stroke="#CBCBCB" stroke-width="1.52709"/>
</g>
<g filter="url(#filter9_d_4_2278)">
<path d="M180.276 8.43672L10.8975 20.0033V230.994L180.276 245.95V8.43672Z" fill="white"/>
<path d="M180.276 8.43672L10.8975 20.0033V230.994L180.276 245.95V8.43672Z" stroke="#CBCBCB" stroke-width="1.52709"/>
</g>
<g filter="url(#filter10_d_4_2278)">
<path d="M179.342 7.59845L9.96344 19.2467V231.726L179.342 246.789V7.59845Z" fill="white"/>
<path d="M179.342 7.59845L9.96344 19.2467V231.726L179.342 246.789V7.59845Z" stroke="#CBCBCB" stroke-width="1.52709"/>
</g>
<g filter="url(#filter11_d_4_2278)">
<path d="M178.408 6.76016L9.02936 18.5036V232.721L178.408 247.906V6.76016Z" fill="white"/>
<path d="M178.408 6.76016L9.02936 18.5036V232.721L178.408 247.906V6.76016Z" stroke="#CBCBCB" stroke-width="1.52709"/>
</g>
<g filter="url(#filter12_d_4_2278)">
<path d="M177.474 5.92188L8.09529 17.747V233.454L177.474 248.745V5.92188Z" fill="white"/>
<path d="M177.474 5.92188L8.09529 17.747V233.454L177.474 248.745V5.92188Z" stroke="#CBCBCB" stroke-width="1.52709"/>
</g>
<path d="M161.744 1.44938L13.9589 11.7316C6.09766 12.2785 0 18.8151 0 26.6954V224.627C0 232.391 5.92372 238.871 13.6559 239.567L161.441 252.863C170.22 253.653 177.785 246.738 177.785 237.923V16.4132C177.785 7.71904 170.417 0.845937 161.744 1.44938Z" fill="#B388FF"/>
<path d="M161.744 1.44938L13.9589 11.7316C6.09766 12.2785 0 18.8151 0 26.6954V224.627C0 232.391 5.92372 238.871 13.6559 239.567L161.441 252.863C170.22 253.653 177.785 246.738 177.785 237.923V16.4132C177.785 7.71904 170.417 0.845937 161.744 1.44938Z" fill="url(#paint3_linear_4_2278)"/>
<path d="M174.498 0.876556C174.498 0.876556 176.487 1.59323 177.189 2.56659C177.764 3.3638 177.904 4.89771 177.923 4.89197V249.706C177.923 249.706 177.502 251.6 176.944 252.266C176.229 253.12 174.498 253.759 174.498 253.759V0.876556Z" fill="url(#paint4_linear_4_2278)"/>
<path d="M174.498 0.876556C174.498 0.876556 176.487 1.59323 177.189 2.56659C177.764 3.3638 177.904 4.89771 177.923 4.89197V249.706C177.923 249.706 177.502 251.6 176.944 252.266C176.229 253.12 174.498 253.759 174.498 253.759V0.876556Z" fill="url(#paint5_linear_4_2278)"/>
<path d="M54.109 214.76L51.7635 221.046L50.8048 220.967L53.5056 214.08L54.1236 214.131L54.109 214.76ZM56.075 221.401L53.7246 214.728L53.71 214.097L54.328 214.148L57.0385 221.481L56.075 221.401ZM55.9533 218.76V219.531L51.9727 219.203V218.431L55.9533 218.76ZM61.2187 217.592V221.826L60.3135 221.751V216.468L61.17 216.538L61.2187 217.592ZM61.0338 218.968L60.6153 218.919C60.6185 218.558 60.6655 218.228 60.7564 217.93C60.8472 217.628 60.9818 217.371 61.1603 217.158C61.3387 216.944 61.5609 216.787 61.827 216.685C62.093 216.58 62.4012 216.542 62.7516 216.571C62.9981 216.591 63.2252 216.646 63.4328 216.735C63.6405 216.82 63.8205 216.944 63.973 217.106C64.1255 217.269 64.2439 217.471 64.3282 217.712C64.4126 217.953 64.4548 218.24 64.4548 218.572V222.092L63.5545 222.018V218.542C63.5545 218.265 63.5075 218.04 63.4134 217.866C63.3225 217.692 63.1928 217.561 63.0241 217.472C62.8554 217.38 62.6575 217.325 62.4304 217.306C62.1644 217.284 61.9421 217.313 61.7637 217.393C61.5853 217.473 61.4425 217.591 61.3355 217.748C61.2284 217.905 61.1505 218.089 61.1019 218.3C61.0565 218.508 61.0338 218.731 61.0338 218.968ZM64.445 218.752L63.8416 218.888C63.8449 218.598 63.8919 218.324 63.9827 218.064C64.0768 217.805 64.2114 217.579 64.3866 217.385C64.5651 217.191 64.784 217.045 65.0436 216.946C65.3031 216.843 65.6 216.806 65.9341 216.834C66.2164 216.857 66.4662 216.915 66.6835 217.008C66.9041 217.101 67.089 217.232 67.2383 217.4C67.3908 217.566 67.5059 217.772 67.5838 218.019C67.6616 218.267 67.7006 218.556 67.7006 218.888V222.36L66.7954 222.285V218.804C66.7954 218.508 66.7484 218.274 66.6543 218.104C66.5635 217.93 66.4337 217.804 66.265 217.725C66.0996 217.643 65.9017 217.593 65.6713 217.574C65.4734 217.557 65.2983 217.577 65.1458 217.633C64.9933 217.689 64.8652 217.772 64.7613 217.884C64.6575 217.993 64.578 218.121 64.5229 218.27C64.471 218.419 64.445 218.579 64.445 218.752ZM72.2846 221.517V217.455L73.1898 217.53V222.813L72.3284 222.742L72.2846 221.517ZM72.4549 220.418L72.8297 220.439C72.8297 220.791 72.7923 221.113 72.7177 221.407C72.6464 221.697 72.5296 221.944 72.3674 222.149C72.2051 222.354 71.9926 222.507 71.7299 222.609C71.4671 222.708 71.1475 222.742 70.7712 222.711C70.5149 222.69 70.2797 222.633 70.0656 222.54C69.8547 222.448 69.673 222.318 69.5206 222.149C69.3681 221.98 69.2497 221.767 69.1653 221.509C69.0842 221.252 69.0437 220.947 69.0437 220.596V217.188L69.9439 217.262V220.68C69.9439 220.917 69.9699 221.117 70.0218 221.277C70.077 221.435 70.1499 221.563 70.2408 221.661C70.3349 221.757 70.4387 221.827 70.5522 221.873C70.669 221.918 70.7891 221.946 70.9123 221.956C71.2951 221.988 71.5985 221.939 71.8223 221.811C72.0462 221.68 72.2068 221.493 72.3041 221.25C72.4047 221.005 72.4549 220.727 72.4549 220.418ZM77.6278 221.777C77.6278 221.647 77.5986 221.524 77.5402 221.409C77.4851 221.29 77.3699 221.178 77.1947 221.073C77.0228 220.964 76.7632 220.861 76.4161 220.764C76.1241 220.678 75.8597 220.583 75.6229 220.479C75.3893 220.375 75.1898 220.256 75.0244 220.122C74.8621 219.988 74.7372 219.836 74.6496 219.667C74.5621 219.497 74.5183 219.302 74.5183 219.084C74.5183 218.876 74.5637 218.683 74.6545 218.505C74.7486 218.327 74.88 218.173 75.0487 218.044C75.2206 217.915 75.4266 217.82 75.6667 217.758C75.9068 217.697 76.1744 217.678 76.4696 217.702C76.8914 217.737 77.2515 217.842 77.55 218.016C77.8484 218.19 78.0771 218.409 78.2361 218.673C78.3951 218.934 78.4746 219.215 78.4746 219.518L77.5743 219.444C77.5743 219.297 77.5305 219.152 77.4429 219.008C77.3585 218.861 77.2336 218.735 77.0682 218.631C76.906 218.526 76.7065 218.464 76.4696 218.445C76.2198 218.424 76.0171 218.446 75.8614 218.512C75.7089 218.574 75.597 218.661 75.5256 218.772C75.4575 218.884 75.4234 219.004 75.4234 219.135C75.4234 219.232 75.4396 219.322 75.472 219.402C75.5077 219.48 75.5694 219.555 75.657 219.628C75.7446 219.697 75.8678 219.765 76.0268 219.834C76.1858 219.902 76.3885 219.974 76.6351 220.05C77.0666 220.183 77.4218 220.33 77.7008 220.489C77.9798 220.649 78.1874 220.834 78.3237 221.044C78.46 221.254 78.5281 221.5 78.5281 221.783C78.5281 222.014 78.4794 222.222 78.3821 222.406C78.288 222.59 78.1501 222.745 77.9685 222.87C77.79 222.992 77.5759 223.082 77.3261 223.139C77.0795 223.194 76.8022 223.208 76.494 223.183C76.0301 223.145 75.6375 223.029 75.3163 222.837C74.9952 222.644 74.7518 222.409 74.5864 222.132C74.4209 221.855 74.3382 221.57 74.3382 221.277L75.2433 221.351C75.2563 221.6 75.3277 221.803 75.4575 221.96C75.5872 222.114 75.7462 222.229 75.9343 222.307C76.1225 222.381 76.3091 222.425 76.494 222.441C76.7405 222.461 76.9465 222.445 77.112 222.394C77.2807 222.343 77.4088 222.264 77.4964 222.157C77.584 222.05 77.6278 221.924 77.6278 221.777ZM81.915 218.249V218.942L79.0682 218.708V218.014L81.915 218.249ZM80.0318 216.81L80.932 216.884V222.143C80.932 222.322 80.9596 222.459 81.0148 222.555C81.0699 222.65 81.1413 222.716 81.2289 222.753C81.3165 222.79 81.4106 222.812 81.5111 222.82C81.5857 222.826 81.6636 222.826 81.7447 222.82C81.8291 222.811 81.8923 222.803 81.9345 222.797L81.9394 223.534C81.868 223.551 81.7739 223.565 81.6571 223.574C81.5436 223.588 81.4057 223.588 81.2435 223.575C81.0229 223.556 80.8201 223.496 80.6352 223.393C80.4503 223.289 80.3027 223.131 80.1924 222.917C80.0853 222.699 80.0318 222.415 80.0318 222.063V216.81ZM84.8445 220.38V221.122L82.4698 220.927V220.184L84.8445 220.38ZM86.6256 216.421V223.921L85.7253 223.846V216.346L86.6256 216.421ZM86.4115 221.061L86.0368 221.016C86.04 220.655 86.0935 220.325 86.1974 220.028C86.3012 219.727 86.4472 219.471 86.6353 219.258C86.8235 219.046 87.0473 218.889 87.3069 218.786C87.5697 218.681 87.86 218.642 88.1779 218.668C88.4375 218.689 88.6711 218.744 88.8787 218.833C89.0863 218.919 89.2631 219.044 89.4091 219.209C89.5583 219.374 89.6719 219.582 89.7498 219.833C89.8276 220.08 89.8665 220.378 89.8665 220.726V224.188L88.9614 224.113V220.642C88.9614 220.365 88.9209 220.14 88.8398 219.968C88.7587 219.792 88.6402 219.66 88.4845 219.572C88.3288 219.481 88.1374 219.426 87.9103 219.408C87.6864 219.389 87.4821 219.419 87.2971 219.499C87.1155 219.578 86.9581 219.695 86.8251 219.85C86.6953 220.006 86.5932 220.188 86.5185 220.396C86.4472 220.602 86.4115 220.824 86.4115 221.061ZM94.3192 223.652V220.932C94.3192 220.724 94.277 220.54 94.1927 220.38C94.1116 220.217 93.9883 220.086 93.8228 219.988C93.6574 219.89 93.453 219.83 93.2097 219.81C92.9826 219.792 92.7831 219.814 92.6111 219.878C92.4424 219.942 92.3094 220.034 92.2121 220.153C92.118 220.272 92.071 220.405 92.071 220.551L91.1707 220.477C91.1707 220.288 91.2194 220.105 91.3167 219.928C91.414 219.75 91.5535 219.594 91.7352 219.459C91.9201 219.322 92.1407 219.219 92.397 219.153C92.6566 219.083 92.9453 219.061 93.2632 219.087C93.646 219.119 93.9834 219.212 94.2754 219.366C94.5706 219.521 94.801 219.736 94.9664 220.014C95.1351 220.288 95.2195 220.622 95.2195 221.016V223.477C95.2195 223.653 95.2341 223.841 95.2633 224.042C95.2957 224.243 95.3428 224.418 95.4044 224.567V224.645L94.4652 224.567C94.4198 224.459 94.3841 224.318 94.3581 224.143C94.3322 223.965 94.3192 223.802 94.3192 223.652ZM94.4749 221.365L94.4847 222L93.5747 221.925C93.3184 221.904 93.0897 221.907 92.8885 221.932C92.6874 221.955 92.5187 222.001 92.3824 222.071C92.2462 222.141 92.1424 222.235 92.071 222.353C91.9996 222.468 91.9639 222.606 91.9639 222.769C91.9639 222.935 92.0012 223.09 92.0758 223.232C92.1505 223.375 92.2624 223.494 92.4116 223.587C92.5641 223.678 92.7506 223.732 92.9712 223.751C93.247 223.773 93.4903 223.735 93.7012 223.635C93.9121 223.535 94.0791 223.406 94.2024 223.247C94.3289 223.088 94.3971 222.929 94.4068 222.77L94.7912 223.237C94.7685 223.372 94.7069 223.518 94.6063 223.676C94.5057 223.833 94.3711 223.982 94.2024 224.121C94.037 224.257 93.8391 224.366 93.6087 224.448C93.3816 224.527 93.1253 224.554 92.8399 224.531C92.483 224.501 92.1699 224.406 91.9007 224.243C91.6346 224.081 91.427 223.877 91.2778 223.631C91.1318 223.381 91.0588 223.11 91.0588 222.817C91.0588 222.533 91.1139 222.289 91.2242 222.083C91.3345 221.874 91.4935 221.707 91.7011 221.58C91.9088 221.451 92.1586 221.361 92.4505 221.31C92.7425 221.259 93.0686 221.249 93.4287 221.279L94.4749 221.365ZM98.1587 224.056L99.5991 219.707L100.519 219.783L98.6259 224.91L98.0225 224.861L98.1587 224.056ZM96.9567 219.489L98.441 224.104L98.5431 224.903L97.9397 224.854L96.0321 219.413L96.9567 219.489ZM103.502 225.41C103.135 225.38 102.803 225.291 102.504 225.142C102.209 224.991 101.954 224.793 101.74 224.547C101.529 224.302 101.367 224.018 101.254 223.696C101.14 223.374 101.083 223.028 101.083 222.657V222.452C101.083 222.022 101.147 221.645 101.273 221.32C101.4 220.992 101.572 220.72 101.789 220.503C102.006 220.287 102.253 220.13 102.529 220.032C102.804 219.934 103.09 219.898 103.385 219.922C103.761 219.953 104.086 220.045 104.358 220.197C104.634 220.35 104.86 220.551 105.035 220.8C105.21 221.046 105.34 221.33 105.424 221.653C105.508 221.972 105.551 222.317 105.551 222.688V223.094L101.619 222.769V222.032L104.65 222.282V222.214C104.637 221.978 104.589 221.746 104.504 221.518C104.423 221.29 104.293 221.097 104.115 220.939C103.937 220.781 103.693 220.69 103.385 220.664C103.181 220.647 102.993 220.676 102.821 220.749C102.649 220.82 102.501 220.935 102.378 221.094C102.255 221.253 102.159 221.452 102.091 221.69C102.023 221.929 101.988 222.207 101.988 222.526V222.732C101.988 222.982 102.023 223.221 102.091 223.448C102.162 223.672 102.264 223.872 102.397 224.049C102.534 224.227 102.697 224.37 102.889 224.481C103.083 224.591 103.304 224.656 103.551 224.677C103.868 224.703 104.138 224.66 104.358 224.548C104.579 224.436 104.772 224.278 104.937 224.073L105.482 224.553C105.369 224.716 105.225 224.869 105.049 225.01C104.874 225.152 104.658 225.261 104.402 225.338C104.149 225.415 103.849 225.439 103.502 225.41ZM110.417 225.883L109.517 225.808V219.969C109.517 219.588 109.585 219.273 109.721 219.023C109.861 218.771 110.06 218.589 110.32 218.477C110.579 218.362 110.887 218.319 111.244 218.348C111.348 218.357 111.452 218.372 111.556 218.394C111.663 218.415 111.766 218.443 111.867 218.478L111.818 219.211C111.75 219.189 111.672 219.171 111.585 219.158C111.5 219.144 111.416 219.134 111.332 219.127C111.14 219.111 110.975 219.137 110.835 219.203C110.699 219.267 110.595 219.369 110.524 219.51C110.453 219.65 110.417 219.828 110.417 220.043V225.883ZM111.536 220.692V221.385L108.685 221.15V220.457L111.536 220.692ZM112.3 223.455V223.343C112.3 222.962 112.355 222.613 112.466 222.297C112.576 221.977 112.735 221.705 112.943 221.482C113.15 221.255 113.402 221.086 113.697 220.977C113.992 220.865 114.323 220.824 114.69 220.854C115.059 220.885 115.392 220.98 115.687 221.141C115.986 221.3 116.239 221.509 116.446 221.77C116.657 222.029 116.818 222.327 116.928 222.665C117.038 222.999 117.093 223.357 117.093 223.738V223.85C117.093 224.231 117.038 224.58 116.928 224.896C116.818 225.213 116.657 225.484 116.446 225.711C116.239 225.935 115.987 226.103 115.692 226.215C115.4 226.324 115.069 226.364 114.699 226.333C114.329 226.303 113.997 226.209 113.702 226.051C113.406 225.89 113.153 225.68 112.943 225.422C112.735 225.161 112.576 224.863 112.466 224.528C112.355 224.194 112.3 223.836 112.3 223.455ZM113.2 223.417V223.529C113.2 223.793 113.231 224.044 113.293 224.284C113.355 224.52 113.447 224.733 113.57 224.922C113.697 225.111 113.854 225.266 114.042 225.386C114.23 225.502 114.449 225.571 114.699 225.591C114.946 225.612 115.162 225.579 115.346 225.493C115.535 225.405 115.69 225.276 115.814 225.107C115.937 224.938 116.029 224.741 116.091 224.515C116.156 224.286 116.188 224.039 116.188 223.776V223.663C116.188 223.403 116.156 223.154 116.091 222.918C116.029 222.678 115.935 222.464 115.809 222.275C115.685 222.082 115.53 221.926 115.342 221.806C115.157 221.687 114.939 221.617 114.69 221.596C114.443 221.576 114.226 221.61 114.037 221.699C113.853 221.788 113.697 221.918 113.57 222.09C113.447 222.259 113.355 222.458 113.293 222.687C113.231 222.913 113.2 223.156 113.2 223.417ZM119.123 222.147V226.601L118.222 226.526V221.243L119.098 221.315L119.123 222.147ZM120.768 221.424L120.763 222.263C120.688 222.241 120.617 222.225 120.549 222.216C120.484 222.204 120.409 222.195 120.325 222.188C120.117 222.171 119.934 222.188 119.775 222.24C119.616 222.292 119.481 222.372 119.371 222.48C119.261 222.588 119.173 222.721 119.108 222.879C119.046 223.033 119.006 223.206 118.986 223.396L118.733 223.522C118.733 223.203 118.764 222.906 118.826 222.631C118.891 222.356 118.99 222.117 119.123 221.913C119.256 221.706 119.424 221.551 119.629 221.447C119.836 221.34 120.083 221.299 120.368 221.322C120.433 221.328 120.508 221.342 120.592 221.365C120.677 221.385 120.735 221.405 120.768 221.424ZM57.35 229.239V235.538L56.4448 235.463V228.149L57.2721 228.217L57.35 229.239ZM60.8975 231.114V231.216C60.8975 231.6 60.8521 231.953 60.7612 232.274C60.6704 232.592 60.5374 232.864 60.3622 233.091C60.1903 233.318 59.9778 233.487 59.7247 233.6C59.4717 233.712 59.1813 233.755 58.8537 233.728C58.5195 233.701 58.2243 233.621 57.968 233.489C57.7117 233.357 57.4943 233.178 57.3159 232.952C57.1375 232.726 56.9947 232.46 56.8877 232.155C56.7839 231.85 56.7125 231.511 56.6736 231.136V230.589C56.7125 230.202 56.7855 229.858 56.8925 229.558C56.9996 229.257 57.1407 229.005 57.3159 228.802C57.4943 228.595 57.7101 228.445 57.9631 228.352C58.2162 228.256 58.5081 228.221 58.8391 228.248C59.17 228.276 59.4636 228.365 59.7199 228.516C59.9761 228.664 60.1919 228.865 60.3671 229.117C60.5423 229.369 60.6736 229.664 60.7612 230.004C60.8521 230.34 60.8975 230.71 60.8975 231.114ZM59.9924 231.141V231.039C59.9924 230.775 59.9648 230.526 59.9096 230.29C59.8545 230.051 59.7685 229.839 59.6517 229.653C59.5382 229.465 59.3922 229.313 59.2138 229.197C59.0353 229.078 58.8228 229.009 58.5763 228.988C58.3492 228.97 58.1513 228.993 57.9826 229.057C57.8171 229.121 57.676 229.215 57.5592 229.339C57.4424 229.46 57.3467 229.602 57.2721 229.765C57.2007 229.925 57.1472 230.093 57.1115 230.269V231.534C57.1764 231.767 57.2672 231.989 57.384 232.201C57.5008 232.409 57.6565 232.583 57.8512 232.723C58.0459 232.859 58.2908 232.94 58.586 232.964C58.8293 232.984 59.0386 232.951 59.2138 232.864C59.3922 232.775 59.5382 232.645 59.6517 232.476C59.7685 232.306 59.8545 232.108 59.9096 231.882C59.9648 231.652 59.9924 231.405 59.9924 231.141ZM62.9462 229.515V233.968L62.0459 233.894V228.611L62.9219 228.683L62.9462 229.515ZM64.591 228.791L64.5862 229.631C64.5115 229.608 64.4402 229.593 64.372 229.584C64.3071 229.572 64.2325 229.562 64.1482 229.555C63.9406 229.538 63.7573 229.556 63.5983 229.608C63.4393 229.66 63.3047 229.74 63.1944 229.848C63.0841 229.956 62.9965 230.089 62.9316 230.246C62.87 230.401 62.8294 230.573 62.81 230.763L62.5569 230.889C62.5569 230.57 62.5877 230.273 62.6494 229.998C62.7142 229.724 62.8132 229.484 62.9462 229.281C63.0792 229.073 63.2479 228.918 63.4523 228.814C63.6599 228.708 63.9065 228.666 64.192 228.69C64.2569 228.695 64.3315 228.71 64.4158 228.733C64.5002 228.753 64.5586 228.772 64.591 228.791ZM65.0874 231.562V231.449C65.0874 231.068 65.1425 230.72 65.2528 230.403C65.3631 230.084 65.5221 229.812 65.7297 229.588C65.9374 229.361 66.1888 229.193 66.484 229.084C66.7792 228.972 67.1101 228.931 67.4767 228.961C67.8466 228.991 68.1791 229.087 68.4743 229.248C68.7728 229.406 69.0258 229.616 69.2335 229.877C69.4443 230.135 69.6049 230.433 69.7152 230.771C69.8255 231.106 69.8807 231.464 69.8807 231.845V231.957C69.8807 232.338 69.8255 232.686 69.7152 233.003C69.6049 233.319 69.4443 233.591 69.2335 233.818C69.0258 234.041 68.7744 234.209 68.4792 234.322C68.1872 234.431 67.8563 234.471 67.4865 234.44C67.1166 234.41 66.7841 234.315 66.4889 234.158C66.1936 233.997 65.9406 233.787 65.7297 233.529C65.5221 233.267 65.3631 232.969 65.2528 232.635C65.1425 232.3 65.0874 231.942 65.0874 231.562ZM65.9876 231.523V231.636C65.9876 231.899 66.0185 232.151 66.0801 232.39C66.1417 232.627 66.2342 232.839 66.3575 233.029C66.484 233.218 66.6413 233.373 66.8295 233.492C67.0177 233.609 67.2367 233.677 67.4865 233.698C67.733 233.718 67.9488 233.686 68.1337 233.6C68.3218 233.511 68.4776 233.382 68.6008 233.214C68.7241 233.045 68.8166 232.847 68.8782 232.621C68.9431 232.392 68.9755 232.146 68.9755 231.882V231.77C68.9755 231.509 68.9431 231.261 68.8782 231.025C68.8166 230.785 68.7225 230.571 68.596 230.381C68.4727 230.189 68.317 230.033 68.1288 229.913C67.9439 229.794 67.7265 229.724 67.4767 229.703C67.2302 229.683 67.0128 229.717 66.8246 229.805C66.6397 229.894 66.484 230.025 66.3575 230.197C66.2342 230.365 66.1417 230.565 66.0801 230.794C66.0185 231.02 65.9876 231.263 65.9876 231.523ZM74.4209 229.631L75.2385 229.698V234.869C75.2385 235.335 75.1444 235.724 74.9562 236.038C74.7681 236.351 74.5053 236.578 74.1679 236.72C73.8337 236.865 73.4477 236.919 73.0097 236.883C72.828 236.868 72.6139 236.821 72.3674 236.742C72.124 236.667 71.884 236.551 71.6471 236.395C71.4136 236.242 71.2173 236.045 71.0583 235.804L71.5304 235.306C71.751 235.591 71.9813 235.795 72.2214 235.919C72.4647 236.044 72.7048 236.116 72.9416 236.135C73.2271 236.159 73.4736 236.125 73.6813 236.035C73.8889 235.945 74.0495 235.798 74.163 235.596C74.2798 235.397 74.3382 235.145 74.3382 234.839V230.786L74.4209 229.631ZM70.7955 232.032V231.93C70.7955 231.526 70.8426 231.164 70.9367 230.843C71.034 230.519 71.1719 230.245 71.3503 230.022C71.532 229.8 71.751 229.635 72.0072 229.53C72.2635 229.421 72.5523 229.379 72.8734 229.406C73.2044 229.433 73.4931 229.515 73.7396 229.653C73.9895 229.788 74.2003 229.973 74.3723 230.208C74.5475 230.441 74.6853 230.716 74.7859 231.033C74.8865 231.351 74.9562 231.706 74.9952 232.1V232.55C74.9595 232.934 74.8897 233.276 74.7859 233.577C74.6853 233.878 74.5475 234.13 74.3723 234.334C74.2003 234.538 73.9895 234.688 73.7396 234.785C73.4898 234.878 73.1979 234.911 72.8637 234.883C72.549 234.858 72.2635 234.767 72.0072 234.613C71.7542 234.458 71.5368 234.253 71.3552 233.997C71.1735 233.742 71.034 233.447 70.9367 233.113C70.8426 232.777 70.7955 232.416 70.7955 232.032ZM71.6958 232.004V232.107C71.6958 232.37 71.7218 232.62 71.7737 232.855C71.8288 233.091 71.9115 233.301 72.0218 233.486C72.1354 233.671 72.2798 233.821 72.4549 233.937C72.6301 234.049 72.8394 234.115 73.0827 234.135C73.3812 234.16 73.6277 234.116 73.8224 234.006C74.017 233.895 74.1711 233.74 74.2847 233.541C74.4015 233.342 74.4923 233.123 74.5572 232.884V231.708C74.5215 231.526 74.4663 231.349 74.3917 231.176C74.3204 231.001 74.2263 230.844 74.1095 230.704C73.9959 230.561 73.8548 230.444 73.6861 230.352C73.5174 230.26 73.3195 230.204 73.0924 230.186C72.8459 230.165 72.6334 230.2 72.4549 230.289C72.2798 230.376 72.1354 230.504 72.0218 230.673C71.9115 230.84 71.8288 231.038 71.7737 231.268C71.7218 231.495 71.6958 231.74 71.6958 232.004ZM77.5062 230.716V235.169L76.6059 235.094V229.811L77.4818 229.883L77.5062 230.716ZM79.151 229.992L79.1461 230.831C79.0715 230.809 79.0001 230.793 78.932 230.784C78.8671 230.772 78.7925 230.763 78.7081 230.756C78.5005 230.739 78.3172 230.756 78.1582 230.808C77.9993 230.86 77.8646 230.94 77.7543 231.049C77.644 231.157 77.5564 231.289 77.4916 231.447C77.4299 231.601 77.3894 231.774 77.3699 231.964L77.1169 232.09C77.1169 231.771 77.1477 231.474 77.2093 231.199C77.2742 230.924 77.3731 230.685 77.5062 230.481C77.6392 230.274 77.8079 230.119 78.0123 230.015C78.2199 229.909 78.4664 229.867 78.7519 229.891C78.8168 229.896 78.8914 229.91 78.9758 229.933C79.0601 229.953 79.1185 229.973 79.151 229.992ZM82.8931 234.71V231.99C82.8931 231.782 82.851 231.597 82.7666 231.437C82.6855 231.275 82.5622 231.144 82.3968 231.046C82.2313 230.947 82.0269 230.888 81.7836 230.868C81.5565 230.849 81.357 230.872 81.1851 230.936C81.0164 231 80.8834 231.092 80.786 231.211C80.692 231.33 80.6449 231.463 80.6449 231.609L79.7447 231.535C79.7447 231.346 79.7933 231.163 79.8906 230.985C79.988 230.808 80.1275 230.652 80.3091 230.517C80.4941 230.379 80.7147 230.277 80.971 230.21C81.2305 230.141 81.5192 230.119 81.8372 230.145C82.22 230.177 82.5574 230.269 82.8494 230.424C83.1446 230.578 83.3749 230.794 83.5404 231.072C83.7091 231.346 83.7934 231.68 83.7934 232.074V234.535C83.7934 234.711 83.808 234.899 83.8372 235.1C83.8697 235.301 83.9167 235.476 83.9783 235.624V235.702L83.0391 235.625C82.9937 235.517 82.958 235.376 82.9321 235.201C82.9061 235.023 82.8931 234.859 82.8931 234.71ZM83.0489 232.423L83.0586 233.058L82.1486 232.983C81.8923 232.962 81.6636 232.964 81.4625 232.99C81.2613 233.013 81.0926 233.059 80.9564 233.129C80.8201 233.199 80.7163 233.293 80.6449 233.411C80.5735 233.525 80.5379 233.664 80.5379 233.827C80.5379 233.993 80.5752 234.147 80.6498 234.29C80.7244 234.433 80.8363 234.551 80.9856 234.645C81.138 234.736 81.3246 234.79 81.5452 234.808C81.8209 234.831 82.0643 234.793 82.2751 234.693C82.486 234.593 82.6531 234.464 82.7764 234.304C82.9029 234.146 82.971 233.987 82.9807 233.828L83.3652 234.294C83.3425 234.429 83.2808 234.576 83.1803 234.733C83.0797 234.891 82.9451 235.039 82.7764 235.178C82.6109 235.315 82.413 235.424 82.1827 235.505C81.9556 235.584 81.6993 235.612 81.4138 235.589C81.0569 235.559 80.7439 235.463 80.4746 235.301C80.2086 235.139 80.0009 234.935 79.8517 234.688C79.7057 234.439 79.6327 234.167 79.6327 233.874C79.6327 233.591 79.6879 233.347 79.7982 233.141C79.9085 232.932 80.0675 232.764 80.2751 232.638C80.4827 232.509 80.7325 232.419 81.0245 232.368C81.3165 232.317 81.6425 232.307 82.0026 232.336L83.0489 232.423ZM86.1049 231.644V235.878L85.1998 235.803V230.52L86.0562 230.591L86.1049 231.644ZM85.92 233.021L85.5015 232.972C85.5047 232.61 85.5518 232.281 85.6426 231.982C85.7334 231.68 85.8681 231.423 86.0465 231.21C86.2249 230.997 86.4472 230.839 86.7132 230.737C86.9792 230.632 87.2874 230.594 87.6378 230.623C87.8843 230.644 88.1114 230.698 88.3191 230.787C88.5267 230.872 88.7067 230.996 88.8592 231.159C89.0117 231.321 89.1301 231.523 89.2145 231.764C89.2988 232.005 89.341 232.292 89.341 232.624V236.145L88.4407 236.07V232.594C88.4407 232.317 88.3937 232.092 88.2996 231.918C88.2088 231.745 88.079 231.613 87.9103 231.525C87.7416 231.433 87.5437 231.377 87.3166 231.359C87.0506 231.337 86.8284 231.365 86.6499 231.445C86.4715 231.525 86.3288 231.643 86.2217 231.8C86.1146 231.958 86.0368 232.142 85.9881 232.353C85.9427 232.56 85.92 232.783 85.92 233.021ZM89.3313 232.804L88.7278 232.94C88.7311 232.65 88.7781 232.376 88.869 232.116C88.963 231.857 89.0977 231.631 89.2729 231.437C89.4513 231.243 89.6703 231.097 89.9298 230.998C90.1893 230.896 90.4862 230.858 90.8203 230.886C91.1026 230.909 91.3524 230.967 91.5698 231.06C91.7904 231.153 91.9753 231.284 92.1245 231.452C92.277 231.618 92.3922 231.824 92.47 232.072C92.5479 232.319 92.5868 232.609 92.5868 232.941V236.412L91.6817 236.338V232.856C91.6817 232.56 91.6346 232.327 91.5406 232.156C91.4497 231.983 91.3199 231.856 91.1512 231.777C90.9858 231.695 90.7879 231.645 90.5576 231.626C90.3597 231.609 90.1845 231.629 90.032 231.685C89.8795 231.741 89.7514 231.825 89.6476 231.937C89.5438 232.045 89.4643 232.174 89.4091 232.322C89.3572 232.471 89.3313 232.631 89.3313 232.804ZM94.8448 232.365V236.598L93.9396 236.524V231.241L94.7961 231.311L94.8448 232.365ZM94.6598 233.741L94.2413 233.692C94.2446 233.331 94.2916 233.001 94.3825 232.703C94.4733 232.401 94.6079 232.144 94.7864 231.931C94.9648 231.717 95.187 231.56 95.4531 231.458C95.7191 231.353 96.0273 231.315 96.3776 231.344C96.6242 231.364 96.8513 231.419 97.0589 231.508C97.2666 231.593 97.4466 231.717 97.5991 231.879C97.7516 232.042 97.87 232.243 97.9543 232.485C98.0387 232.726 98.0809 233.013 98.0809 233.345V236.865L97.1806 236.791V233.315C97.1806 233.038 97.1335 232.813 97.0395 232.639C96.9486 232.465 96.8189 232.334 96.6502 232.245C96.4815 232.153 96.2836 232.098 96.0565 232.079C95.7904 232.057 95.5682 232.086 95.3898 232.166C95.2114 232.246 95.0686 232.364 94.9616 232.521C94.8545 232.678 94.7766 232.862 94.728 233.073C94.6826 233.281 94.6598 233.504 94.6598 233.741ZM98.0711 233.525L97.4677 233.66C97.4709 233.371 97.518 233.097 97.6088 232.837C97.7029 232.578 97.8375 232.351 98.0127 232.158C98.1912 231.964 98.4101 231.818 98.6697 231.719C98.9292 231.616 99.2261 231.579 99.5602 231.606C99.8425 231.63 100.092 231.688 100.31 231.781C100.53 231.874 100.715 232.004 100.864 232.173C101.017 232.339 101.132 232.545 101.21 232.792C101.288 233.04 101.327 233.329 101.327 233.661V237.133L100.422 237.058V233.577C100.422 233.281 100.374 233.047 100.28 232.877C100.19 232.703 100.06 232.577 99.8911 232.498C99.7257 232.416 99.5278 232.366 99.2974 232.347C99.0995 232.33 98.9243 232.35 98.7719 232.406C98.6194 232.462 98.4912 232.545 98.3874 232.657C98.2836 232.766 98.2041 232.894 98.149 233.043C98.0971 233.192 98.0711 233.352 98.0711 233.525ZM104.874 237.523C104.508 237.493 104.175 237.404 103.877 237.255C103.581 237.104 103.327 236.906 103.113 236.66C102.902 236.415 102.74 236.131 102.626 235.809C102.512 235.488 102.456 235.141 102.456 234.77V234.565C102.456 234.135 102.519 233.758 102.645 233.433C102.772 233.105 102.944 232.833 103.161 232.616C103.379 232.4 103.625 232.243 103.901 232.145C104.177 232.047 104.462 232.011 104.757 232.035C105.134 232.066 105.458 232.158 105.731 232.311C106.006 232.464 106.232 232.664 106.407 232.913C106.582 233.159 106.712 233.443 106.796 233.766C106.881 234.085 106.923 234.43 106.923 234.802V235.207L102.991 234.883V234.145L106.023 234.395V234.327C106.01 234.091 105.961 233.86 105.877 233.631C105.796 233.403 105.666 233.21 105.487 233.052C105.309 232.894 105.066 232.803 104.757 232.777C104.553 232.76 104.365 232.789 104.193 232.863C104.021 232.933 103.873 233.048 103.75 233.207C103.627 233.366 103.531 233.565 103.463 233.803C103.395 234.042 103.361 234.321 103.361 234.64V234.845C103.361 235.095 103.395 235.334 103.463 235.561C103.534 235.785 103.637 235.986 103.77 236.163C103.906 236.34 104.07 236.484 104.261 236.594C104.456 236.704 104.676 236.77 104.923 236.79C105.241 236.816 105.51 236.773 105.731 236.661C105.951 236.549 106.144 236.391 106.31 236.187L106.855 236.666C106.741 236.829 106.597 236.982 106.422 237.123C106.246 237.265 106.031 237.374 105.774 237.451C105.521 237.528 105.221 237.552 104.874 237.523ZM108.874 233.302V237.755L107.974 237.681V232.398L108.85 232.47L108.874 233.302ZM110.519 232.579L110.514 233.418C110.44 233.396 110.368 233.38 110.3 233.371C110.235 233.359 110.161 233.35 110.076 233.343C109.869 233.326 109.685 233.343 109.526 233.395C109.367 233.447 109.233 233.527 109.122 233.635C109.012 233.743 108.925 233.876 108.86 234.034C108.798 234.188 108.758 234.36 108.738 234.551L108.485 234.676C108.485 234.357 108.516 234.06 108.577 233.786C108.642 233.511 108.741 233.272 108.874 233.068C109.007 232.861 109.176 232.705 109.38 232.602C109.588 232.495 109.835 232.454 110.12 232.477C110.185 232.483 110.26 232.497 110.344 232.52C110.428 232.54 110.487 232.56 110.519 232.579ZM114.417 236.811C114.417 236.681 114.388 236.558 114.329 236.443C114.274 236.324 114.159 236.212 113.984 236.106C113.812 235.998 113.552 235.895 113.205 235.798C112.913 235.712 112.649 235.617 112.412 235.513C112.179 235.409 111.979 235.29 111.814 235.156C111.651 235.022 111.526 234.87 111.439 234.7C111.351 234.53 111.307 234.336 111.307 234.118C111.307 233.91 111.353 233.717 111.444 233.539C111.538 233.361 111.669 233.207 111.838 233.078C112.01 232.949 112.216 232.854 112.456 232.792C112.696 232.73 112.964 232.712 113.259 232.736C113.681 232.771 114.041 232.875 114.339 233.05C114.638 233.224 114.866 233.443 115.025 233.707C115.184 233.968 115.264 234.249 115.264 234.552L114.363 234.478C114.363 234.331 114.32 234.186 114.232 234.042C114.148 233.895 114.023 233.769 113.857 233.664C113.695 233.56 113.496 233.498 113.259 233.478C113.009 233.458 112.806 233.48 112.651 233.545C112.498 233.608 112.386 233.694 112.315 233.806C112.247 233.917 112.213 234.038 112.213 234.168C112.213 234.266 112.229 234.355 112.261 234.436C112.297 234.514 112.359 234.589 112.446 234.661C112.534 234.73 112.657 234.799 112.816 234.868C112.975 234.936 113.178 235.008 113.424 235.084C113.856 235.217 114.211 235.363 114.49 235.523C114.769 235.683 114.977 235.868 115.113 236.078C115.249 236.287 115.317 236.534 115.317 236.817C115.317 237.048 115.269 237.256 115.171 237.44C115.077 237.624 114.939 237.779 114.758 237.904C114.579 238.026 114.365 238.115 114.115 238.173C113.869 238.228 113.591 238.242 113.283 238.217C112.819 238.178 112.427 238.063 112.106 237.871C111.784 237.678 111.541 237.443 111.376 237.166C111.21 236.888 111.127 236.603 111.127 236.31L112.033 236.385C112.045 236.633 112.117 236.836 112.247 236.993C112.376 237.147 112.535 237.263 112.724 237.34C112.912 237.415 113.098 237.459 113.283 237.474C113.53 237.495 113.736 237.479 113.901 237.428C114.07 237.377 114.198 237.298 114.286 237.191C114.373 237.084 114.417 236.958 114.417 236.811Z" fill="white" fill-opacity="0.7"/>
<path d="M51.5505 106.578L46.3653 104.367V103.049L51.5505 100.959V102.541L48.3398 103.593L47.9414 103.735L48.3398 103.88L51.5505 104.99V106.578ZM53.314 104.226C53.314 103.745 53.3687 103.307 53.4781 102.91C53.5914 102.512 53.7554 102.173 53.9702 101.89C54.1851 101.607 54.4448 101.39 54.7495 101.237C55.058 101.084 55.4096 101.01 55.8041 101.015C56.1361 101.019 56.4271 101.083 56.6771 101.207C56.931 101.327 57.1556 101.498 57.3509 101.719V98.4902L58.9855 98.5094V107.509L57.5149 107.492L57.4329 106.829C57.2337 107.073 56.9993 107.261 56.7298 107.395C56.4603 107.529 56.1478 107.593 55.7924 107.589C55.4057 107.584 55.058 107.5 54.7495 107.337C54.4448 107.169 54.187 106.941 53.9761 106.654C53.7613 106.366 53.5972 106.026 53.4839 105.634C53.3707 105.238 53.314 104.81 53.314 104.349V104.226ZM54.9428 104.368C54.9428 104.634 54.9643 104.882 55.0073 105.113C55.0541 105.34 55.1284 105.538 55.2299 105.707C55.3315 105.881 55.4623 106.017 55.6225 106.116C55.7826 106.216 55.9779 106.267 56.2084 106.27C56.4896 106.273 56.722 106.215 56.9056 106.096C57.0931 105.977 57.2415 105.813 57.3509 105.603V103.037C57.2415 102.821 57.095 102.653 56.9114 102.534C56.7279 102.411 56.4974 102.347 56.2201 102.344C55.9896 102.341 55.7924 102.39 55.6283 102.489C55.4682 102.585 55.3373 102.718 55.2358 102.889C55.1342 103.064 55.06 103.268 55.0131 103.502C54.9663 103.732 54.9428 103.979 54.9428 104.245V104.368ZM63.7664 107.683C63.2782 107.677 62.8349 107.592 62.4364 107.427C62.038 107.262 61.6963 107.039 61.4111 106.759C61.126 106.482 60.9053 106.157 60.7491 105.784C60.5967 105.407 60.5206 105.006 60.5206 104.58V104.346C60.5206 103.861 60.5967 103.421 60.7491 103.024C60.9014 102.624 61.1143 102.28 61.3877 101.995C61.6611 101.709 61.9853 101.488 62.3603 101.332C62.7353 101.176 63.1434 101.101 63.5848 101.106C64.0418 101.112 64.448 101.193 64.8035 101.349C65.1628 101.502 65.4675 101.716 65.7175 101.993C65.9635 102.269 66.151 102.601 66.2799 102.99C66.4088 103.374 66.4733 103.799 66.4733 104.263V104.955L62.1728 104.904V104.922C62.2275 105.176 62.2978 105.382 62.3837 105.54C62.4696 105.693 62.5849 105.833 62.7294 105.96C62.8778 106.09 63.0477 106.192 63.2391 106.264C63.4305 106.337 63.6395 106.375 63.866 106.377C64.1863 106.381 64.4968 106.324 64.7976 106.207C65.0984 106.089 65.3425 105.91 65.53 105.67L66.3444 106.559C66.1374 106.849 65.8093 107.111 65.3601 107.344C64.9109 107.577 64.3797 107.69 63.7664 107.683ZM63.5731 102.425C63.3895 102.422 63.2215 102.454 63.0692 102.518C62.9169 102.579 62.7841 102.669 62.6708 102.789C62.5536 102.909 62.456 103.052 62.3779 103.219C62.2997 103.386 62.2411 103.573 62.2021 103.78L64.8738 103.811V103.682C64.8738 103.51 64.8425 103.348 64.78 103.195C64.7175 103.042 64.6316 102.908 64.5222 102.793C64.4129 102.683 64.2781 102.595 64.118 102.531C63.9617 102.462 63.7801 102.427 63.5731 102.425ZM73.6095 104.576C73.6095 104.88 73.588 105.169 73.5451 105.442C73.5021 105.711 73.4396 105.96 73.3576 106.19C73.2677 106.443 73.1486 106.672 73.0002 106.877C72.8556 107.082 72.6838 107.252 72.4846 107.387C72.3049 107.514 72.1018 107.609 71.8752 107.673C71.6526 107.74 71.4065 107.772 71.137 107.769C70.8909 107.766 70.6663 107.733 70.4632 107.668C70.264 107.607 70.0844 107.517 69.9242 107.398C69.8383 107.338 69.7582 107.273 69.684 107.201C69.6098 107.126 69.5395 107.045 69.4731 106.959L69.3969 107.632L67.9322 107.614V98.6145L69.561 98.6336V101.868C69.6391 101.779 69.723 101.698 69.8129 101.625C69.9027 101.548 69.9984 101.482 70.1 101.429C70.2445 101.349 70.4007 101.29 70.5687 101.253C70.7406 101.212 70.9261 101.193 71.1253 101.195C71.3987 101.198 71.6487 101.236 71.8752 101.309C72.1057 101.382 72.3108 101.486 72.4904 101.621C72.635 101.724 72.7658 101.849 72.883 101.995C73.0002 102.137 73.1037 102.292 73.1935 102.461C73.3341 102.733 73.4376 103.037 73.504 103.373C73.5743 103.71 73.6095 104.07 73.6095 104.453V104.576ZM71.9807 104.434C71.9807 104.266 71.9729 104.103 71.9573 103.947C71.9416 103.79 71.9163 103.644 71.8811 103.507C71.8381 103.346 71.7815 103.203 71.7112 103.077C71.6448 102.947 71.5432 102.829 71.4065 102.722C71.3167 102.654 71.2151 102.604 71.1019 102.572C70.9886 102.535 70.8597 102.516 70.7152 102.514C70.5199 102.512 70.348 102.537 70.1996 102.59C70.0512 102.643 69.9242 102.722 69.8187 102.826C69.768 102.876 69.7211 102.934 69.6781 103C69.6352 103.062 69.5961 103.13 69.561 103.204V105.729C69.6078 105.828 69.6606 105.918 69.7191 106.001C69.7816 106.08 69.8539 106.149 69.9359 106.208C70.0336 106.284 70.1468 106.342 70.2757 106.382C70.4085 106.423 70.5589 106.444 70.7269 106.446C70.8714 106.448 71.0023 106.432 71.1194 106.398C71.2366 106.364 71.3382 106.317 71.4241 106.255C71.5452 106.171 71.6428 106.06 71.7171 105.925C71.7952 105.785 71.8538 105.627 71.8928 105.452C71.9241 105.323 71.9456 105.183 71.9573 105.031C71.9729 104.879 71.9807 104.721 71.9807 104.557V104.434ZM79.24 107.747L79.1462 106.856C78.9314 107.169 78.6717 107.414 78.367 107.591C78.0662 107.767 77.7362 107.853 77.3768 107.848C77.0487 107.845 76.748 107.79 76.4745 107.686C76.2011 107.581 75.9668 107.416 75.7715 107.191C75.5762 106.97 75.4238 106.689 75.3145 106.348C75.209 106.003 75.1563 105.59 75.1563 105.11V101.36L76.7851 101.379V105.14C76.7851 105.398 76.8026 105.615 76.8378 105.791C76.8769 105.968 76.9374 106.109 77.0194 106.215C77.1014 106.326 77.2089 106.405 77.3417 106.454C77.4745 106.502 77.6366 106.527 77.828 106.53C77.9998 106.532 78.1541 106.516 78.2908 106.482C78.4314 106.449 78.5545 106.399 78.6599 106.334C78.7498 106.277 78.8298 106.207 78.9002 106.126C78.9705 106.045 79.031 105.954 79.0818 105.853V101.406L80.7164 101.425V107.765L79.24 107.747ZM82.146 104.565C82.146 104.084 82.2046 103.645 82.3218 103.248C82.4429 102.851 82.6147 102.512 82.8374 102.229C83.06 101.946 83.3295 101.729 83.6459 101.576C83.9623 101.424 84.3197 101.35 84.7181 101.355C84.9329 101.357 85.1282 101.381 85.304 101.426C85.4837 101.467 85.6458 101.53 85.7903 101.613C85.8997 101.673 86.0012 101.745 86.095 101.828C86.1887 101.907 86.2746 101.996 86.3528 102.095L86.4172 101.492L87.8995 101.509V107.644C87.8995 108.074 87.8253 108.456 87.6769 108.79C87.5324 109.124 87.3293 109.405 87.0676 109.632C86.8019 109.86 86.4836 110.03 86.1125 110.143C85.7454 110.259 85.3392 110.315 84.8939 110.31C84.7025 110.308 84.4974 110.286 84.2787 110.244C84.0599 110.202 83.8432 110.139 83.6283 110.055C83.4135 109.97 83.2104 109.862 83.019 109.731C82.8276 109.604 82.6636 109.452 82.5269 109.274L83.2592 108.293C83.3647 108.415 83.478 108.522 83.599 108.613C83.7201 108.708 83.8471 108.786 83.9799 108.846C84.1088 108.906 84.2416 108.951 84.3783 108.98C84.5189 109.012 84.6634 109.03 84.8119 109.032C85.0501 109.034 85.261 109.004 85.4446 108.939C85.6321 108.875 85.7883 108.779 85.9133 108.652C86.0266 108.536 86.1125 108.393 86.1711 108.221C86.2336 108.05 86.2649 107.857 86.2649 107.642V107.279C86.1868 107.364 86.1047 107.441 86.0188 107.511C85.9329 107.58 85.8411 107.641 85.7434 107.695C85.5989 107.771 85.4388 107.83 85.263 107.871C85.0911 107.912 84.9056 107.931 84.7064 107.929C84.3119 107.924 83.9564 107.84 83.6401 107.676C83.3276 107.508 83.06 107.28 82.8374 106.993C82.6147 106.705 82.4429 106.365 82.3218 105.973C82.2046 105.577 82.146 105.149 82.146 104.688V104.565ZM83.7807 104.707C83.7807 104.973 83.8061 105.221 83.8568 105.452C83.9115 105.679 83.9935 105.877 84.1029 106.047C84.2123 106.22 84.3509 106.356 84.5189 106.456C84.6869 106.555 84.8861 106.607 85.1165 106.609C85.2571 106.611 85.3841 106.599 85.4974 106.573C85.6145 106.547 85.72 106.509 85.8137 106.459C85.9114 106.406 85.9973 106.34 86.0715 106.263C86.1457 106.186 86.2102 106.099 86.2649 106.002V103.318C86.2063 103.208 86.136 103.112 86.054 103.029C85.9719 102.946 85.8782 102.878 85.7727 102.826C85.6829 102.782 85.5833 102.748 85.4739 102.723C85.3685 102.698 85.2532 102.685 85.1282 102.684C84.8978 102.681 84.6986 102.729 84.5306 102.829C84.3627 102.925 84.224 103.058 84.1146 103.228C84.0014 103.403 83.9174 103.607 83.8627 103.841C83.808 104.071 83.7807 104.318 83.7807 104.584V104.707ZM89.3526 104.649C89.3526 104.169 89.4111 103.73 89.5283 103.333C89.6494 102.936 89.8213 102.596 90.0439 102.314C90.2666 102.031 90.5361 101.814 90.8524 101.661C91.1688 101.509 91.5262 101.435 91.9246 101.439C92.1395 101.442 92.3348 101.466 92.5105 101.511C92.6902 101.552 92.8523 101.614 92.9968 101.698C93.1062 101.758 93.2078 101.829 93.3015 101.913C93.3952 101.992 93.4812 102.081 93.5593 102.179L93.6237 101.576L95.1061 101.594V107.729C95.1061 108.158 95.0318 108.54 94.8834 108.874C94.7389 109.209 94.5358 109.49 94.2741 109.717C94.0085 109.944 93.6901 110.114 93.3191 110.227C92.9519 110.344 92.5457 110.4 92.1004 110.395C91.909 110.392 91.704 110.37 91.4852 110.329C91.2665 110.287 91.0497 110.224 90.8349 110.139C90.62 110.055 90.4169 109.947 90.2255 109.816C90.0341 109.689 89.8701 109.536 89.7334 109.359L90.4658 108.377C90.5712 108.5 90.6845 108.606 90.8056 108.698C90.9267 108.793 91.0536 108.87 91.1864 108.931C91.3153 108.991 91.4481 109.035 91.5848 109.064C91.7254 109.097 91.87 109.114 92.0184 109.116C92.2566 109.119 92.4676 109.088 92.6512 109.024C92.8386 108.96 92.9949 108.864 93.1199 108.737C93.2331 108.621 93.3191 108.477 93.3777 108.306C93.4402 108.135 93.4714 107.942 93.4714 107.727V107.364C93.3933 107.449 93.3113 107.526 93.2253 107.595C93.1394 107.665 93.0476 107.726 92.95 107.779C92.8054 107.856 92.6453 107.915 92.4695 107.955C92.2977 107.996 92.1121 108.016 91.9129 108.013C91.5184 108.009 91.163 107.925 90.8466 107.761C90.5341 107.593 90.2666 107.365 90.0439 107.077C89.8213 106.79 89.6494 106.45 89.5283 106.058C89.4111 105.662 89.3526 105.233 89.3526 104.772V104.649ZM90.9872 104.792C90.9872 105.057 91.0126 105.306 91.0634 105.537C91.1181 105.764 91.2001 105.962 91.3094 106.131C91.4188 106.304 91.5575 106.441 91.7254 106.54C91.8934 106.64 92.0926 106.691 92.3231 106.694C92.4637 106.696 92.5906 106.683 92.7039 106.657C92.8211 106.631 92.9265 106.594 93.0203 106.544C93.1179 106.49 93.2038 106.425 93.2781 106.348C93.3523 106.271 93.4167 106.183 93.4714 106.086V103.403C93.4128 103.293 93.3425 103.196 93.2605 103.113C93.1785 103.03 93.0847 102.963 92.9793 102.911C92.8894 102.867 92.7898 102.832 92.6804 102.808C92.575 102.783 92.4598 102.77 92.3348 102.768C92.1043 102.766 91.9051 102.814 91.7372 102.914C91.5692 103.009 91.4305 103.142 91.3212 103.313C91.2079 103.488 91.1239 103.692 91.0692 103.925C91.0145 104.155 90.9872 104.403 90.9872 104.669V104.792ZM97.1567 101.618L100.608 101.659V106.674L102.324 106.694V108.019L97.1567 107.958V106.634L98.9613 106.655V102.969L97.1567 102.948V101.618ZM98.8441 100.015C98.8441 99.8897 98.8656 99.7748 98.9085 99.6698C98.9554 99.561 99.0199 99.468 99.1019 99.3908C99.1839 99.3176 99.2816 99.2601 99.3948 99.2185C99.512 99.1769 99.6409 99.1569 99.7815 99.1586C100.071 99.162 100.299 99.2467 100.467 99.4127C100.639 99.5749 100.725 99.7829 100.725 100.037C100.725 100.291 100.639 100.499 100.467 100.661C100.299 100.819 100.071 100.896 99.7815 100.893C99.6409 100.891 99.512 100.868 99.3948 100.824C99.2816 100.78 99.1839 100.718 99.1019 100.639C99.0199 100.564 98.9554 100.473 98.9085 100.367C98.8656 100.257 98.8441 100.14 98.8441 100.015ZM103.93 108.037V101.698L105.406 101.715L105.506 102.595C105.588 102.479 105.678 102.372 105.775 102.276C105.873 102.179 105.976 102.093 106.086 102.016C106.273 101.885 106.478 101.786 106.701 101.718C106.924 101.651 107.16 101.618 107.41 101.621C107.73 101.625 108.023 101.675 108.289 101.772C108.554 101.869 108.785 102.02 108.98 102.226C109.171 102.435 109.32 102.702 109.425 103.028C109.535 103.349 109.589 103.741 109.589 104.202V108.104L107.961 108.085V104.206C107.961 103.956 107.931 103.75 107.873 103.59C107.818 103.425 107.738 103.295 107.633 103.2C107.527 103.105 107.4 103.039 107.252 103.002C107.103 102.961 106.935 102.94 106.748 102.938C106.592 102.936 106.447 102.952 106.314 102.985C106.185 103.019 106.07 103.07 105.969 103.139C105.887 103.189 105.812 103.249 105.746 103.318C105.68 103.388 105.619 103.465 105.564 103.551V108.057L103.93 108.037ZM110.972 104.903C110.972 104.423 111.031 103.984 111.148 103.587C111.269 103.19 111.441 102.85 111.664 102.568C111.886 102.285 112.156 102.068 112.472 101.915C112.788 101.763 113.146 101.689 113.544 101.693C113.759 101.696 113.954 101.72 114.13 101.765C114.31 101.806 114.472 101.868 114.616 101.952C114.726 102.012 114.827 102.083 114.921 102.167C115.015 102.246 115.101 102.335 115.179 102.433L115.243 101.83L116.726 101.848V107.983C116.726 108.412 116.651 108.794 116.503 109.128C116.358 109.463 116.155 109.744 115.894 109.971C115.628 110.198 115.31 110.368 114.939 110.481C114.572 110.598 114.165 110.654 113.72 110.648C113.529 110.646 113.324 110.624 113.105 110.583C112.886 110.541 112.669 110.478 112.454 110.393C112.24 110.309 112.037 110.201 111.845 110.07C111.654 109.943 111.49 109.79 111.353 109.613L112.085 108.631C112.191 108.754 112.304 108.86 112.425 108.952C112.546 109.047 112.673 109.124 112.806 109.185C112.935 109.245 113.068 109.289 113.204 109.318C113.345 109.351 113.49 109.368 113.638 109.37C113.876 109.373 114.087 109.342 114.271 109.278C114.458 109.214 114.614 109.118 114.739 108.991C114.853 108.875 114.939 108.731 114.997 108.56C115.06 108.389 115.091 108.196 115.091 107.981V107.618C115.013 107.703 114.931 107.78 114.845 107.849C114.759 107.919 114.667 107.98 114.57 108.033C114.425 108.11 114.265 108.169 114.089 108.209C113.917 108.25 113.732 108.27 113.533 108.267C113.138 108.263 112.783 108.178 112.466 108.015C112.154 107.847 111.886 107.619 111.664 107.331C111.441 107.044 111.269 106.704 111.148 106.312C111.031 105.916 110.972 105.487 110.972 105.026V104.903ZM112.607 105.046C112.607 105.311 112.632 105.56 112.683 105.791C112.738 106.018 112.82 106.216 112.929 106.385C113.038 106.558 113.177 106.695 113.345 106.794C113.513 106.894 113.712 106.945 113.943 106.948C114.083 106.95 114.21 106.937 114.323 106.911C114.441 106.885 114.546 106.848 114.64 106.798C114.738 106.744 114.823 106.679 114.898 106.602C114.972 106.525 115.036 106.437 115.091 106.34V103.657C115.032 103.547 114.962 103.45 114.88 103.367C114.798 103.284 114.704 103.217 114.599 103.165C114.509 103.121 114.409 103.086 114.3 103.062C114.195 103.037 114.079 103.024 113.954 103.022C113.724 103.02 113.525 103.068 113.357 103.168C113.189 103.263 113.05 103.396 112.941 103.567C112.827 103.742 112.744 103.946 112.689 104.179C112.634 104.409 112.607 104.657 112.607 104.923V105.046ZM127.53 109.047L126.012 109.029L129.205 99.8031L130.723 99.8209L127.53 109.047ZM86.0305 122.989V121.407L89.3877 120.322L89.7451 120.209L89.3936 120.087L86.0305 118.94V117.364L91.3036 119.571V120.901L86.0305 122.989ZM44.4846 139.339V133.837L42.7386 133.817V132.979L44.4846 132.999V132.554C44.4846 132.148 44.5431 131.793 44.6603 131.49C44.7814 131.182 44.9513 130.927 45.1701 130.722C45.3849 130.518 45.6446 130.364 45.9493 130.262C46.254 130.161 46.5938 130.112 46.9688 130.116C47.125 130.118 47.2793 130.13 47.4316 130.151C47.584 130.168 47.7343 130.192 47.8828 130.221C47.9804 130.241 48.0781 130.264 48.1757 130.289C48.2734 130.309 48.373 130.334 48.4745 130.362L48.3456 131.257C48.1855 131.201 47.998 131.152 47.7832 131.11C47.5722 131.065 47.3457 131.041 47.1035 131.038C46.8574 131.035 46.6387 131.064 46.4473 131.124C46.2598 131.18 46.1036 131.268 45.9786 131.388C45.8458 131.511 45.7442 131.672 45.6739 131.871C45.6075 132.069 45.5743 132.301 45.5743 132.567V133.012L48.0175 133.041V133.879L45.5743 133.85V139.352L44.4846 139.339ZM49.7694 136.173C49.7694 135.716 49.8358 135.292 49.9686 134.903C50.1014 134.51 50.2928 134.171 50.5427 133.885C50.7888 133.599 51.0896 133.376 51.445 133.216C51.8005 133.052 52.2008 132.973 52.6461 132.978C53.0953 132.983 53.4976 133.072 53.8531 133.244C54.2124 133.412 54.5171 133.642 54.7671 133.934C55.0131 134.226 55.2026 134.57 55.3354 134.966C55.4682 135.359 55.5346 135.783 55.5346 136.24V136.369C55.5346 136.826 55.4682 137.249 55.3354 137.638C55.2026 138.027 55.0131 138.365 54.7671 138.651C54.5171 138.937 54.2144 139.16 53.8589 139.32C53.5035 139.48 53.1031 139.557 52.6578 139.552C52.2086 139.547 51.8044 139.46 51.445 139.292C51.0896 139.124 50.7888 138.894 50.5427 138.602C50.2928 138.31 50.1014 137.967 49.9686 137.575C49.8358 137.183 49.7694 136.759 49.7694 136.301V136.173ZM50.8533 136.314C50.8533 136.627 50.8904 136.926 50.9646 137.212C51.0388 137.494 51.1521 137.744 51.3044 137.96C51.4528 138.177 51.6403 138.349 51.8669 138.477C52.0934 138.604 52.3571 138.67 52.6578 138.673C52.9547 138.677 53.2144 138.617 53.4371 138.495C53.6636 138.373 53.8531 138.205 54.0054 137.992C54.1538 137.779 54.2651 137.532 54.3393 137.252C54.4136 136.967 54.4507 136.669 54.4507 136.356V136.228C54.4507 135.919 54.4116 135.624 54.3335 135.341C54.2593 135.055 54.148 134.804 53.9995 134.588C53.8472 134.371 53.6578 134.199 53.4312 134.071C53.2086 133.94 52.9469 133.872 52.6461 133.868C52.3453 133.865 52.0836 133.926 51.861 134.053C51.6384 134.175 51.4528 134.343 51.3044 134.556C51.1521 134.769 51.0388 135.018 50.9646 135.302C50.8904 135.582 50.8533 135.877 50.8533 136.185V136.314ZM61.4346 133.081C61.6338 133.083 61.8408 133.1 62.0556 133.129C62.2743 133.159 62.4384 133.198 62.5478 133.247L62.4013 134.305C62.1904 134.256 61.9892 134.22 61.7978 134.199C61.6103 134.173 61.4131 134.159 61.2061 134.157C60.9405 134.153 60.7002 134.184 60.4854 134.248C60.2706 134.308 60.0831 134.399 59.9229 134.522C59.7784 134.63 59.6515 134.763 59.5421 134.922C59.4367 135.077 59.3488 135.252 59.2785 135.446V139.513L58.1887 139.5V133.16L59.2199 133.172L59.2667 134.022L59.2726 134.181C59.5304 133.836 59.839 133.566 60.1983 133.371C60.5616 133.172 60.9737 133.076 61.4346 133.081ZM75.8593 139.708C75.8164 139.625 75.7812 139.523 75.7539 139.402C75.7304 139.276 75.7129 139.147 75.7012 139.014C75.5918 139.122 75.4687 139.225 75.332 139.321C75.1992 139.417 75.0528 139.501 74.8926 139.573C74.7286 139.645 74.5547 139.702 74.3712 139.743C74.1876 139.784 73.9923 139.803 73.7853 139.8C73.4494 139.796 73.1447 139.744 72.8713 139.643C72.6018 139.542 72.3733 139.407 72.1858 139.237C71.9944 139.07 71.8459 138.873 71.7405 138.646C71.6389 138.414 71.5882 138.165 71.5882 137.9C71.5882 137.552 71.6565 137.248 71.7932 136.988C71.9338 136.728 72.1311 136.511 72.385 136.339C72.6389 136.17 72.9435 136.044 73.299 135.963C73.6583 135.881 74.0587 135.843 74.5001 135.848L75.6836 135.862V135.364C75.6836 135.172 75.6484 135 75.5781 134.847C75.5078 134.694 75.4082 134.562 75.2793 134.451C75.1504 134.344 74.9922 134.26 74.8047 134.199C74.6211 134.138 74.4141 134.107 74.1837 134.104C73.9689 134.101 73.7755 134.126 73.6036 134.179C73.4357 134.232 73.2931 134.302 73.1759 134.391C73.0588 134.479 72.967 134.586 72.9006 134.71C72.8381 134.83 72.8068 134.957 72.8068 135.09L71.7171 135.077C71.721 134.846 71.7795 134.621 71.8928 134.399C72.01 134.178 72.178 133.979 72.3967 133.802C72.6115 133.628 72.8732 133.489 73.1818 133.383C73.4943 133.277 73.8478 133.227 74.2423 133.232C74.6016 133.236 74.9356 133.285 75.2442 133.378C75.5527 133.468 75.8203 133.602 76.0468 133.78C76.2695 133.962 76.4452 134.187 76.5741 134.454C76.703 134.721 76.7675 135.033 76.7675 135.388V138.335C76.7675 138.546 76.787 138.771 76.8261 139.01C76.8651 139.245 76.9198 139.451 76.9901 139.627V139.721L75.8593 139.708ZM73.9435 138.859C74.1544 138.861 74.3516 138.836 74.5352 138.784C74.7188 138.731 74.8868 138.661 75.0391 138.573C75.1875 138.485 75.3164 138.385 75.4258 138.273C75.5351 138.157 75.6211 138.037 75.6836 137.913V136.629L74.6758 136.618C74.3009 136.613 73.9728 136.642 73.6915 136.706C73.4142 136.765 73.1935 136.86 73.0295 136.991C72.9123 137.083 72.8224 137.193 72.7599 137.322C72.7014 137.45 72.6721 137.596 72.6721 137.76C72.6721 137.916 72.6975 138.061 72.7482 138.194C72.8029 138.328 72.883 138.442 72.9884 138.537C73.0939 138.636 73.2267 138.714 73.3869 138.77C73.547 138.827 73.7325 138.856 73.9435 138.859ZM84.2728 136.707C84.2728 136.984 84.2513 137.252 84.2084 137.509C84.1693 137.762 84.1107 138 84.0326 138.222C83.9271 138.513 83.7885 138.775 83.6166 139.008C83.4487 139.236 83.2456 139.425 83.0073 139.575C82.8354 139.678 82.646 139.758 82.439 139.814C82.2359 139.87 82.0152 139.897 81.7769 139.894C81.5035 139.891 81.2535 139.855 81.027 139.786C80.8043 139.717 80.6032 139.619 80.4235 139.492C80.3376 139.428 80.2555 139.359 80.1774 139.284C80.0993 139.209 80.0251 139.126 79.9548 139.035L79.902 139.755L78.906 139.743V130.743L79.9899 130.756V134.096C80.0798 133.984 80.1794 133.883 80.2887 133.795C80.3981 133.702 80.5153 133.624 80.6403 133.559C80.7965 133.478 80.9684 133.418 81.1559 133.377C81.3433 133.336 81.5465 133.317 81.7652 133.32C82.0386 133.323 82.2905 133.363 82.521 133.44C82.7514 133.517 82.9604 133.623 83.1479 133.758C83.3159 133.885 83.4662 134.039 83.599 134.22C83.7318 134.398 83.849 134.596 83.9506 134.816C84.056 135.064 84.1361 135.338 84.1908 135.639C84.2455 135.937 84.2728 136.252 84.2728 136.584V136.707ZM83.1889 136.571C83.1889 136.372 83.1752 136.178 83.1479 135.99C83.1245 135.799 83.0874 135.619 83.0366 135.45C82.9663 135.242 82.8745 135.052 82.7612 134.879C82.6479 134.705 82.5093 134.569 82.3452 134.469C82.232 134.398 82.105 134.342 81.9644 134.301C81.8238 134.26 81.6675 134.239 81.4957 134.237C81.3082 134.235 81.1363 134.258 80.9801 134.307C80.8238 134.352 80.6852 134.417 80.5641 134.501C80.4391 134.59 80.3278 134.694 80.2301 134.814C80.1364 134.93 80.0563 135.058 79.9899 135.198V137.969C80.0602 138.11 80.1423 138.242 80.236 138.364C80.3336 138.483 80.445 138.588 80.57 138.679C80.6949 138.77 80.8356 138.842 80.9918 138.895C81.148 138.944 81.3199 138.969 81.5074 138.971C81.6871 138.973 81.8511 138.954 81.9995 138.913C82.148 138.867 82.2808 138.803 82.398 138.718C82.5542 138.61 82.685 138.473 82.7905 138.307C82.896 138.14 82.9799 137.953 83.0424 137.747C83.0932 137.591 83.1303 137.424 83.1538 137.244C83.1772 137.065 83.1889 136.882 83.1889 136.694V136.571ZM90.3193 138.196C90.3193 138.067 90.2939 137.951 90.2431 137.849C90.1923 137.743 90.1064 137.646 89.9853 137.559C89.8642 137.472 89.7041 137.392 89.5049 137.319C89.3057 137.243 89.0577 137.173 88.7608 137.111C88.3975 137.033 88.0655 136.939 87.7648 136.83C87.4679 136.721 87.214 136.591 87.0031 136.44C86.7883 136.293 86.6223 136.121 86.5051 135.924C86.3879 135.724 86.3293 135.493 86.3293 135.231C86.3293 134.973 86.3899 134.734 86.511 134.512C86.632 134.287 86.8019 134.092 87.0207 133.927C87.2394 133.761 87.4992 133.631 87.7999 133.537C88.1046 133.443 88.4386 133.398 88.8018 133.403C89.1924 133.407 89.5439 133.462 89.8564 133.567C90.1689 133.673 90.4345 133.816 90.6532 133.999C90.872 134.181 91.0399 134.394 91.1571 134.637C91.2782 134.877 91.3387 135.136 91.3387 135.413L90.2548 135.4C90.2548 135.263 90.2197 135.13 90.1494 135C90.0791 134.867 89.9814 134.749 89.8564 134.645C89.7314 134.542 89.5791 134.459 89.3994 134.394C89.2237 134.329 89.0245 134.296 88.8018 134.293C88.5714 134.291 88.3682 134.314 88.1925 134.362C88.0206 134.411 87.878 134.478 87.7648 134.562C87.6476 134.647 87.5597 134.745 87.5011 134.858C87.4425 134.971 87.4132 135.087 87.4132 135.209C87.4132 135.334 87.4367 135.445 87.4835 135.543C87.5304 135.642 87.6124 135.73 87.7296 135.81C87.8429 135.889 87.9952 135.962 88.1866 136.026C88.3819 136.091 88.628 136.154 88.9248 136.217C89.3154 136.303 89.665 136.403 89.9736 136.516C90.2822 136.625 90.5419 136.755 90.7528 136.906C90.9638 137.061 91.1239 137.239 91.2333 137.439C91.3466 137.64 91.4032 137.871 91.4032 138.132C91.4032 138.414 91.3387 138.669 91.2098 138.898C91.0849 139.127 90.9091 139.322 90.6825 139.483C90.456 139.645 90.1845 139.768 89.8681 139.855C89.5518 139.941 89.2061 139.982 88.8311 139.977C88.4014 139.972 88.0187 139.911 87.6827 139.794C87.3468 139.673 87.0636 139.515 86.8332 139.321C86.5988 139.131 86.4192 138.91 86.2942 138.658C86.1731 138.407 86.1125 138.146 86.1125 137.877L87.1965 137.89C87.2121 138.112 87.2707 138.301 87.3722 138.454C87.4777 138.608 87.6085 138.732 87.7648 138.828C87.9171 138.923 88.087 138.992 88.2745 139.033C88.462 139.074 88.6475 139.096 88.8311 139.098C89.1201 139.102 89.3721 139.071 89.5869 139.008C89.8017 138.94 89.9697 138.846 90.0908 138.726C90.165 138.653 90.2216 138.572 90.2607 138.482C90.2998 138.393 90.3193 138.297 90.3193 138.196ZM93.0086 136.681C93.0086 136.224 93.075 135.8 93.2078 135.411C93.3406 135.018 93.532 134.679 93.7819 134.393C94.028 134.107 94.3288 133.884 94.6842 133.724C95.0397 133.56 95.44 133.481 95.8853 133.486C96.3345 133.491 96.7368 133.58 97.0923 133.752C97.4516 133.92 97.7563 134.15 98.0063 134.442C98.2523 134.734 98.4418 135.078 98.5746 135.474C98.7074 135.867 98.7738 136.291 98.7738 136.748V136.877C98.7738 137.334 98.7074 137.757 98.5746 138.146C98.4418 138.535 98.2523 138.873 98.0063 139.159C97.7563 139.445 97.4536 139.668 97.0981 139.828C96.7427 139.988 96.3423 140.065 95.897 140.06C95.4478 140.055 95.0436 139.968 94.6842 139.8C94.3288 139.632 94.028 139.402 93.7819 139.11C93.532 138.818 93.3406 138.475 93.2078 138.083C93.075 137.691 93.0086 137.267 93.0086 136.809V136.681ZM94.0925 136.822C94.0925 137.135 94.1296 137.434 94.2038 137.72C94.278 138.002 94.3913 138.251 94.5436 138.468C94.692 138.685 94.8795 138.857 95.1061 138.985C95.3326 139.112 95.5963 139.178 95.897 139.181C96.1939 139.185 96.4536 139.125 96.6763 139.003C96.9028 138.881 97.0923 138.713 97.2446 138.5C97.393 138.287 97.5043 138.04 97.5785 137.76C97.6528 137.475 97.6899 137.177 97.6899 136.864V136.736C97.6899 136.427 97.6508 136.132 97.5727 135.849C97.4985 135.563 97.3872 135.312 97.2387 135.095C97.0864 134.879 96.897 134.707 96.6704 134.579C96.4478 134.448 96.1861 134.38 95.8853 134.376C95.5845 134.373 95.3228 134.434 95.1002 134.561C94.8776 134.683 94.692 134.851 94.5436 135.064C94.3913 135.277 94.278 135.526 94.2038 135.81C94.1296 136.09 94.0925 136.385 94.0925 136.693V136.822ZM100.69 130.999L103.93 131.037V139.1L105.998 139.124V140.062L100.69 139.999V139.062L102.846 139.087V131.968L100.69 131.943V130.999ZM111.904 140.131L111.839 139.257C111.628 139.567 111.365 139.808 111.048 139.98C110.732 140.149 110.367 140.23 109.953 140.225C109.621 140.221 109.32 140.167 109.05 140.062C108.781 139.954 108.55 139.789 108.359 139.568C108.168 139.347 108.019 139.068 107.914 138.731C107.812 138.39 107.761 137.983 107.761 137.51V133.743L108.845 133.755V137.535C108.845 137.878 108.873 138.164 108.927 138.391C108.982 138.618 109.064 138.799 109.173 138.933C109.283 139.071 109.416 139.168 109.572 139.225C109.732 139.281 109.916 139.311 110.123 139.313C110.365 139.316 110.582 139.291 110.773 139.239C110.964 139.183 111.13 139.104 111.271 139.004C111.388 138.924 111.49 138.827 111.576 138.715C111.665 138.599 111.74 138.473 111.798 138.337V133.79L112.888 133.803V140.143L111.904 140.131ZM117.499 132.322V133.857L119.913 133.885V134.723L117.499 134.695V138.14C117.499 138.386 117.53 138.59 117.593 138.751C117.655 138.912 117.741 139.039 117.851 139.135C117.96 139.233 118.085 139.303 118.226 139.344C118.37 139.385 118.522 139.406 118.683 139.408C118.8 139.409 118.921 139.405 119.046 139.395C119.171 139.381 119.294 139.364 119.415 139.346C119.532 139.328 119.641 139.31 119.743 139.292C119.848 139.269 119.934 139.251 120.001 139.236L120.153 140.005C120.063 140.059 119.954 140.107 119.825 140.148C119.696 140.186 119.556 140.217 119.403 140.243C119.251 140.272 119.089 140.294 118.917 140.307C118.749 140.321 118.581 140.327 118.413 140.325C118.132 140.321 117.868 140.279 117.622 140.198C117.38 140.113 117.169 139.982 116.989 139.804C116.81 139.63 116.667 139.406 116.562 139.131C116.46 138.853 116.409 138.518 116.409 138.127V134.682L114.745 134.662V133.825L116.409 133.844V132.309L117.499 132.322ZM124.94 140.401C124.495 140.396 124.085 140.315 123.71 140.158C123.338 140.002 123.02 139.785 122.755 139.509C122.489 139.232 122.282 138.905 122.133 138.529C121.985 138.152 121.911 137.743 121.911 137.301V137.055C121.911 136.544 121.993 136.087 122.157 135.687C122.321 135.283 122.54 134.942 122.813 134.664C123.083 134.389 123.389 134.18 123.733 134.036C124.081 133.891 124.436 133.821 124.799 133.826C125.256 133.831 125.655 133.916 125.995 134.08C126.338 134.24 126.623 134.46 126.85 134.74C127.077 135.024 127.244 135.356 127.354 135.736C127.467 136.117 127.524 136.527 127.524 136.969V137.455L122.995 137.402V137.443C123.022 137.752 123.083 138.024 123.176 138.26C123.274 138.495 123.407 138.704 123.575 138.885C123.747 139.079 123.954 139.232 124.196 139.344C124.438 139.456 124.706 139.514 124.999 139.517C125.385 139.522 125.729 139.448 126.03 139.295C126.33 139.142 126.58 138.938 126.78 138.683L127.442 139.206C127.231 139.524 126.914 139.805 126.493 140.051C126.075 140.292 125.557 140.409 124.94 140.401ZM124.799 134.716C124.581 134.714 124.374 134.752 124.178 134.832C123.983 134.908 123.807 135.021 123.651 135.171C123.495 135.326 123.362 135.516 123.253 135.741C123.147 135.962 123.073 136.219 123.03 136.512L126.44 136.552V136.499C126.44 136.304 126.403 136.094 126.329 135.871C126.254 135.643 126.151 135.447 126.018 135.281C125.885 135.116 125.717 134.981 125.514 134.877C125.315 134.773 125.077 134.719 124.799 134.716ZM62.6532 152.453C62.6532 152.73 62.6317 152.998 62.5888 153.255C62.5497 153.508 62.4911 153.746 62.413 153.968C62.3075 154.259 62.1689 154.521 61.997 154.754C61.8291 154.982 61.626 155.171 61.3877 155.321C61.2158 155.424 61.0264 155.504 60.8194 155.56C60.6163 155.616 60.3956 155.643 60.1573 155.64C59.8839 155.637 59.6339 155.601 59.4074 155.532C59.1847 155.463 58.9836 155.365 58.8039 155.238C58.718 155.174 58.6359 155.105 58.5578 155.03C58.4797 154.955 58.4055 154.872 58.3352 154.781L58.2824 155.501L57.2864 155.489V146.489L58.3703 146.502V149.842C58.4602 149.73 58.5598 149.629 58.6691 149.541C58.7785 149.448 58.8957 149.37 59.0207 149.305C59.1769 149.225 59.3488 149.164 59.5363 149.123C59.7237 149.082 59.9269 149.063 60.1456 149.066C60.419 149.069 60.6709 149.109 60.9014 149.186C61.1318 149.263 61.3408 149.369 61.5283 149.504C61.6963 149.631 61.8466 149.785 61.9794 149.966C62.1122 150.144 62.2294 150.342 62.331 150.562C62.4364 150.81 62.5165 151.084 62.5712 151.385C62.6259 151.683 62.6532 151.998 62.6532 152.33V152.453ZM61.5693 152.317C61.5693 152.118 61.5556 151.924 61.5283 151.737C61.5049 151.545 61.4678 151.365 61.417 151.196C61.3467 150.988 61.2549 150.798 61.1416 150.625C61.0283 150.451 60.8897 150.315 60.7256 150.215C60.6124 150.144 60.4854 150.088 60.3448 150.047C60.2042 150.006 60.0479 149.985 59.8761 149.983C59.6886 149.981 59.5167 150.004 59.3605 150.053C59.2042 150.098 59.0656 150.163 58.9445 150.247C58.8195 150.336 58.7082 150.44 58.6105 150.56C58.5168 150.676 58.4367 150.804 58.3703 150.944V153.715C58.4406 153.856 58.5227 153.988 58.6164 154.11C58.714 154.229 58.8254 154.334 58.9504 154.425C59.0753 154.516 59.216 154.588 59.3722 154.641C59.5284 154.69 59.7003 154.715 59.8878 154.717C60.0675 154.719 60.2315 154.7 60.3799 154.659C60.5284 154.613 60.6612 154.549 60.7784 154.464C60.9346 154.356 61.0654 154.219 61.1709 154.053C61.2764 153.886 61.3603 153.699 61.4228 153.493C61.4736 153.337 61.5107 153.17 61.5342 152.99C61.5576 152.811 61.5693 152.628 61.5693 152.44V152.317ZM67.2877 155.724C66.8424 155.719 66.4323 155.638 66.0573 155.481C65.6862 155.324 65.3679 155.108 65.1023 154.831C64.8367 154.555 64.6297 154.228 64.4812 153.851C64.3328 153.475 64.2586 153.065 64.2586 152.624V152.378C64.2586 151.866 64.3406 151.41 64.5047 151.01C64.6687 150.605 64.8874 150.264 65.1609 149.986C65.4304 149.712 65.737 149.503 66.0807 149.358C66.4284 149.214 66.7838 149.144 67.1471 149.148C67.6041 149.154 68.0025 149.238 68.3423 149.402C68.686 149.563 68.9711 149.783 69.1977 150.063C69.4242 150.347 69.5922 150.679 69.7016 151.059C69.8148 151.439 69.8715 151.85 69.8715 152.292V152.778L65.3425 152.725V152.766C65.3698 153.075 65.4304 153.347 65.5241 153.582C65.6218 153.818 65.7546 154.026 65.9225 154.208C66.0944 154.401 66.3014 154.554 66.5436 154.667C66.7858 154.779 67.0533 154.837 67.3463 154.84C67.733 154.845 68.0767 154.77 68.3774 154.618C68.6782 154.465 68.9282 154.261 69.1274 154.005L69.7895 154.529C69.5785 154.847 69.2621 155.128 68.8403 155.373C68.4224 155.614 67.9048 155.731 67.2877 155.724ZM67.1471 150.039C66.9283 150.036 66.7213 150.075 66.526 150.155C66.3307 150.23 66.1549 150.344 65.9987 150.494C65.8425 150.649 65.7097 150.838 65.6003 151.064C65.4948 151.285 65.4206 151.542 65.3776 151.834L68.7876 151.875V151.822C68.7876 151.626 68.7505 151.417 68.6762 151.194C68.602 150.966 68.4985 150.77 68.3657 150.604C68.2329 150.438 68.065 150.304 67.8619 150.2C67.6626 150.096 67.4244 150.042 67.1471 150.039ZM71.4944 152.434C71.4944 151.961 71.551 151.528 71.6643 151.135C71.7815 150.738 71.9495 150.398 72.1682 150.115C72.3869 149.833 72.6525 149.613 72.965 149.457C73.2775 149.3 73.631 149.224 74.0255 149.229C74.2794 149.232 74.5118 149.264 74.7227 149.325C74.9375 149.386 75.1309 149.474 75.3027 149.59C75.3965 149.649 75.4844 149.719 75.5664 149.798C75.6523 149.877 75.7324 149.964 75.8066 150.059L75.8593 149.368L76.8437 149.379V155.584C76.8437 156.002 76.7772 156.373 76.6444 156.695C76.5155 157.018 76.3339 157.291 76.0996 157.515C75.8613 157.739 75.5781 157.907 75.25 158.021C74.9219 158.134 74.5587 158.188 74.1602 158.184C73.9962 158.182 73.8087 158.16 73.5978 158.119C73.3869 158.081 73.174 158.018 72.9592 157.929C72.7404 157.845 72.5295 157.731 72.3264 157.588C72.1272 157.445 71.9553 157.269 71.8108 157.06L72.3733 156.417C72.5061 156.578 72.6428 156.715 72.7834 156.826C72.924 156.941 73.0666 157.032 73.2111 157.1C73.3556 157.168 73.5001 157.217 73.6447 157.246C73.7892 157.279 73.9337 157.296 74.0782 157.298C74.336 157.301 74.5684 157.267 74.7754 157.195C74.9825 157.123 75.1602 157.016 75.3086 156.873C75.4531 156.734 75.5644 156.56 75.6426 156.35C75.7207 156.14 75.7597 155.898 75.7597 155.624V155.079C75.6777 155.172 75.5898 155.257 75.4961 155.334C75.4063 155.411 75.3086 155.478 75.2031 155.536C75.0391 155.624 74.8575 155.69 74.6583 155.735C74.4591 155.783 74.2442 155.806 74.0138 155.803C73.6271 155.799 73.2775 155.712 72.965 155.545C72.6525 155.377 72.3889 155.147 72.1741 154.856C71.9553 154.564 71.7874 154.222 71.6702 153.83C71.553 153.434 71.4944 153.01 71.4944 152.557V152.434ZM72.5783 152.569C72.5783 152.878 72.6096 153.171 72.6721 153.449C72.7385 153.728 72.842 153.973 72.9826 154.186C73.1193 154.398 73.2951 154.568 73.5099 154.696C73.7247 154.819 73.9825 154.883 74.2833 154.886C74.4708 154.889 74.6387 154.869 74.7872 154.828C74.9395 154.783 75.0762 154.72 75.1973 154.639C75.3145 154.559 75.4199 154.462 75.5137 154.35C75.6074 154.238 75.6894 154.114 75.7597 153.978V151.072C75.6894 150.938 75.6074 150.816 75.5137 150.705C75.4199 150.595 75.3125 150.498 75.1914 150.415C75.0703 150.335 74.9356 150.273 74.7872 150.228C74.6387 150.18 74.4747 150.154 74.295 150.152C73.9903 150.149 73.7286 150.208 73.5099 150.33C73.2951 150.453 73.1193 150.619 72.9826 150.828C72.842 151.041 72.7385 151.288 72.6721 151.569C72.6096 151.845 72.5783 152.138 72.5783 152.446V152.569ZM79.0701 149.405L82.3101 149.444V154.846L84.3783 154.87V155.808L79.0701 155.745V154.808L81.2262 154.833V150.374L79.0701 150.349V149.405ZM81.0855 147.765C81.0855 147.671 81.0992 147.584 81.1266 147.502C81.1578 147.42 81.2047 147.35 81.2672 147.293C81.318 147.242 81.3824 147.204 81.4605 147.178C81.5425 147.147 81.6343 147.133 81.7359 147.134C81.8374 147.135 81.9273 147.152 82.0054 147.184C82.0835 147.212 82.148 147.252 82.1988 147.304C82.2612 147.359 82.3081 147.428 82.3394 147.51C82.3706 147.593 82.3862 147.683 82.3862 147.78C82.3862 147.956 82.3316 148.102 82.2222 148.218C82.1128 148.334 81.9507 148.39 81.7359 148.388C81.5172 148.385 81.3531 148.325 81.2437 148.206C81.1383 148.088 81.0855 147.941 81.0855 147.765ZM86.1067 155.828V149.488L87.0793 149.5L87.1554 150.438C87.2492 150.306 87.3507 150.186 87.4601 150.078C87.5734 149.966 87.6925 149.87 87.8175 149.789C88.005 149.667 88.2081 149.573 88.4268 149.51C88.6495 149.442 88.8838 149.407 89.1299 149.406C89.4619 149.41 89.7627 149.461 90.0322 149.558C90.3056 149.655 90.538 149.804 90.7294 150.005C90.9208 150.207 91.0673 150.462 91.1688 150.772C91.2743 151.078 91.327 151.442 91.327 151.864V155.889L90.2431 155.877V151.875C90.2431 151.593 90.2119 151.355 90.1494 151.159C90.0869 150.963 89.9951 150.803 89.874 150.681C89.749 150.558 89.5967 150.469 89.417 150.412C89.2412 150.355 89.0381 150.325 88.8077 150.323C88.6085 150.32 88.4229 150.347 88.2511 150.404C88.0792 150.457 87.921 150.531 87.7765 150.627C87.6593 150.711 87.5499 150.81 87.4484 150.922C87.3507 151.034 87.2648 151.158 87.1906 151.294V155.841L86.1067 155.828ZM93.3132 155.913V149.573L94.2858 149.584L94.362 150.523C94.4557 150.391 94.5573 150.271 94.6666 150.163C94.7799 150.051 94.899 149.955 95.024 149.874C95.2115 149.751 95.4146 149.658 95.6334 149.594C95.856 149.527 96.0904 149.492 96.3364 149.491C96.6685 149.495 96.9692 149.545 97.2387 149.642C97.5121 149.739 97.7446 149.889 97.9359 150.09C98.1273 150.291 98.2738 150.547 98.3754 150.857C98.4808 151.163 98.5336 151.527 98.5336 151.949V155.974L97.4496 155.961V151.959C97.4496 151.678 97.4184 151.439 97.3559 151.243C97.2934 151.047 97.2016 150.888 97.0805 150.766C96.9555 150.643 96.8032 150.553 96.6235 150.496C96.4478 150.44 96.2447 150.41 96.0142 150.407C95.815 150.405 95.6295 150.432 95.4576 150.489C95.2857 150.541 95.1275 150.616 94.983 150.712C94.8658 150.796 94.7565 150.894 94.6549 151.007C94.5573 151.119 94.4713 151.243 94.3971 151.379V155.925L93.3132 155.913ZM103.32 156.147C102.875 156.142 102.465 156.061 102.09 155.904C101.719 155.748 101.401 155.531 101.135 155.255C100.869 154.978 100.662 154.651 100.514 154.275C100.365 153.898 100.291 153.489 100.291 153.047V152.801C100.291 152.29 100.373 151.833 100.537 151.433C100.701 151.029 100.92 150.688 101.194 150.41C101.463 150.135 101.77 149.926 102.113 149.782C102.461 149.637 102.816 149.567 103.18 149.572C103.637 149.577 104.035 149.662 104.375 149.826C104.719 149.986 105.004 150.206 105.23 150.486C105.457 150.77 105.625 151.102 105.734 151.482C105.848 151.863 105.904 152.273 105.904 152.715V153.201L101.375 153.148V153.189C101.403 153.498 101.463 153.77 101.557 154.006C101.654 154.241 101.787 154.45 101.955 154.631C102.127 154.825 102.334 154.978 102.576 155.09C102.818 155.202 103.086 155.26 103.379 155.263C103.766 155.268 104.109 155.194 104.41 155.041C104.711 154.888 104.961 154.684 105.16 154.429L105.822 154.952C105.611 155.27 105.295 155.551 104.873 155.797C104.455 156.038 103.937 156.155 103.32 156.147ZM103.18 150.462C102.961 150.46 102.754 150.498 102.559 150.578C102.363 150.654 102.188 150.767 102.031 150.917C101.875 151.072 101.742 151.262 101.633 151.487C101.527 151.708 101.453 151.965 101.41 152.258L104.82 152.298V152.245C104.82 152.05 104.783 151.84 104.709 151.617C104.635 151.389 104.531 151.193 104.398 151.027C104.266 150.862 104.098 150.727 103.895 150.623C103.695 150.519 103.457 150.465 103.18 150.462ZM111.88 149.674C112.079 149.676 112.287 149.692 112.501 149.722C112.72 149.752 112.884 149.791 112.993 149.839L112.847 150.898C112.636 150.849 112.435 150.813 112.244 150.791C112.056 150.766 111.859 150.752 111.652 150.749C111.386 150.746 111.146 150.776 110.931 150.84C110.716 150.9 110.529 150.992 110.369 151.115C110.224 151.223 110.097 151.356 109.988 151.515C109.882 151.67 109.795 151.845 109.724 152.039V156.105L108.634 156.093V149.753L109.666 149.765L109.712 150.615L109.718 150.773C109.976 150.429 110.285 150.159 110.644 149.964C111.007 149.765 111.419 149.668 111.88 149.674ZM119.145 154.535C119.145 154.406 119.12 154.29 119.069 154.188C119.018 154.082 118.933 153.985 118.811 153.898C118.69 153.81 118.53 153.73 118.331 153.658C118.132 153.581 117.884 153.512 117.587 153.45C117.224 153.371 116.892 153.278 116.591 153.169C116.294 153.06 116.04 152.93 115.829 152.779C115.614 152.632 115.448 152.46 115.331 152.263C115.214 152.063 115.155 151.831 115.155 151.57C115.155 151.312 115.216 151.072 115.337 150.851C115.458 150.626 115.628 150.431 115.847 150.265C116.066 150.1 116.325 149.97 116.626 149.876C116.931 149.782 117.265 149.737 117.628 149.741C118.019 149.746 118.37 149.801 118.683 149.906C118.995 150.011 119.261 150.155 119.479 150.337C119.698 150.52 119.866 150.732 119.983 150.976C120.104 151.216 120.165 151.474 120.165 151.752L119.081 151.739C119.081 151.602 119.046 151.469 118.976 151.339C118.905 151.206 118.808 151.087 118.683 150.984C118.558 150.881 118.405 150.797 118.226 150.733C118.05 150.668 117.851 150.635 117.628 150.632C117.397 150.629 117.194 150.652 117.019 150.701C116.847 150.75 116.704 150.816 116.591 150.901C116.474 150.986 116.386 151.084 116.327 151.197C116.269 151.309 116.239 151.426 116.239 151.547C116.239 151.672 116.263 151.784 116.31 151.882C116.357 151.98 116.439 152.069 116.556 152.149C116.669 152.228 116.821 152.3 117.013 152.365C117.208 152.43 117.454 152.493 117.751 152.555C118.142 152.642 118.491 152.742 118.8 152.855C119.108 152.964 119.368 153.094 119.579 153.245C119.79 153.399 119.95 153.577 120.059 153.778C120.173 153.978 120.229 154.209 120.229 154.471C120.229 154.752 120.165 155.007 120.036 155.236C119.911 155.465 119.735 155.661 119.509 155.822C119.282 155.983 119.011 156.107 118.694 156.193C118.378 156.279 118.032 156.32 117.657 156.316C117.228 156.311 116.845 156.25 116.509 156.132C116.173 156.011 115.89 155.854 115.659 155.66C115.425 155.469 115.245 155.248 115.12 154.997C114.999 154.746 114.939 154.485 114.939 154.216L116.023 154.228C116.038 154.451 116.097 154.639 116.198 154.793C116.304 154.946 116.435 155.071 116.591 155.167C116.743 155.262 116.913 155.331 117.101 155.372C117.288 155.413 117.474 155.435 117.657 155.437C117.946 155.44 118.198 155.41 118.413 155.346C118.628 155.278 118.796 155.185 118.917 155.065C118.991 154.992 119.048 154.91 119.087 154.821C119.126 154.732 119.145 154.636 119.145 154.535Z" fill="white" fill-opacity="0.9"/>
<path d="M78.1104 49.4427L99.1738 48.452C99.3966 48.4415 99.5789 48.2695 99.5789 48.0697C99.5789 46.2534 99.1333 44.6079 98.2675 43.2228C97.3966 41.8335 96.1155 40.7449 94.5206 40.0389C92.9307 39.3372 91.0725 39.025 89.0472 39.1203L88.237 39.1584C86.2117 39.2537 84.3535 39.7406 82.7636 40.5919C81.1686 41.4479 79.8876 42.657 79.0167 44.1283C78.1509 45.5948 77.7053 47.2822 77.7053 49.0985C77.7053 49.2983 77.8876 49.4532 78.1104 49.4427Z" fill="white" fill-opacity="0.9"/>
<path d="M110.313 58.4626L102.819 58.8151V54.2743C106.708 54.0914 109.857 51.119 109.857 47.6317C109.857 47.4319 109.675 47.277 109.452 47.2875L106.414 47.4303C106.192 47.4408 106.009 47.6129 106.009 47.8127C106.009 49.3928 104.581 50.7405 102.819 50.8234L74.4648 52.157C72.7028 52.2398 71.2749 51.0265 71.2749 49.4463C71.2749 49.2465 71.0926 49.0917 70.8698 49.1021L67.8319 49.245C67.6091 49.2555 67.4268 49.4275 67.4268 49.6273C67.4268 53.1146 70.5762 55.7908 74.4648 55.6079V60.1487L66.9711 60.5011C66.7483 60.5116 66.566 60.6837 66.566 60.8834V63.4263C66.566 63.6261 66.7483 63.7809 66.9711 63.7705L74.4648 63.418V67.7771C74.4648 68.0723 74.4749 68.3669 74.5002 68.6518C71.0268 70.1456 68.5914 73.3524 68.5914 76.9532C68.5914 77.153 68.7736 77.3079 68.9964 77.2974L71.8319 77.1641C72.0547 77.1536 72.2369 76.9816 72.2369 76.7818C72.2369 74.7748 73.4471 72.9606 75.2547 71.9311C75.5585 72.6978 75.9433 73.4244 76.404 74.102C77.6344 75.9285 79.3914 77.4215 81.4927 78.4261C82.956 79.1247 84.5813 79.5886 86.318 79.7657C86.5408 79.7552 86.7231 79.5832 86.7231 79.3834V58.3007C86.7231 58.1009 86.9054 57.9289 87.1282 57.9184L90.1661 57.7755C90.3889 57.765 90.5712 57.9199 90.5712 58.1197V79.1979C90.5712 79.3977 90.7535 79.5526 90.9763 79.5421C92.713 79.2016 94.3383 78.5848 95.8016 77.7486C97.9029 76.5463 99.6599 74.8881 100.89 72.9458C101.351 72.2203 101.736 71.4575 102.04 70.6668C103.837 71.5312 105.047 73.2316 105.047 75.2386C105.047 75.4384 105.23 75.5933 105.452 75.5828L108.288 75.4494C108.511 75.439 108.693 75.2669 108.693 75.0671C108.693 71.4663 106.257 68.4886 102.784 67.3215C102.804 67.03 102.819 66.7387 102.819 66.4435V62.0844L110.313 61.7319C110.536 61.7215 110.718 61.5494 110.718 61.3496V58.8068C110.718 58.607 110.536 58.4521 110.313 58.4626Z" fill="white" fill-opacity="0.9"/>
<defs>
<filter id="filter0_d_4_2278" x="15.7681" y="9.31834" width="178.259" height="234.089" filterUnits="userSpaceOnUse" color-interpolation-filters="sRGB">
<feFlood flood-opacity="0" result="BackgroundImageFix"/>
<feColorMatrix in="SourceAlpha" type="matrix" values="0 0 0 0 0 0 0 0 0 0 0 0 0 0 0 0 0 0 127 0" result="hardAlpha"/>
<feOffset dx="1.52709"/>
<feGaussianBlur stdDeviation="1.52709"/>
<feComposite in2="hardAlpha" operator="out"/>
<feColorMatrix type="matrix" values="0 0 0 0 0 0 0 0 0 0 0 0 0 0 0 0 0 0 0.1 0"/>
<feBlend mode="normal" in2="BackgroundImageFix" result="effect1_dropShadow_4_2278"/>
<feBlend mode="normal" in="SourceGraphic" in2="effect1_dropShadow_4_2278" result="shape"/>
</filter>
<filter id="filter1_d_4_2278" x="15.1454" y="8.7592" width="177.948" height="234.928" filterUnits="userSpaceOnUse" color-interpolation-filters="sRGB">
<feFlood flood-opacity="0" result="BackgroundImageFix"/>
<feColorMatrix in="SourceAlpha" type="matrix" values="0 0 0 0 0 0 0 0 0 0 0 0 0 0 0 0 0 0 127 0" result="hardAlpha"/>
<feOffset dx="1.52709"/>
<feGaussianBlur stdDeviation="1.52709"/>
<feComposite in2="hardAlpha" operator="out"/>
<feColorMatrix type="matrix" values="0 0 0 0 0 0 0 0 0 0 0 0 0 0 0 0 0 0 0.1 0"/>
<feBlend mode="normal" in2="BackgroundImageFix" result="effect1_dropShadow_4_2278"/>
<feBlend mode="normal" in="SourceGraphic" in2="effect1_dropShadow_4_2278" result="shape"/>
</filter>
<filter id="filter2_d_4_2278" x="14.2113" y="8.47958" width="177.948" height="235.767" filterUnits="userSpaceOnUse" color-interpolation-filters="sRGB">
<feFlood flood-opacity="0" result="BackgroundImageFix"/>
<feColorMatrix in="SourceAlpha" type="matrix" values="0 0 0 0 0 0 0 0 0 0 0 0 0 0 0 0 0 0 127 0" result="hardAlpha"/>
<feOffset dx="1.52709"/>
<feGaussianBlur stdDeviation="1.52709"/>
<feComposite in2="hardAlpha" operator="out"/>
<feColorMatrix type="matrix" values="0 0 0 0 0 0 0 0 0 0 0 0 0 0 0 0 0 0 0.1 0"/>
<feBlend mode="normal" in2="BackgroundImageFix" result="effect1_dropShadow_4_2278"/>
<feBlend mode="normal" in="SourceGraphic" in2="effect1_dropShadow_4_2278" result="shape"/>
</filter>
<filter id="filter3_d_4_2278" x="13.2772" y="7.92053" width="177.948" height="236.606" filterUnits="userSpaceOnUse" color-interpolation-filters="sRGB">
<feFlood flood-opacity="0" result="BackgroundImageFix"/>
<feColorMatrix in="SourceAlpha" type="matrix" values="0 0 0 0 0 0 0 0 0 0 0 0 0 0 0 0 0 0 127 0" result="hardAlpha"/>
<feOffset dx="1.52709"/>
<feGaussianBlur stdDeviation="1.52709"/>
<feComposite in2="hardAlpha" operator="out"/>
<feColorMatrix type="matrix" values="0 0 0 0 0 0 0 0 0 0 0 0 0 0 0 0 0 0 0.1 0"/>
<feBlend mode="normal" in2="BackgroundImageFix" result="effect1_dropShadow_4_2278"/>
<feBlend mode="normal" in="SourceGraphic" in2="effect1_dropShadow_4_2278" result="shape"/>
</filter>
<filter id="filter4_d_4_2278" x="12.3431" y="7.64091" width="177.948" height="237.445" filterUnits="userSpaceOnUse" color-interpolation-filters="sRGB">
<feFlood flood-opacity="0" result="BackgroundImageFix"/>
<feColorMatrix in="SourceAlpha" type="matrix" values="0 0 0 0 0 0 0 0 0 0 0 0 0 0 0 0 0 0 127 0" result="hardAlpha"/>
<feOffset dx="1.52709"/>
<feGaussianBlur stdDeviation="1.52709"/>
<feComposite in2="hardAlpha" operator="out"/>
<feColorMatrix type="matrix" values="0 0 0 0 0 0 0 0 0 0 0 0 0 0 0 0 0 0 0.1 0"/>
<feBlend mode="normal" in2="BackgroundImageFix" result="effect1_dropShadow_4_2278"/>
<feBlend mode="normal" in="SourceGraphic" in2="effect1_dropShadow_4_2278" result="shape"/>
</filter>
<filter id="filter5_d_4_2278" x="12.3431" y="7.08143" width="177.014" height="238.843" filterUnits="userSpaceOnUse" color-interpolation-filters="sRGB">
<feFlood flood-opacity="0" result="BackgroundImageFix"/>
<feColorMatrix in="SourceAlpha" type="matrix" values="0 0 0 0 0 0 0 0 0 0 0 0 0 0 0 0 0 0 127 0" result="hardAlpha"/>
<feOffset dx="1.52709"/>
<feGaussianBlur stdDeviation="1.52709"/>
<feComposite in2="hardAlpha" operator="out"/>
<feColorMatrix type="matrix" values="0 0 0 0 0 0 0 0 0 0 0 0 0 0 0 0 0 0 0.1 0"/>
<feBlend mode="normal" in2="BackgroundImageFix" result="effect1_dropShadow_4_2278"/>
<feBlend mode="normal" in="SourceGraphic" in2="effect1_dropShadow_4_2278" result="shape"/>
</filter>
<filter id="filter6_d_4_2278" x="11.4091" y="6.80174" width="177.014" height="239.962" filterUnits="userSpaceOnUse" color-interpolation-filters="sRGB">
<feFlood flood-opacity="0" result="BackgroundImageFix"/>
<feColorMatrix in="SourceAlpha" type="matrix" values="0 0 0 0 0 0 0 0 0 0 0 0 0 0 0 0 0 0 127 0" result="hardAlpha"/>
<feOffset dx="1.52709"/>
<feGaussianBlur stdDeviation="1.52709"/>
<feComposite in2="hardAlpha" operator="out"/>
<feColorMatrix type="matrix" values="0 0 0 0 0 0 0 0 0 0 0 0 0 0 0 0 0 0 0.1 0"/>
<feBlend mode="normal" in2="BackgroundImageFix" result="effect1_dropShadow_4_2278"/>
<feBlend mode="normal" in="SourceGraphic" in2="effect1_dropShadow_4_2278" result="shape"/>
</filter>
<filter id="filter7_d_4_2278" x="10.475" y="5.96306" width="177.014" height="241.639" filterUnits="userSpaceOnUse" color-interpolation-filters="sRGB">
<feFlood flood-opacity="0" result="BackgroundImageFix"/>
<feColorMatrix in="SourceAlpha" type="matrix" values="0 0 0 0 0 0 0 0 0 0 0 0 0 0 0 0 0 0 127 0" result="hardAlpha"/>
<feOffset dx="1.52709"/>
<feGaussianBlur stdDeviation="1.52709"/>
<feComposite in2="hardAlpha" operator="out"/>
<feColorMatrix type="matrix" values="0 0 0 0 0 0 0 0 0 0 0 0 0 0 0 0 0 0 0.1 0"/>
<feBlend mode="normal" in2="BackgroundImageFix" result="effect1_dropShadow_4_2278"/>
<feBlend mode="normal" in="SourceGraphic" in2="effect1_dropShadow_4_2278" result="shape"/>
</filter>
<filter id="filter8_d_4_2278" x="9.54093" y="5.40388" width="177.014" height="243.037" filterUnits="userSpaceOnUse" color-interpolation-filters="sRGB">
<feFlood flood-opacity="0" result="BackgroundImageFix"/>
<feColorMatrix in="SourceAlpha" type="matrix" values="0 0 0 0 0 0 0 0 0 0 0 0 0 0 0 0 0 0 127 0" result="hardAlpha"/>
<feOffset dx="1.52709"/>
<feGaussianBlur stdDeviation="1.52709"/>
<feComposite in2="hardAlpha" operator="out"/>
<feColorMatrix type="matrix" values="0 0 0 0 0 0 0 0 0 0 0 0 0 0 0 0 0 0 0.1 0"/>
<feBlend mode="normal" in2="BackgroundImageFix" result="effect1_dropShadow_4_2278"/>
<feBlend mode="normal" in="SourceGraphic" in2="effect1_dropShadow_4_2278" result="shape"/>
</filter>
<filter id="filter9_d_4_2278" x="8.60686" y="4.56508" width="177.014" height="245.274" filterUnits="userSpaceOnUse" color-interpolation-filters="sRGB">
<feFlood flood-opacity="0" result="BackgroundImageFix"/>
<feColorMatrix in="SourceAlpha" type="matrix" values="0 0 0 0 0 0 0 0 0 0 0 0 0 0 0 0 0 0 127 0" result="hardAlpha"/>
<feOffset dx="1.52709"/>
<feGaussianBlur stdDeviation="1.52709"/>
<feComposite in2="hardAlpha" operator="out"/>
<feColorMatrix type="matrix" values="0 0 0 0 0 0 0 0 0 0 0 0 0 0 0 0 0 0 0.1 0"/>
<feBlend mode="normal" in2="BackgroundImageFix" result="effect1_dropShadow_4_2278"/>
<feBlend mode="normal" in="SourceGraphic" in2="effect1_dropShadow_4_2278" result="shape"/>
</filter>
<filter id="filter10_d_4_2278" x="7.6728" y="3.72641" width="177.014" height="246.951" filterUnits="userSpaceOnUse" color-interpolation-filters="sRGB">
<feFlood flood-opacity="0" result="BackgroundImageFix"/>
<feColorMatrix in="SourceAlpha" type="matrix" values="0 0 0 0 0 0 0 0 0 0 0 0 0 0 0 0 0 0 127 0" result="hardAlpha"/>
<feOffset dx="1.52709"/>
<feGaussianBlur stdDeviation="1.52709"/>
<feComposite in2="hardAlpha" operator="out"/>
<feColorMatrix type="matrix" values="0 0 0 0 0 0 0 0 0 0 0 0 0 0 0 0 0 0 0.1 0"/>
<feBlend mode="normal" in2="BackgroundImageFix" result="effect1_dropShadow_4_2278"/>
<feBlend mode="normal" in="SourceGraphic" in2="effect1_dropShadow_4_2278" result="shape"/>
</filter>
<filter id="filter11_d_4_2278" x="6.73871" y="2.88766" width="177.014" height="248.908" filterUnits="userSpaceOnUse" color-interpolation-filters="sRGB">
<feFlood flood-opacity="0" result="BackgroundImageFix"/>
<feColorMatrix in="SourceAlpha" type="matrix" values="0 0 0 0 0 0 0 0 0 0 0 0 0 0 0 0 0 0 127 0" result="hardAlpha"/>
<feOffset dx="1.52709"/>
<feGaussianBlur stdDeviation="1.52709"/>
<feComposite in2="hardAlpha" operator="out"/>
<feColorMatrix type="matrix" values="0 0 0 0 0 0 0 0 0 0 0 0 0 0 0 0 0 0 0.1 0"/>
<feBlend mode="normal" in2="BackgroundImageFix" result="effect1_dropShadow_4_2278"/>
<feBlend mode="normal" in="SourceGraphic" in2="effect1_dropShadow_4_2278" result="shape"/>
</filter>
<filter id="filter12_d_4_2278" x="5.80465" y="2.04898" width="177.014" height="250.586" filterUnits="userSpaceOnUse" color-interpolation-filters="sRGB">
<feFlood flood-opacity="0" result="BackgroundImageFix"/>
<feColorMatrix in="SourceAlpha" type="matrix" values="0 0 0 0 0 0 0 0 0 0 0 0 0 0 0 0 0 0 127 0" result="hardAlpha"/>
<feOffset dx="1.52709"/>
<feGaussianBlur stdDeviation="1.52709"/>
<feComposite in2="hardAlpha" operator="out"/>
<feColorMatrix type="matrix" values="0 0 0 0 0 0 0 0 0 0 0 0 0 0 0 0 0 0 0.1 0"/>
<feBlend mode="normal" in2="BackgroundImageFix" result="effect1_dropShadow_4_2278"/>
<feBlend mode="normal" in="SourceGraphic" in2="effect1_dropShadow_4_2278" result="shape"/>
</filter>
<linearGradient id="paint0_linear_4_2278" x1="193" y1="8.02948" x2="58.7823" y2="273.607" gradientUnits="userSpaceOnUse">
<stop stop-color="#B388FF" stop-opacity="0.5"/>
<stop offset="1" stop-color="#673AB7"/>
<stop offset="1" stop-color="#5C00FF"/>
</linearGradient>
<linearGradient id="paint1_linear_4_2278" x1="191.574" y1="128.654" x2="192.932" y2="128.654" gradientUnits="userSpaceOnUse">
<stop stop-color="#7044BF"/>
<stop offset="1" stop-color="#A97EF5"/>
</linearGradient>
<linearGradient id="paint2_linear_4_2278" x1="192.389" y1="8.34742" x2="196.895" y2="8.43113" gradientUnits="userSpaceOnUse">
<stop stop-color="#AC7DFF" stop-opacity="0"/>
<stop offset="1" stop-color="#562D9D" stop-opacity="0.65"/>
</linearGradient>
<linearGradient id="paint3_linear_4_2278" x1="177.785" y1="0.120045" x2="27.0047" y2="277.136" gradientUnits="userSpaceOnUse">
<stop stop-color="#B388FF" stop-opacity="0.5"/>
<stop offset="1" stop-color="#673AB7"/>
<stop offset="1" stop-color="#5C00FF"/>
</linearGradient>
<linearGradient id="paint4_linear_4_2278" x1="174.498" y1="130.017" x2="177.76" y2="130.017" gradientUnits="userSpaceOnUse">
<stop stop-color="#A97EF5"/>
<stop offset="1" stop-color="#7044BF"/>
</linearGradient>
<linearGradient id="paint5_linear_4_2278" x1="176.455" y1="0.546715" x2="187.262" y2="0.994739" gradientUnits="userSpaceOnUse">
<stop stop-color="#AC7DFF" stop-opacity="0"/>
<stop offset="1" stop-color="#562D9D" stop-opacity="0.65"/>
</linearGradient>
</defs>
</svg>
