<svg width="19" height="18" viewBox="0 0 19 18" fill="none" xmlns="http://www.w3.org/2000/svg">
<g clip-path="url(#clip0_5_37)">
<path d="M18.4905 9.16838C18.4905 8.43093 18.4292 7.89279 18.2967 7.33472H9.67926V10.6632H14.7375C14.6356 11.4904 14.0849 12.7361 12.8611 13.5732L12.8439 13.6846L15.5686 15.7472L15.7574 15.7657C17.491 14.201 18.4905 11.899 18.4905 9.16838Z" fill="#4285F4"/>
<path d="M9.67927 17.9382C12.1574 17.9382 14.2378 17.1409 15.7574 15.7657L12.8611 13.5732C12.086 14.1014 11.0458 14.4701 9.67927 14.4701C7.25212 14.4701 5.19211 12.9055 4.45777 10.743L4.35013 10.7519L1.51697 12.8945L1.47992 12.9952C2.98923 15.9251 6.08948 17.9382 9.67927 17.9382Z" fill="#34A853"/>
<path d="M4.4577 10.743C4.26394 10.1849 4.15181 9.58692 4.15181 8.96908C4.15181 8.35117 4.26394 7.75325 4.44751 7.19519L4.44238 7.07633L1.57371 4.89929L1.47986 4.94292C0.857794 6.15874 0.500854 7.52406 0.500854 8.96908C0.500854 10.4141 0.857794 11.7793 1.47986 12.9952L4.4577 10.743Z" fill="#FBBC05"/>
<path d="M9.67927 3.46802C11.4027 3.46802 12.5653 4.19551 13.2282 4.80346L15.8185 2.33196C14.2277 0.886946 12.1574 0 9.67927 0C6.08948 0 2.98923 2.01305 1.47992 4.94292L4.44757 7.19519C5.19211 5.03265 7.25212 3.46802 9.67927 3.46802Z" fill="#EB4335"/>
</g>
<defs>
<clipPath id="clip0_5_37">
<rect width="18" height="18" fill="white" transform="translate(0.5)"/>
</clipPath>
</defs>
</svg>
