<svg width="166" height="50" viewBox="0 0 166 50" fill="none" xmlns="http://www.w3.org/2000/svg">
<g clip-path="url(#clip0_2_2169)">
<mask id="mask0_2_2169" style="mask-type:luminance" maskUnits="userSpaceOnUse" x="0" y="0" width="49" height="50">
<path d="M24.85 49.09C38.1545 49.09 48.94 38.3046 48.94 25C48.94 11.6955 38.1545 0.910034 24.85 0.910034C11.5455 0.910034 0.76001 11.6955 0.76001 25C0.76001 38.3046 11.5455 49.09 24.85 49.09Z" fill="white"/>
</mask>
<g mask="url(#mask0_2_2169)">
<path d="M37.37 1.77002L30.1 39.24L37.51 41.43L45.67 39.48L50.35 2.29002L37.37 1.77002Z" fill="#752D8E"/>
<path d="M-24.59 38.74L14.29 1.35999L-13.66 4.49999L-24.59 38.74Z" fill="#EF4A24"/>
<path d="M9.65 5.58997L-6.37 54.04L-24.59 38.74L9.65 5.58997Z" fill="#FAAA1A"/>
<path d="M12.08 -2.93994L25.37 -1.51994L12.24 57.8301L-6.37 54.0401L12.08 -2.93994Z" fill="#F48020"/>
<path d="M26.03 -0.719971L44.29 1.86003L4.02002 22.5L26.03 -0.719971Z" fill="#EF4A24"/>
<path d="M4.12 22.42L31.88 62.78L12.13 54.09L4.12 22.42Z" fill="#E80A89"/>
<path d="M40.4 3.33008L12.89 35.2501L4.19 22.4201L40.4 3.33008Z" fill="#EC1C24"/>
<path d="M44.39 -3.97998L24.94 61.23L12.76 35.09L44.39 -3.97998Z" fill="#CE1C8B"/>
<path d="M41.48 3.58008L58.11 4.16008L38.84 30.2401L41.48 3.58008Z" fill="#18479B"/>
<path d="M38.8 30.1001L67.75 52.5201L58.74 2.43005L38.8 30.1001Z" fill="#005CA9"/>
<path d="M51.42 36.34L53.98 47.01L47.81 51.27L31.41 39.55L51.42 36.34Z" fill="#622D8E"/>
<path d="M12.82 35.03L31.51 39.5L33.97 52.44L41.63 60.42L12.82 35.03Z" fill="#AC278B"/>
<path d="M38.8 30.1L43.07 43.51L49.46 37.27L38.8 30.1Z" fill="#0051A2"/>
<path d="M31.51 39.5L33.34 50L45.29 46.76L31.51 39.5Z" fill="#693891"/>
</g>
<path d="M45.07 23.81C44.1353 23.2811 43.0735 23.0182 42 23.05H35V19.13H32.18V30.87H35V25H42C42.4375 24.9844 42.8705 25.0918 43.25 25.31C43.62 25.53 43.67 25.74 43.67 25.88V30.81H46.45V25.92C46.435 25.4757 46.2984 25.0441 46.055 24.672C45.8117 24.3 45.471 24.0018 45.07 23.81Z" fill="white"/>
<path d="M22.24 28.8599C21.8047 28.8728 21.3747 28.7618 21 28.5399C20.58 28.2799 20.58 28.0499 20.58 27.9799V19.1699H7.73C6.64956 19.1329 5.57999 19.396 4.64 19.9299C4.24854 20.1213 3.91574 20.4145 3.67648 20.7787C3.43721 21.1428 3.30027 21.5647 3.28 21.9999V30.8099H6.06V25.8099H16.19V23.8099H6.06V21.9999C6.06 21.8599 6.11 21.6599 6.48 21.4299C6.85947 21.2117 7.29254 21.1043 7.73 21.1199H17.8V27.9999C17.8187 28.4395 17.956 28.8657 18.1971 29.2336C18.4383 29.6016 18.7744 29.8974 19.17 30.0899C20.0999 30.6327 21.1638 30.903 22.24 30.8699H30.77V28.8699L22.24 28.8599Z" fill="white"/>
<path d="M58.7 29V21.18C58.6889 20.8377 58.7502 20.4969 58.88 20.18C58.9854 19.9307 59.1502 19.711 59.36 19.54C59.5576 19.39 59.7815 19.2781 60.02 19.21C60.2576 19.1431 60.5032 19.1094 60.75 19.11H62H63.45C63.96 19.11 64.45 19.11 64.92 19.21V20.3H61.09C60.9514 20.2883 60.8118 20.3079 60.6818 20.3572C60.5517 20.4066 60.4343 20.4846 60.3384 20.5853C60.2424 20.6861 60.1703 20.8071 60.1273 20.9394C60.0843 21.0718 60.0716 21.2121 60.09 21.35V23.7L64.34 23.78V24.78L60.09 24.86V29H58.7Z" fill="#E21B1B"/>
<path d="M68.73 29.07C68.1096 29.0958 67.4913 28.9831 66.92 28.74C66.685 28.6274 66.4752 28.4683 66.3033 28.2724C66.1315 28.0764 66.0011 27.8477 65.92 27.6C65.6972 26.8889 65.599 26.1446 65.63 25.4C65.6244 24.641 65.7495 23.8866 66 23.17C66.0824 22.9255 66.2135 22.7001 66.3853 22.5077C66.5572 22.3152 66.7663 22.1595 67 22.05C67.5734 21.8148 68.1907 21.7056 68.81 21.73C69.3512 21.7129 69.8916 21.7839 70.41 21.94C70.6013 21.9981 70.7793 22.0934 70.9337 22.2204C71.0882 22.3474 71.216 22.5036 71.31 22.68C71.5238 23.1359 71.6233 23.637 71.6 24.14C71.6169 24.5078 71.5266 24.8726 71.34 25.19C71.1587 25.4502 70.8997 25.6463 70.6 25.75C70.2364 25.8732 69.8538 25.9308 69.47 25.92H67C66.9945 26.3403 67.0552 26.7587 67.18 27.16C67.2293 27.3066 67.308 27.4415 67.4111 27.5567C67.5143 27.6719 67.6398 27.7649 67.78 27.83C68.1868 27.9907 68.6232 28.0623 69.06 28.04H71.3V28.84L70.13 29C69.6652 29.0517 69.1977 29.075 68.73 29.07ZM66.99 25.07H69.26C69.5379 25.0891 69.8146 25.019 70.05 24.87C70.1446 24.7734 70.2162 24.6567 70.2595 24.5286C70.3027 24.4005 70.3166 24.2642 70.3 24.13C70.313 23.8424 70.2617 23.5554 70.15 23.29C70.0457 23.0848 69.8668 22.9274 69.65 22.85C69.3507 22.7489 69.0358 22.7015 68.72 22.71C68.376 22.7017 68.0344 22.77 67.72 22.91C67.5884 22.9866 67.4736 23.0889 67.3825 23.2109C67.2914 23.3329 67.226 23.4721 67.19 23.62C67.055 24.0947 66.9909 24.5867 67 25.08L66.99 25.07Z" fill="#E21B1B"/>
<path d="M76.36 29.07C75.7363 29.0967 75.1146 28.9839 74.54 28.74C74.305 28.6274 74.0952 28.4683 73.9233 28.2724C73.7515 28.0764 73.6211 27.8477 73.54 27.6C73.3171 26.8889 73.219 26.1446 73.25 25.4C73.2186 24.6456 73.3167 23.8913 73.54 23.17C73.6224 22.9255 73.7534 22.7001 73.9253 22.5077C74.0972 22.3152 74.3063 22.1595 74.54 22.05C75.1134 21.8148 75.7307 21.7056 76.35 21.73C76.8912 21.7129 77.4315 21.7839 77.95 21.94C78.1413 21.9981 78.3193 22.0934 78.4737 22.2204C78.6281 22.3474 78.756 22.5036 78.85 22.68C79.0638 23.1359 79.1633 23.637 79.14 24.14C79.1569 24.5078 79.0666 24.8726 78.88 25.19C78.6987 25.4502 78.4396 25.6463 78.14 25.75C77.7766 25.874 77.3938 25.9316 77.01 25.92H74.63C74.6245 26.3403 74.6852 26.7587 74.81 27.16C74.8593 27.3066 74.938 27.4415 75.0411 27.5567C75.1443 27.6719 75.2698 27.7649 75.41 27.83C75.8167 27.9907 76.2532 28.0623 76.69 28.04H78.93V28.84L77.75 29C77.2885 29.0514 76.8243 29.0748 76.36 29.07ZM74.61 25.07H76.88C77.158 25.0905 77.4352 25.0203 77.67 24.87C77.7646 24.7734 77.8362 24.6567 77.8794 24.5286C77.9227 24.4005 77.9366 24.2642 77.92 24.13C77.9329 23.8424 77.8817 23.5554 77.77 23.29C77.7196 23.1875 77.6496 23.0958 77.5638 23.0203C77.478 22.9448 77.3781 22.8869 77.27 22.85C76.9709 22.7481 76.6559 22.7007 76.34 22.71C75.9959 22.7017 75.6544 22.77 75.34 22.91C75.2084 22.9866 75.0936 23.0889 75.0025 23.2109C74.9114 23.3329 74.8459 23.4721 74.81 23.62C74.6759 24.0951 74.6086 24.5864 74.61 25.08V25.07Z" fill="#E21B1B"/>
<path d="M83.15 29C82.7546 29.0199 82.3602 28.9445 82 28.78C81.6999 28.6202 81.4635 28.3627 81.33 28.05C81.1652 27.6163 81.0903 27.1536 81.11 26.69V18.77H82.45V26.51C82.4397 26.804 82.4769 27.0978 82.56 27.38C82.6188 27.5508 82.731 27.6981 82.88 27.8C83.0328 27.8814 83.1986 27.9356 83.37 27.96L84.04 28.04V29.04L83.15 29Z" fill="#E21B1B"/>
<path d="M87.79 29.07H87.12H86.33L85.58 29C85.3946 28.9795 85.2108 28.9461 85.03 28.9V28H88.03C88.2548 28.0031 88.4793 27.983 88.7 27.94C88.8706 27.9095 89.0238 27.8169 89.13 27.68C89.249 27.5073 89.3055 27.2991 89.29 27.09V26.79C89.2952 26.6729 89.2735 26.5562 89.2267 26.4488C89.1799 26.3413 89.1092 26.246 89.02 26.17C88.7636 25.9907 88.4514 25.9091 88.14 25.94H87.14C86.7555 25.9595 86.3703 25.9156 86 25.81C85.6902 25.71 85.4227 25.5094 85.24 25.24C85.0558 24.9113 84.9723 24.5357 85 24.16V23.77C84.9846 23.3757 85.078 22.9847 85.27 22.64C85.4636 22.332 85.7564 22.0992 86.1 21.98C86.5928 21.8159 87.111 21.7414 87.63 21.76H88.52C88.8533 21.76 89.1867 21.79 89.52 21.85C89.7727 21.8706 90.0235 21.9107 90.27 21.97V22.77H87.34C87.0242 22.7532 86.7097 22.8223 86.43 22.97C86.3168 23.0611 86.2289 23.1798 86.1746 23.3146C86.1204 23.4494 86.1016 23.5958 86.12 23.74V24C86.1059 24.1919 86.1589 24.3828 86.27 24.54C86.3732 24.6719 86.524 24.758 86.69 24.78C86.9039 24.8231 87.1218 24.8432 87.34 24.84H88.41C88.9643 24.7964 89.5145 24.9644 89.95 25.31C90.128 25.4807 90.2666 25.6881 90.3564 25.9177C90.4462 26.1474 90.485 26.3939 90.47 26.64V27.19C90.4955 27.5937 90.3787 27.9935 90.14 28.32C89.8938 28.5964 89.5695 28.7917 89.21 28.88C88.7472 29.0062 88.2697 29.0701 87.79 29.07Z" fill="#E21B1B"/>
<path d="M98.47 29C98.0912 29.009 97.7143 28.9445 97.36 28.81C97.0476 28.6811 96.7896 28.4478 96.63 28.15C96.4451 27.7638 96.3592 27.3377 96.38 26.91V19.12H97.73V26.7C97.7151 26.9299 97.7672 27.1592 97.88 27.36C97.9698 27.508 98.1074 27.6208 98.27 27.68C98.4382 27.7332 98.6136 27.7602 98.79 27.76H102.21V29H98.47Z" fill="#E21B1B"/>
<path d="M104.32 20.62C104.288 20.6248 104.256 20.6222 104.225 20.6125C104.195 20.6028 104.167 20.5862 104.143 20.5639C104.12 20.5417 104.103 20.5145 104.092 20.4844C104.081 20.4542 104.077 20.4219 104.08 20.39V19.27C104.075 19.2373 104.078 19.2039 104.088 19.1724C104.098 19.141 104.116 19.1124 104.139 19.089C104.162 19.0656 104.191 19.048 104.222 19.0378C104.254 19.0275 104.287 19.0249 104.32 19.03H105.32C105.349 19.0276 105.379 19.0317 105.407 19.0421C105.434 19.0524 105.459 19.0688 105.48 19.09C105.52 19.1412 105.542 19.2048 105.54 19.27V20.39C105.54 20.54 105.47 20.62 105.32 20.62H104.32ZM104.13 29V21.82H105.47V29H104.13Z" fill="#E21B1B"/>
<path d="M108.27 29V18.77H109.61V24.57H110.61L112.61 21.82H114L111.6 25.17L114.15 29H112.75L110.55 25.79H109.61V29H108.27Z" fill="#E21B1B"/>
<path d="M118.47 29.0699C117.846 29.0966 117.225 28.9838 116.65 28.7399C116.415 28.6273 116.205 28.4682 116.033 28.2723C115.861 28.0763 115.731 27.8476 115.65 27.5999C115.432 26.8877 115.334 26.1443 115.36 25.3999C115.334 24.6457 115.432 23.8923 115.65 23.1699C115.731 22.9248 115.862 22.699 116.034 22.5064C116.206 22.3138 116.416 22.1584 116.65 22.0499C117.22 21.8137 117.834 21.7044 118.45 21.7299C118.991 21.7128 119.532 21.7838 120.05 21.9399C120.241 21.998 120.419 22.0933 120.574 22.2203C120.728 22.3473 120.856 22.5035 120.95 22.6799C121.164 23.1358 121.263 23.6369 121.24 24.1399C121.257 24.5077 121.167 24.8725 120.98 25.1899C120.799 25.4501 120.54 25.6462 120.24 25.7499C119.877 25.874 119.494 25.9315 119.11 25.9199H116.74C116.734 26.3402 116.795 26.7586 116.92 27.1599C116.969 27.3065 117.048 27.4414 117.151 27.5566C117.254 27.6718 117.38 27.7648 117.52 27.8299C117.927 27.9906 118.363 28.0622 118.8 28.0399H121V28.8399L119.82 28.9999C119.372 29.0497 118.921 29.0731 118.47 29.0699ZM116.73 25.0699H119C119.278 25.0904 119.555 25.0202 119.79 24.8699C119.885 24.7733 119.956 24.6566 119.999 24.5285C120.043 24.4004 120.057 24.2641 120.04 24.1299C120.053 23.8423 120.002 23.5553 119.89 23.2899C119.84 23.1874 119.77 23.0957 119.684 23.0202C119.598 22.9447 119.498 22.8869 119.39 22.8499C119.091 22.7471 118.776 22.6997 118.46 22.7099C118.116 22.6999 117.774 22.7683 117.46 22.9099C117.326 22.9845 117.208 23.0861 117.116 23.2083C117.023 23.3305 116.956 23.4707 116.92 23.6199C116.79 24.0956 116.726 24.5869 116.73 25.0799V25.0699Z" fill="#E21B1B"/>
<path d="M127.25 29V19.12H128.61V23.55H133.17V19.12H134.51V29H133.17V24.76H128.61V29H127.25Z" fill="#E21B1B"/>
<path d="M140 29.07C139.525 29.0763 139.05 29.0191 138.59 28.9C138.208 28.8002 137.862 28.5958 137.59 28.3099C137.303 27.9952 137.101 27.6135 137 27.2C136.864 26.6098 136.801 26.0054 136.81 25.4C136.799 24.7812 136.863 24.1634 137 23.5599C137.096 23.1436 137.295 22.7583 137.58 22.44C137.853 22.1634 138.2 21.9723 138.58 21.8899C139.505 21.6767 140.465 21.6767 141.39 21.8899C141.767 21.985 142.112 22.1782 142.39 22.45C142.673 22.7696 142.872 23.1544 142.97 23.5699C143.223 24.7734 143.223 26.0165 142.97 27.2199C142.874 27.631 142.678 28.0122 142.4 28.33C142.127 28.6102 141.78 28.8078 141.4 28.9C140.944 29.0225 140.472 29.0797 140 29.07ZM140 27.9699C140.266 27.9767 140.531 27.9498 140.79 27.8899C141.013 27.8448 141.214 27.7249 141.36 27.5499C141.535 27.3201 141.654 27.0533 141.71 26.77C141.8 26.3156 141.84 25.8529 141.83 25.3899C141.84 24.927 141.8 24.4643 141.71 24.01C141.652 23.7304 141.533 23.4672 141.36 23.24C141.206 23.0744 141.009 22.9564 140.79 22.8999C140.53 22.845 140.265 22.8182 140 22.8199C139.735 22.8176 139.47 22.8445 139.21 22.8999C138.991 22.9564 138.794 23.0744 138.64 23.24C138.474 23.469 138.362 23.732 138.31 24.01C138.224 24.4647 138.187 24.9273 138.2 25.3899C138.187 25.8526 138.224 26.3152 138.31 26.77C138.36 27.0515 138.473 27.3181 138.64 27.5499C138.786 27.7249 138.987 27.8448 139.21 27.8899C139.468 27.9605 139.733 27.9975 140 28V27.9699Z" fill="#E21B1B"/>
<path d="M145.19 29V21.82H146.26L146.53 22.6C146.892 22.3527 147.277 22.1417 147.68 21.97C148.137 21.7831 148.627 21.6912 149.12 21.7C149.521 21.6869 149.917 21.7911 150.26 22C150.558 22.1836 150.803 22.4422 150.97 22.75C151.219 22.5723 151.479 22.4119 151.75 22.27C152.07 22.1023 152.405 21.9651 152.75 21.86C153.074 21.7605 153.411 21.7066 153.75 21.7C154.186 21.6824 154.619 21.7863 155 22C155.328 22.2178 155.58 22.5324 155.72 22.9C155.874 23.3123 155.949 23.75 155.94 24.19V29H154.6V24.33C154.609 24.0739 154.554 23.8197 154.44 23.59C154.332 23.3858 154.17 23.216 153.97 23.1C153.747 22.9751 153.495 22.9129 153.24 22.92C152.864 22.9229 152.491 22.9941 152.14 23.13C151.791 23.2641 151.456 23.4315 151.14 23.63C151.14 23.75 151.2 23.87 151.22 23.99C151.23 24.1065 151.23 24.2236 151.22 24.34V29H149.89V24.33C149.895 24.0731 149.837 23.8189 149.72 23.59C149.616 23.3865 149.457 23.2167 149.26 23.1C149.038 22.9741 148.785 22.9118 148.53 22.92C148.281 22.9198 148.033 22.9466 147.79 23C147.568 23.0568 147.351 23.1303 147.14 23.22C146.92 23.3233 146.706 23.4402 146.5 23.57V29H145.19Z" fill="#E21B1B"/>
<path d="M161.3 29.07C160.68 29.0968 160.061 28.9841 159.49 28.74C159.254 28.6284 159.044 28.4696 158.872 28.2735C158.7 28.0775 158.57 27.8483 158.49 27.6C158.272 26.8878 158.174 26.1444 158.2 25.4C158.174 24.6458 158.272 23.8924 158.49 23.17C158.571 22.9249 158.702 22.6991 158.874 22.5065C159.046 22.3138 159.256 22.1585 159.49 22.05C160.063 21.8138 160.681 21.7047 161.3 21.73C161.841 21.7129 162.382 21.7839 162.9 21.94C163.282 22.0606 163.602 22.3263 163.79 22.68C164.008 23.1346 164.108 23.6367 164.08 24.14C164.102 24.5083 164.011 24.8745 163.82 25.19C163.641 25.4522 163.381 25.6488 163.08 25.75C162.717 25.8749 162.334 25.9325 161.95 25.92H159.58C159.574 26.3403 159.635 26.7587 159.76 27.16C159.811 27.3072 159.891 27.4425 159.996 27.5576C160.101 27.6728 160.228 27.7655 160.37 27.83C160.773 27.9911 161.206 28.0627 161.64 28.04H163.88V28.84L162.7 29C162.235 29.0521 161.768 29.0755 161.3 29.07ZM159.56 25.07H161.82C162.098 25.0905 162.375 25.0203 162.61 24.87C162.706 24.7739 162.779 24.6575 162.824 24.5295C162.869 24.4014 162.885 24.265 162.87 24.13C162.885 23.8412 162.83 23.553 162.71 23.29C162.66 23.1874 162.59 23.0958 162.504 23.0203C162.418 22.9448 162.318 22.8869 162.21 22.85C161.914 22.748 161.603 22.7005 161.29 22.71C160.946 22.7007 160.604 22.769 160.29 22.91C160.157 22.986 160.04 23.088 159.948 23.21C159.855 23.332 159.788 23.4715 159.75 23.62C159.62 24.0957 159.556 24.587 159.56 25.08V25.07Z" fill="#E21B1B"/>
</g>
<defs>
<clipPath id="clip0_2_2169">
<rect width="166" height="50" fill="white"/>
</clipPath>
</defs>
</svg>
