<svg width="263" height="273" viewBox="0 0 263 273" fill="none" xmlns="http://www.w3.org/2000/svg">
<path d="M235.397 171.454C229.388 165.185 214.819 170.588 210.562 163.115C206.109 155.303 218.556 143.54 222.716 139.302C239.12 122.585 248.24 89.1385 224.363 74.2052C206.708 63.1386 185.239 66.3349 166.185 68.9974C143.596 72.1872 120.943 75.6178 98.8877 82.3553C67.9795 91.853 32.7034 107.476 18.3364 143.358C16.2717 148.445 14.7445 153.733 13.7796 159.137C10.3034 179.63 18.3364 203.404 36.0689 210.213C43.9391 213.233 52.4148 213.038 60.4478 211.039C66.6516 209.497 74.0206 205.428 80.4456 206.483C81.4137 206.629 82.3088 207.084 82.9982 207.779C83.6876 208.475 84.1348 209.374 84.2734 210.343C84.3397 211.385 84.1867 212.43 83.8242 213.409C78.4602 230.51 54.0097 242.358 56.7177 262.473C59.1849 280.661 95.9778 269.438 106.296 267.134C124.523 263.052 142.75 256.406 159.929 249.291C175.859 242.696 265.283 202.648 235.397 171.454Z" fill="#DEF5FE"/>
<path d="M42.0448 79.3218C42.0605 80.2471 42.1279 81.1707 42.2466 82.0884C42.4276 83.7228 42.8671 85.318 43.5486 86.8145C44.1045 85.2963 44.5164 83.7293 44.7789 82.134C44.9352 81.2096 45.0523 80.2853 45.1435 79.3544C46.4021 79.3299 47.6583 79.2343 48.9061 79.0679C50.523 78.8599 52.1068 78.4464 53.6191 77.8376C52.1175 77.2089 50.5429 76.7715 48.9321 76.5357C47.7359 76.3471 46.5294 76.2297 45.3192 76.1841C45.3328 75.0514 45.2784 73.9188 45.1565 72.7926C45.0019 71.1609 44.6116 69.5602 43.9978 68.0405C43.3733 69.5361 42.9106 71.0943 42.6177 72.6884C42.391 73.8674 42.2323 75.0585 42.1425 76.2557C41.2501 76.3193 40.3615 76.4279 39.48 76.5812C37.8627 76.8476 36.2926 77.3476 34.8191 78.0654C36.3551 78.5838 37.9413 78.9394 39.5516 79.1265C40.3979 79.2046 41.2181 79.2762 42.0448 79.3218Z" fill="#DEF5FE"/>
<path d="M200.622 243.341C200.63 242.206 200.573 241.071 200.452 239.943C200.297 238.311 199.907 236.71 199.294 235.191C198.671 236.687 198.208 238.245 197.914 239.838C197.688 241.018 197.529 242.209 197.438 243.406C196.546 243.468 195.657 243.579 194.776 243.738C193.159 244.002 191.589 244.5 190.115 245.215C191.65 245.737 193.237 246.093 194.848 246.277C195.674 246.381 196.495 246.452 197.321 246.498C197.337 247.423 197.404 248.347 197.523 249.265C197.703 250.899 198.143 252.494 198.825 253.991C199.38 252.474 199.792 250.91 200.055 249.317C200.212 248.392 200.329 247.468 200.42 246.537C201.679 246.51 202.935 246.413 204.182 246.244C205.799 246.035 207.382 245.624 208.896 245.02C207.394 244.391 205.819 243.954 204.209 243.718C203.022 243.516 201.824 243.389 200.622 243.341Z" fill="#DEF5FE"/>
<path d="M19.8467 99.0137C19.8851 99.5702 19.9524 100.124 20.0485 100.674C20.2506 101.904 20.693 103.083 21.3504 104.143C21.9122 103.062 22.3281 101.91 22.5873 100.719C22.711 100.179 22.8151 99.6386 22.8867 99.0983C23.6889 99.0527 24.4871 98.9526 25.2758 98.7989C26.4901 98.579 27.6601 98.1612 28.739 97.562C27.6724 96.9425 26.5112 96.5027 25.3018 96.2601C24.5636 96.1024 23.8154 95.9958 23.0625 95.9411C23.0388 95.2456 22.9736 94.5522 22.8672 93.8645C22.6866 92.6343 22.2829 91.4475 21.6759 90.3623C21.068 91.4254 20.6143 92.5695 20.3284 93.7604C20.1451 94.5035 20.0125 95.2582 19.9313 96.0192C19.4016 96.0813 18.8757 96.1726 18.356 96.2926C17.1436 96.5525 15.9894 97.0335 14.9514 97.7118C16.0509 98.2486 17.2214 98.6256 18.4276 98.8314C18.9093 98.89 19.378 98.9421 19.8467 99.0137Z" fill="#DEF5FE"/>
<path d="M18.2062 206.079C18.4513 206.271 18.7609 206.363 19.0711 206.334C19.3814 206.305 19.6687 206.158 19.8739 205.923C20.0792 205.689 20.1867 205.385 20.1744 205.073C20.162 204.762 20.0308 204.467 19.8076 204.25C1.41116 188.119 2.42668 158.096 12.9464 136.77C22.763 116.87 41.0879 98.6882 61.9776 88.1359C62.1204 88.0637 62.2475 87.964 62.3517 87.8427C62.456 87.7213 62.5353 87.5806 62.5852 87.4286C62.6351 87.2765 62.6545 87.1162 62.6424 86.9566C62.6303 86.7971 62.5869 86.6415 62.5146 86.4987C62.4424 86.356 62.3428 86.2288 62.2214 86.1246C62.1 86.0203 61.9593 85.941 61.8073 85.8911C61.6552 85.8413 61.4949 85.8218 61.3353 85.8339C61.1758 85.846 61.0202 85.8894 60.8774 85.9617C39.5386 96.7483 20.8036 115.34 10.7526 135.689C5.16076 147.023 2.33554 160.426 3.00604 172.424C3.80023 186.413 9.04706 198.053 18.2062 206.079Z" fill="#DEF5FE"/>
<path d="M49.2315 245.482C53.0071 238.634 57.6941 230.1 51.1454 224.912C47.2395 221.852 42.5981 221.553 38.0738 221.266C36.1095 221.188 34.1525 220.981 32.2151 220.648C19.9963 218.226 6.58633 210.733 5.58383 196.985C5.55707 196.666 5.40546 196.37 5.16191 196.161C4.91836 195.953 4.6025 195.849 4.28288 195.872C3.96325 195.896 3.66564 196.044 3.45462 196.285C3.2436 196.526 3.13619 196.841 3.1557 197.161C4.25584 212.276 18.6423 220.439 31.7399 223.037C33.7737 223.39 35.8288 223.608 37.8916 223.688C42.227 223.968 46.3542 224.228 49.6091 226.819C54.5565 230.725 50.579 237.938 47.0768 244.304C45.6316 246.908 44.2646 249.401 43.6787 251.465C42.0578 257.096 42.1685 264.79 47.3567 269.51C47.5801 269.716 47.8731 269.83 48.1769 269.829C48.3469 269.828 48.515 269.793 48.6707 269.724C48.8264 269.656 48.9663 269.556 49.0818 269.432C49.2967 269.192 49.4083 268.877 49.3925 268.555C49.3766 268.233 49.2346 267.931 48.9972 267.713C44.6291 263.736 44.6617 256.842 46.0157 252.142C46.556 250.319 47.8579 247.956 49.2315 245.482Z" fill="#DEF5FE"/>
<path d="M253.149 180.854C252.745 175.802 250.278 171.805 245.819 168.967C245.546 168.799 245.218 168.745 244.906 168.817C244.594 168.89 244.323 169.082 244.151 169.352C243.98 169.623 243.922 169.95 243.991 170.263C244.059 170.576 244.248 170.85 244.517 171.024C248.351 173.459 250.375 176.74 250.727 181.049C251.814 194.674 235.292 214.21 227.591 221.025C227.351 221.24 227.206 221.541 227.186 221.863C227.167 222.185 227.275 222.501 227.487 222.744C227.601 222.874 227.741 222.977 227.898 223.048C228.056 223.119 228.226 223.155 228.399 223.154C228.696 223.152 228.982 223.044 229.206 222.848C234.583 218.083 254.431 196.985 253.149 180.854Z" fill="#DEF5FE"/>
<path d="M201.657 184.135L200.537 185.378L185.155 202.388C178.834 193.274 173.079 182.208 167.578 170.341L165.69 260.175L116.998 263.43L105.352 171.962C103.399 183.777 101.544 195.683 99.3239 206.541L78.9615 204.126L76.95 203.879C78.3495 176.265 82.685 147.785 88.5568 140.669C88.7294 140.439 88.9187 140.221 89.1231 140.018C92.1176 137.148 95.6654 136.653 99.9618 136.816C100.762 180.847 167.455 181.134 167.585 137.616C170.026 137.512 172.45 138.06 174.609 139.205C174.889 139.368 175.169 139.537 175.449 139.726L175.852 140.012C184.334 146.157 192.758 165.113 201.657 184.135Z" fill="#FF9C59"/>
<mask id="mask0_1_124" style="mask-type:luminance" maskUnits="userSpaceOnUse" x="76" y="136" width="126" height="128">
<path d="M201.657 184.135L200.537 185.378L185.155 202.388C178.834 193.274 173.079 182.208 167.578 170.341L165.69 260.175L116.998 263.43L105.352 171.962C103.399 183.777 101.544 195.683 99.3239 206.541L78.9615 204.126L76.95 203.879C78.3495 176.265 82.685 147.785 88.5568 140.669C88.7294 140.439 88.9187 140.221 89.1231 140.018C92.1176 137.148 95.6654 136.653 99.9618 136.816C100.762 180.847 167.455 181.134 167.585 137.616C170.026 137.512 172.45 138.06 174.609 139.205C174.889 139.368 175.169 139.537 175.449 139.726L175.852 140.012C184.334 146.157 192.758 165.113 201.657 184.135Z" fill="white"/>
</mask>
<g mask="url(#mask0_1_124)">
<g style="mix-blend-mode:multiply" opacity="0.71">
<path d="M167.637 174.429L168.099 174.774L167.012 173.954C166.595 173.635 166.133 173.303 166.088 173.465C166.042 173.628 166.439 174.539 167.077 175.802C167.715 177.065 168.6 178.68 169.277 180.216C169.603 180.984 169.896 181.759 170.163 182.514L170.781 184.291C171.139 185.359 171.465 186.322 171.647 186.954C173.112 191.81 174.316 196.38 176.204 201.054C177.759 204.881 180.005 208.377 181.841 211.983C187.963 200.707 196.371 190.832 206.526 182.989C206.057 182.787 205.582 182.592 205.146 182.338C203.486 181.466 202.399 180.105 200.739 179.266C198.87 178.328 197.263 178.68 195.472 178.107C195.088 177.99 194.73 177.827 194.34 177.742C193.733 177.693 193.124 177.693 192.517 177.742C191.859 177.653 191.218 177.464 190.616 177.182C188.8 176.46 187.036 175.822 185.298 175.23L183.996 174.8L183.345 174.592L182.59 174.37C181.612 174.104 180.615 173.913 179.608 173.797C179.114 173.726 178.638 173.693 178.157 173.648L176.672 173.563C175.305 173.478 173.997 173.465 172.617 173.29C171.237 173.114 169.681 172.73 168.151 172.424C166.621 172.118 165.085 171.773 163.894 171.447V171.486C165.176 172.534 166.4 173.485 167.637 174.429Z" fill="#FF9C59"/>
</g>
<g style="mix-blend-mode:multiply" opacity="0.71">
<path d="M86.8903 206.997C90.8287 206.86 94.9168 206.574 98.777 207.583C107.715 209.92 108.659 220.231 109.44 227.893C109.616 229.638 109.752 231.389 109.902 233.101C109.902 233.342 109.948 233.583 109.967 233.823C109.967 233.869 110.28 235.991 110.345 236.427C111.211 241.935 112.298 247.416 113.183 252.916C113.945 257.577 114.57 262.212 114.902 266.854C117.414 266.489 119.973 266.203 122.551 266.021C133.415 265.135 144.137 263.065 155.008 262.297C156.961 262.154 159.031 261.893 161.075 261.796C160.997 261.008 160.912 260.233 160.815 259.459C160.294 255.423 159.897 251.335 158.471 247.474C157.378 244.512 155.77 242.091 154.663 239.109C153.953 237.202 153.446 235.106 152.508 233.42C152 232.597 151.448 231.801 150.855 231.037C149.346 228.786 148.26 226.277 147.652 223.636C147.472 222.588 147.218 221.555 146.89 220.544C146.415 219.242 145.523 217.692 145.588 216.761C145.627 216.403 145.816 216.202 145.764 215.752C145.688 215.419 145.572 215.095 145.419 214.789C143.844 211.111 141.982 207.075 139.938 205.122C139.858 203.318 139.641 201.523 139.287 199.752C138.876 197.766 138.336 195.809 137.673 193.893C137.161 192.268 136.403 190.732 135.427 189.336C135.049 188.848 134.665 188.535 134.288 188.034C133.377 186.803 132.625 185.462 132.048 184.044C131.546 183.082 131.136 182.075 130.824 181.036C130.61 180.099 130.649 179.318 130.453 178.374C130.335 177.788 130.167 177.213 129.952 176.655C129.839 176.369 129.722 176.082 129.601 175.796C129.483 175.535 129.36 175.269 129.243 175.002C128.701 173.86 128.218 172.691 127.797 171.499C127.303 170.08 126.977 168.642 126.417 167.118C125.834 165.423 124.87 163.884 123.599 162.62C122.874 161.915 122.041 161.331 121.131 160.889C120.737 160.681 120.325 160.506 119.901 160.368L119.296 160.159C119.087 160.094 118.833 160.036 118.612 159.977C116.725 159.544 114.766 159.524 112.871 159.919C112.075 160.051 111.296 160.269 110.547 160.57C109.576 161.059 108.68 161.684 107.884 162.425C106.966 163.076 105.931 163.675 105.02 164.241C104.323 164.677 103.685 165.055 102.995 165.543C102.305 166.031 101.628 166.435 100.997 166.923C100.365 167.411 99.6949 167.88 99.1025 168.388C98.5101 168.896 97.8917 169.397 97.3058 169.918C95.0383 171.944 92.9255 174.138 90.9849 176.479C89.0559 178.823 87.2586 181.272 85.6014 183.816C84.7681 185.118 83.9544 186.42 83.1602 187.722C82.7631 188.373 82.366 189.056 81.982 189.74L81.689 190.254L81.5784 190.449C81.3802 190.386 81.1779 190.336 80.9729 190.299C80.8883 190.482 80.7972 190.664 80.6865 190.95C80.6865 191.016 80.6279 191.133 80.5889 191.256C80.5498 191.38 80.5498 191.426 80.5238 191.543C80.5173 191.656 80.5173 191.769 80.5238 191.881V192.103C80.5319 192.299 80.5647 192.494 80.6214 192.682C80.6214 192.741 80.68 192.793 80.6995 192.851C79.8272 194.485 78.9224 196.62 78.4081 197.499C76.8718 200.168 74.9775 202.382 73.3761 204.998C73.2069 205.265 73.0636 205.545 72.9139 205.819C77.522 206.674 82.2039 207.069 86.8903 206.997ZM81.6239 190.482L81.7867 190.371C81.8659 190.326 81.9486 190.286 82.034 190.254L82.2098 190.189C82.2993 190.162 82.3907 190.143 82.4832 190.13C82.6793 190.098 82.8795 190.098 83.0756 190.13C83.374 190.185 83.6552 190.31 83.8958 190.495L83.4011 191.276L83.3099 191.23C83.2448 191.191 83.1797 191.165 83.1212 191.126H83.0821L82.6525 190.905C82.5829 190.865 82.5085 190.834 82.4311 190.814C82.1903 190.716 81.9494 190.625 81.702 190.547H81.5979L81.6239 190.482Z" fill="#FF9C59"/>
</g>
</g>
<path d="M150.939 59.5648C149.637 50.8743 138.109 41.9885 127.4 49.8002C103.685 35.3551 91.3169 52.5929 93.3154 70.0845C80.4066 64.2908 64.5554 74.8496 75.4657 93.6236C58.5405 106.89 84.0195 119.532 98.1847 116.343C93.6279 134.218 122.922 139.96 142.008 128.516C143.636 136.633 157.43 142.316 163.113 132.578C168.32 138.092 191.104 132.077 187.459 122.026C202.067 122.026 211.669 107.203 198.005 95.2446C211.805 87.1269 205.426 63.7115 186.645 71.7119C195.043 49.5398 176.92 43.5183 150.939 59.5648Z" fill="#283B4B"/>
<mask id="mask1_1_124" style="mask-type:luminance" maskUnits="userSpaceOnUse" x="69" y="44" width="137" height="94">
<path d="M150.939 59.5648C149.637 50.8743 138.109 41.9885 127.4 49.8002C103.685 35.3551 91.3169 52.5929 93.3154 70.0845C80.4066 64.2908 64.5554 74.8496 75.4657 93.6236C58.5405 106.89 84.0195 119.532 98.1847 116.343C93.6279 134.218 122.922 139.96 142.008 128.516C143.636 136.633 157.43 142.316 163.113 132.578C168.32 138.092 191.104 132.077 187.459 122.026C202.067 122.026 211.669 107.203 198.005 95.2446C211.805 87.1269 205.426 63.7115 186.645 71.7119C195.043 49.5398 176.92 43.5183 150.939 59.5648Z" fill="white"/>
</mask>
<g mask="url(#mask1_1_124)">
<path style="mix-blend-mode:multiply" d="M59.6667 113.765C70.7983 115.451 82.6329 111.024 93.1006 106.129C101.719 102.093 111.562 101.819 120.389 98.2716C142.522 89.3663 161.954 77.1476 180.5 62.1622C189.165 55.1643 198.779 45.8424 199.378 33.9882C199.678 27.9081 199.782 21.6197 193.767 18.2346C188.26 15.1751 182.609 16.8936 177.063 18.5015C169.902 20.5781 163.113 24.1259 159.754 31.1695C155.848 39.3847 156.141 48.9084 154.878 57.7356C153.96 64.1802 153.66 70.8657 151.356 76.9458C150.054 80.422 148.166 86.0138 144.911 88.0969C144.599 83.5401 146.923 78.6448 147.795 74.2247C148.746 69.3685 148.323 64.3169 147.795 59.4477C146.793 50.1843 145.842 39.7232 148.062 30.6096C149.364 25.1935 152.241 21.2486 155.333 16.6788C161.55 7.4936 170.853 -0.213904 181.913 -2.49882C191.554 -4.49079 199.925 0.202718 206.402 7.05745C210.855 11.7835 213.576 17.6423 215.321 23.833C216.323 27.3743 215.321 30.0628 214.351 33.5976C212.788 39.3196 212.684 48.0361 207.515 51.8769C201.95 55.9975 196.807 59.2784 192.178 64.7336C187.856 69.8242 182.967 72.2783 177.343 75.9303C169.974 80.6759 163.145 86.144 155.561 90.5511C138.922 100.166 121.014 107.262 103.868 115.88C88.8367 123.445 72.276 126.7 56.7959 133.392C53.8144 134.694 49.2055 136.809 51.9201 140.878C53.9706 143.963 61.1118 142.499 64.1323 142.069C86.5453 138.86 104.004 126.446 124.406 118.165C145.146 109.755 165.977 101.566 186.476 92.2502C198.239 86.9057 209.208 80.5327 220.19 73.7691C235.813 64.1607 242.622 47.9841 254.151 34.2876C257.061 38.4929 256.423 45.1719 257.237 50.0672C258.779 59.3435 259.456 69.03 261.39 78.2022C262.913 85.3629 264.554 89.7114 262.132 97.2561C257.634 111.265 246.3 122.956 234.492 131.243C216.03 144.198 194.014 153.663 172.682 160.739C150.939 167.952 129.125 171.33 106.367 167.769C98.8356 166.591 89.4421 165.816 81.305 163.076C74.665 160.837 69.5028 157.783 62.6286 156.032C60.3545 155.455 58.0935 154.826 55.8454 154.145C43.2426 150.291 31.8962 147.915 33.0028 132.968C33.5236 125.918 36.479 102.243 48.8345 109.82C52.1413 111.854 55.8263 113.196 59.6667 113.765Z" fill="url(#paint0_linear_1_124)"/>
</g>
<path d="M261.312 130.169C260.661 133.242 256.325 134.772 253.194 136.679C255.798 139.543 254.073 142.258 251.345 142.492H251.254C251.051 142.508 250.846 142.508 250.642 142.492C252.856 144.575 252.296 146.105 249.015 147.088C251.404 150.18 250.44 151.645 246.58 151.684L244.738 152.205L236.034 154.665C231.152 182.097 225.97 207.902 214.201 224.254C213.823 224.781 213.433 225.296 213.042 225.803C202.347 222.692 193.279 214.119 185.174 202.401L200.556 185.391C202.874 190.352 205.309 195.253 207.906 199.836L229.004 149.249C225.938 133.379 242.023 123.861 246.99 120.854C247.453 120.567 247.824 120.353 248.071 120.203C249.627 121.407 248.767 123.1 246.808 125.189C246.157 125.84 245.441 126.569 244.627 127.324C242.082 129.687 238.853 132.441 236.301 135.481L245.5 134.029L249.152 133.45C249.529 133.229 249.92 133.007 250.291 132.799C253.923 130.885 257.217 130.195 258.102 127.761C263.278 112.84 264.358 116.264 261.312 130.169Z" fill="#9B5E35"/>
<path style="mix-blend-mode:multiply" d="M261.312 130.169C260.661 133.242 256.325 134.772 253.194 136.679C255.798 139.543 254.073 142.258 251.345 142.492H251.254C251.051 142.508 250.846 142.508 250.642 142.492C252.856 144.575 252.296 146.105 249.015 147.088C251.404 150.18 250.441 151.645 246.58 151.684L244.738 152.205L236.035 154.665C231.152 182.097 225.971 207.902 214.201 224.254C216.004 202.577 222.312 180.554 228.666 160.003C229.628 156.581 230.376 153.103 230.905 149.588C231.842 144.243 232.858 138.905 235.462 134.329C238.222 129.499 242.284 124.916 246.977 120.854C247.44 120.567 247.811 120.353 248.058 120.203C249.614 121.407 248.755 123.1 246.795 125.189C246.144 125.84 245.428 126.569 244.614 127.324C242.069 129.687 238.84 132.441 236.288 135.481L245.487 134.029L249.139 133.45C249.516 133.229 249.907 133.007 250.278 132.799C253.91 130.885 257.204 130.195 258.089 127.761C263.278 112.84 264.358 116.264 261.312 130.169Z" fill="url(#paint1_linear_1_124)"/>
<path d="M167.617 103.57C166.791 105.641 164.115 107.528 161.941 107.32C161.432 107.276 160.944 107.096 160.528 106.799C159.41 109.969 157.604 112.851 155.241 115.24C152.877 117.63 150.015 119.467 146.858 120.619C145.295 121.172 143.678 121.558 142.034 121.772C138.621 119.992 135.629 117.501 133.259 114.468C131.617 112.254 130.421 109.743 129.737 107.073C129.336 105.549 129.062 103.994 128.917 102.425C117.414 105.126 120.624 81.6978 129.457 93.5C138.864 90.4078 146.168 85.4084 149.071 78.8922C152.958 80.0015 156.338 82.4269 158.634 85.7534C161.498 89.9001 162.605 95.225 162.045 100.504C162.842 99.692 163.886 99.1676 165.013 99.0137C167.324 98.8705 168.451 101.513 167.617 103.57Z" fill="#9B5E35"/>
<path d="M149.989 97.9071C150.237 98.5416 150.697 99.0706 151.291 99.4043C151.602 99.6272 151.896 99.873 152.17 100.14C152.518 100.476 152.771 100.898 152.905 101.364C153.025 101.84 153.012 102.339 152.869 102.808C152.726 103.277 152.457 103.699 152.092 104.026C151.785 104.329 151.402 104.543 150.984 104.645C150.565 104.747 150.127 104.733 149.716 104.606C150.308 104.287 150.792 103.8 151.109 103.206C151.359 102.78 151.443 102.277 151.343 101.793C151.099 101.24 150.769 100.728 150.367 100.277C150.119 99.9366 149.934 99.5553 149.82 99.1505C149.764 98.9424 149.75 98.7252 149.779 98.5117C149.808 98.2983 149.88 98.0927 149.989 97.9071Z" fill="#6B3109"/>
<path d="M160.528 99.6191C160.182 100.195 159.666 100.65 159.051 100.921C158.406 101.203 157.7 101.313 157 101.24C156.324 101.163 155.675 100.929 155.106 100.556C154.598 100.238 154.227 99.9706 153.895 99.9901H153.823C153.733 99.9945 153.644 99.969 153.569 99.9174C153.495 99.8659 153.44 99.7913 153.413 99.7051C153.385 99.619 153.387 99.5262 153.418 99.4412C153.448 99.3562 153.506 99.2837 153.582 99.235C153.944 99.0438 154.363 98.9906 154.761 99.0853C155.079 99.1557 155.39 99.2538 155.692 99.3782C156.143 99.5808 156.629 99.6957 157.124 99.7167C157.594 99.7319 158.063 99.6658 158.51 99.5214C158.979 99.3912 159.441 99.1894 159.988 98.9942C160.095 98.9566 160.213 98.9628 160.315 99.0116C160.417 99.0604 160.496 99.1477 160.535 99.2545C160.562 99.3117 160.575 99.3743 160.574 99.4376C160.573 99.5008 160.557 99.5629 160.528 99.6191Z" fill="#283B4B"/>
<path d="M146.506 98.7729C145.836 98.9077 145.182 99.1105 144.553 99.3783C143.737 99.5761 142.89 99.6093 142.06 99.4759C141.228 99.3494 140.433 99.0452 139.73 98.5841C139.013 98.114 138.462 97.4309 138.154 96.6312C138.136 96.5794 138.128 96.5246 138.13 96.4697C138.133 96.4148 138.147 96.3611 138.17 96.3114C138.194 96.2618 138.227 96.2174 138.268 96.1806C138.309 96.1439 138.356 96.1156 138.408 96.0974C138.471 96.0731 138.54 96.0652 138.607 96.0743C138.674 96.0834 138.738 96.1092 138.792 96.1494C139.325 96.5472 139.899 96.8855 140.504 97.1584C141.09 97.427 141.703 97.6301 142.334 97.7638C142.977 97.8885 143.632 97.9344 144.287 97.9005C144.586 97.9005 144.937 97.8094 145.367 97.7704C145.82 97.7099 146.281 97.7728 146.702 97.9526C146.751 97.975 146.795 98.007 146.832 98.0469C146.869 98.0867 146.897 98.1336 146.915 98.1846C146.934 98.2356 146.941 98.2898 146.938 98.3439C146.935 98.398 146.921 98.4509 146.897 98.4994C146.863 98.5682 146.812 98.6264 146.747 98.6678C146.683 98.7091 146.609 98.7319 146.532 98.7338L146.506 98.7729Z" fill="#283B4B"/>
<path d="M139.97 101.559C139.431 100.737 138.609 100.142 137.66 99.886C136.566 99.5605 134.938 99.4759 134.118 100.446C133.174 101.579 134.496 102.783 135.459 103.297C136.456 103.884 137.643 104.056 138.766 103.779C139.671 103.473 140.511 102.477 139.984 101.585L139.97 101.559Z" fill="#9E2323"/>
<path d="M154.956 104.872V104.964C154.565 106.721 157.117 106.669 158.172 106.454C158.707 106.357 159.217 106.155 159.675 105.862C159.928 105.72 160.127 105.497 160.239 105.229C160.351 104.962 160.37 104.664 160.294 104.384C160.2 104.127 160.045 103.896 159.842 103.712C159.639 103.528 159.394 103.397 159.129 103.33C158.582 103.184 158.012 103.151 157.452 103.232C156.893 103.314 156.356 103.509 155.874 103.805C155.448 104.038 155.122 104.417 154.956 104.872Z" fill="#9E2323"/>
<path d="M140.251 89.9001C140.839 89.233 141.531 88.6658 142.301 88.2206C143.075 87.7568 143.91 87.404 144.781 87.1725C145.697 86.9128 146.658 86.8485 147.6 86.9837C148.106 87.0562 148.589 87.245 149.01 87.5352C149.432 87.8255 149.78 88.2093 150.028 88.6567C150.054 88.7093 150.068 88.7663 150.072 88.8246C150.075 88.8828 150.067 88.9412 150.047 88.9962C150.028 89.0513 149.998 89.102 149.959 89.1454C149.92 89.1888 149.873 89.224 149.82 89.2491C149.736 89.2858 149.643 89.2971 149.553 89.2816H149.507C148.802 89.1675 148.087 89.1196 147.372 89.1384C146.661 89.1381 145.951 89.1969 145.25 89.3142C144.494 89.4442 143.746 89.6181 143.011 89.835C142.256 90.0498 141.5 90.3102 140.719 90.5706C140.614 90.606 140.499 90.5985 140.399 90.5498C140.299 90.5011 140.222 90.415 140.185 90.3102C140.161 90.2418 140.155 90.1685 140.166 90.0969C140.177 90.0253 140.206 89.9576 140.251 89.9001Z" fill="#283B4B"/>
<path d="M153.517 91.9116C154.05 92.2349 154.604 92.5199 155.177 92.7644C155.712 92.9873 156.265 93.1637 156.831 93.2917C157.575 93.4424 158.3 93.676 158.992 93.9882C159.705 94.3198 160.338 94.8017 160.847 95.4008C160.883 95.4438 160.91 95.4936 160.926 95.5471C160.943 95.6006 160.948 95.6568 160.943 95.7125C160.937 95.7682 160.921 95.8222 160.895 95.8715C160.868 95.9208 160.832 95.9644 160.789 95.9997C160.737 96.0432 160.676 96.0731 160.61 96.0868C160.544 96.1004 160.476 96.0973 160.411 96.0778C159.77 95.8848 159.118 95.7326 158.458 95.6221C157.807 95.5115 157.156 95.4399 156.505 95.3552C155.666 95.2658 154.863 94.9682 154.168 94.4894C153.818 94.2376 153.522 93.9175 153.298 93.5483C153.074 93.1791 152.927 92.7686 152.866 92.3412C152.859 92.283 152.863 92.224 152.879 92.1675C152.895 92.111 152.922 92.0582 152.958 92.0122C152.994 91.9661 153.04 91.9278 153.091 91.8994C153.142 91.8709 153.199 91.8529 153.257 91.8465C153.351 91.8335 153.447 91.8518 153.53 91.8986L153.517 91.9116Z" fill="#283B4B"/>
<path d="M152.02 110.08C150.067 112.033 148.453 112.964 147.034 112.964C146.815 112.966 146.596 112.942 146.383 112.892C145.857 112.772 145.37 112.519 144.97 112.157C144.509 111.712 144.126 111.193 143.837 110.621C143.599 110.188 143.395 109.737 143.225 109.273C142.659 108.186 141.448 107.001 142.223 106.448C143.115 105.797 144.033 108.043 145.419 107.385C146.552 106.825 146.897 106.572 147.593 106.806C147.837 106.879 148.06 107.009 148.244 107.183C148.367 107.285 148.474 107.403 148.563 107.535C149.104 107.151 149.214 106.838 149.696 107.073C149.979 107.246 150.241 107.451 150.477 107.685C150.873 108.044 151.382 108.254 151.916 108.277C152.482 108.245 153.114 107.73 153.368 108.381C153.42 108.778 153.107 109.507 152.02 110.08Z" fill="#9E2323"/>
<path d="M167.585 137.642C167.552 147.355 164.206 154.9 159.005 160.244C140.947 178.842 100.58 171.037 99.9619 136.842C105.378 137.044 111.992 138.267 120.24 137.07C125.128 129.746 129.959 122.507 133.259 114.481C135.484 117.346 138.277 119.722 141.461 121.459L142.034 121.785C143.678 121.571 145.295 121.185 146.858 120.633L141.891 143.827C150.783 141.431 160.183 137.682 167.585 137.642Z" fill="#9B5E35"/>
<path d="M99.3239 206.541C94.8777 228.271 89.1036 245.834 79.1437 250.156C58.9636 235.9 47.9557 209.855 40.7364 179.012L25.1782 186.993C21.5718 190.156 20.6214 189.466 20.3089 184.558C17.3079 185.808 16.1101 184.109 17.054 179.689C14.5608 179.571 13.2328 176.935 15.4266 173.179C11.5989 171.291 7.70609 170.341 5.79874 168.004C1.65205 162.933 -0.16416 158.604 0.0116024 156.937C0.0202045 156.845 0.0376394 156.753 0.0636764 156.664C0.519357 155.167 3.37713 156.931 7.77119 162.894C9.40513 165.107 13.3891 165.172 16.8848 166.799L18.0826 166.741L23.3555 166.474L33.12 165.986C30.2492 164.684 27.1636 163.414 24.5077 162.08C23.3182 161.487 22.166 160.821 21.0575 160.088C18.5838 158.402 17.1517 156.553 17.6985 154.353C28.1141 157.178 40.0594 159.495 43.132 164.632L78.0306 225.231C78.2975 218.526 78.5969 211.345 78.955 204.1L99.3239 206.541Z" fill="#9B5E35"/>
<path d="M248.995 147.075C242.961 146.58 235.52 145.22 234.121 143.462C236.653 141.073 244.087 142.245 250.623 142.479C252.836 144.582 252.276 146.092 248.995 147.075Z" fill="#9B5E35"/>
<path d="M246.561 151.671L244.718 152.192C239.901 150.616 234.179 149.659 234.023 147.212C236.314 146.066 243.267 147.576 248.995 147.075C251.384 150.167 250.421 151.625 246.561 151.671Z" fill="#9B5E35"/>
<path d="M251.345 142.473H250.603C245.584 136.21 241.542 124.031 247.036 124.245C247.309 129.792 247.85 130.332 253.175 136.614C255.811 139.524 254.073 142.238 251.345 142.473Z" fill="#9B5E35"/>
<path d="M196.996 86.3458C196.946 86.352 196.896 86.352 196.846 86.3458C196.746 86.3052 196.666 86.2276 196.623 86.1293C196.579 86.031 196.575 85.9197 196.612 85.8185C197.627 83.1756 197.263 80.6889 195.655 78.8076C193.656 76.4966 190.069 75.4485 186.736 76.2037C182.831 77.089 178.925 80.9558 177.408 82.5832C177.331 82.6579 177.229 82.6998 177.122 82.6998C177.014 82.6998 176.912 82.6579 176.835 82.5832C176.797 82.5457 176.767 82.5011 176.747 82.4519C176.726 82.4027 176.716 82.35 176.716 82.2968C176.716 82.2435 176.726 82.1908 176.747 82.1416C176.767 82.0925 176.797 82.0479 176.835 82.0103C178.788 79.9272 182.603 76.2948 186.6 75.39C190.226 74.5697 194.125 75.722 196.319 78.2477C198.154 80.3699 198.545 83.1495 197.419 86.0594C197.39 86.1473 197.333 86.2232 197.256 86.2751C197.18 86.327 197.088 86.3518 196.996 86.3458Z" fill="#90A5B6"/>
<path d="M189.204 116.232C187.435 116.213 185.693 115.797 184.106 115.015C178.957 112.521 174.908 106.617 177.551 100.589C177.573 100.54 177.603 100.496 177.642 100.459C177.68 100.423 177.725 100.394 177.775 100.374C177.825 100.355 177.877 100.346 177.931 100.347C177.984 100.348 178.036 100.359 178.085 100.381C178.134 100.402 178.178 100.433 178.215 100.471C178.251 100.51 178.28 100.555 178.3 100.605C178.319 100.654 178.328 100.707 178.327 100.76C178.326 100.813 178.315 100.866 178.293 100.915C175.852 106.48 179.647 111.981 184.458 114.279C186.565 115.365 188.985 115.681 191.3 115.171C192.878 114.801 194.273 113.884 195.239 112.583C196.204 111.281 196.677 109.679 196.573 108.062C196.571 107.955 196.611 107.851 196.686 107.773C196.76 107.695 196.862 107.649 196.97 107.646C197.077 107.644 197.181 107.685 197.259 107.759C197.337 107.833 197.383 107.935 197.386 108.043C197.496 109.843 196.965 111.624 195.886 113.069C194.808 114.515 193.252 115.531 191.495 115.939C190.746 116.129 189.976 116.228 189.204 116.232Z" fill="#90A5B6"/>
<path d="M97.5792 82.492C97.5209 82.4917 97.4634 82.4787 97.4106 82.454C97.3577 82.4293 97.3109 82.3934 97.2733 82.3488C93.8427 78.3453 89.4616 74.4525 83.1081 75.9433C81.5614 76.3299 80.1307 77.0838 78.9374 78.1411C77.7441 79.1984 76.8234 80.5279 76.2534 82.0168C76.2094 82.1078 76.1333 82.1793 76.0398 82.2176C75.9463 82.2559 75.842 82.2583 75.7468 82.2245C75.6516 82.1906 75.5722 82.1227 75.524 82.034C75.4757 81.9452 75.4619 81.8417 75.4853 81.7434C76.1032 80.1266 77.1024 78.6828 78.3977 77.5348C79.6931 76.3867 81.2465 75.5683 82.9259 75.1491C89.7611 73.5542 94.5132 77.8766 97.8982 81.8215C97.934 81.8616 97.9613 81.9085 97.9785 81.9594C97.9957 82.0103 98.0023 82.0642 97.9981 82.1177C97.9938 82.1713 97.9787 82.2234 97.9537 82.271C97.9287 82.3185 97.8943 82.3605 97.8527 82.3944C97.7775 82.4609 97.6795 82.4958 97.5792 82.492Z" fill="#90A5B6"/>
<path d="M174.583 68.1511C173.563 68.1482 172.558 67.9004 171.653 67.4286C171.558 67.381 171.485 67.2974 171.451 67.1961C171.416 67.0948 171.424 66.9841 171.471 66.8883C171.52 66.7921 171.605 66.719 171.707 66.6849C171.809 66.6507 171.921 66.6583 172.018 66.706C173.225 67.3012 174.601 67.4624 175.914 67.1625C177.226 66.8625 178.395 66.1197 179.224 65.059C180.041 64.1205 180.491 62.9182 180.491 61.674C180.491 60.4297 180.041 59.2274 179.224 58.2889C177.271 55.8803 173.02 55.4051 169.694 56.0105C164.551 56.9349 158.712 61.4266 156.395 66.2308C156.348 66.3275 156.265 66.4017 156.164 66.4371C156.062 66.4725 155.951 66.4662 155.854 66.4196C155.758 66.3729 155.683 66.2898 155.648 66.1885C155.613 66.0872 155.619 65.9759 155.666 65.8793C158.081 60.8668 164.18 56.1798 169.551 55.2098C172.851 54.6109 177.525 54.9299 179.856 57.7747C180.79 58.8613 181.305 60.2471 181.305 61.6805C181.305 63.1139 180.79 64.4997 179.856 65.5863C179.219 66.3745 178.416 67.0128 177.505 67.4561C176.594 67.8993 175.596 68.1366 174.583 68.1511Z" fill="#90A5B6"/>
<mask id="mask2_1_124" style="mask-type:luminance" maskUnits="userSpaceOnUse" x="76" y="136" width="126" height="128">
<path d="M201.657 184.135L200.537 185.378L185.155 202.388C178.834 193.274 173.079 182.208 167.578 170.341L165.69 260.175L116.998 263.43L105.352 171.962C103.399 183.777 101.544 195.683 99.3239 206.541L78.9615 204.126L76.95 203.879C78.3495 176.265 82.685 147.785 88.5568 140.669C88.7294 140.439 88.9187 140.221 89.1231 140.018C92.1176 137.148 95.6654 136.653 99.9618 136.816C100.762 180.847 167.455 181.134 167.585 137.616C170.026 137.512 172.45 138.06 174.609 139.205C174.889 139.368 175.169 139.537 175.449 139.726L175.852 140.012C184.334 146.157 192.758 165.113 201.657 184.135Z" fill="white"/>
</mask>
<g mask="url(#mask2_1_124)">
<path d="M173.736 169.019C176.601 167.952 178.254 168.557 181.053 168.173C183.306 167.88 185.61 166.826 187.954 165.888C189.585 165.151 191.28 164.565 193.018 164.137C191.989 162.444 191.054 160.694 190.219 158.897C186.08 159.833 182.074 161.281 178.293 163.206C176.325 164.525 174.053 165.32 171.692 165.517C167.678 166.077 163.69 166.468 159.728 166.689C156.57 166.897 153.328 166.585 150.126 167.197C147.665 167.646 145.497 168.616 142.965 168.889C141.338 169.052 139.586 168.935 138.063 169.332C137.301 169.571 136.553 169.853 135.824 170.178C133.717 170.911 131.466 171.134 129.256 170.829C128.398 170.65 127.527 170.543 126.652 170.51C125.519 170.51 124.048 170.829 123.397 170.425C123.13 170.263 123.026 170.022 122.661 169.911C122.38 169.872 122.096 169.872 121.815 169.911C118.521 170.152 114.83 170.562 112.792 171.864C109.761 170.842 106.578 170.343 103.379 170.386C101.978 170.333 100.579 170.538 99.2523 170.992C98.7836 171.194 98.4385 171.447 97.9503 171.643C96.7716 172.079 95.5339 172.336 94.2788 172.404C93.3925 172.532 92.4939 172.549 91.6033 172.457C90.8287 172.333 90.2363 172.027 89.4551 171.884C87.5803 171.493 85.4191 172.092 83.3295 172.092C80.9534 172.092 79.0005 171.317 76.6766 171.148C76.3901 171.148 76.1167 171.148 75.8433 171.148C75.6089 173.55 75.3225 175.952 75.0166 178.354C78.7271 178.016 81.8127 175.75 85.8553 175.62C88.062 175.536 90.2558 176.089 92.365 175.731C93.0057 175.58 93.6599 175.492 94.3179 175.471C94.9262 175.529 95.518 175.701 96.0625 175.978C97.4594 176.48 98.9415 176.701 100.424 176.629C102.475 176.545 104.388 175.978 106.387 175.692C109.277 175.262 112.246 175.353 115.155 175.145C120.539 174.774 125.916 173.335 131.163 173.771C133.22 173.941 135.16 174.422 137.269 174.286C138.964 174.112 140.676 174.296 142.295 174.826C143.629 175.145 144.3 174.891 145.725 174.709C149.41 174.182 153.498 174.592 157.345 174.058C159.554 173.742 161.741 173.29 163.894 172.704C165.495 172.294 167.025 172.281 168.561 171.675C170.462 170.907 171.836 169.761 173.736 169.019Z" fill="#FFE287"/>
<path d="M167.8 208C167.728 206.523 168.144 205.063 168.984 203.846H168.691C164.213 204.406 159.343 207.622 154.761 207.576C154.343 207.555 153.935 207.446 153.563 207.257C150.732 206.314 147.657 206.42 144.898 207.557C144.286 207.824 143.753 208.143 143.121 208.397C142.348 208.676 141.553 208.893 140.745 209.048C134.034 210.467 126.287 210.428 119.81 212.504C118.892 212.797 118.013 213.155 117.108 213.494C114.206 214.486 111.166 215.015 108.099 215.063C108.744 216.232 109.245 217.476 109.59 218.767C109.824 218.767 110.052 218.728 110.286 218.721C111.425 218.675 112.369 218.936 113.541 218.871C114.843 218.812 116.06 218.532 117.317 218.558C117.822 218.585 118.328 218.585 118.833 218.558C119.499 218.502 120.155 218.362 120.786 218.142L125.499 216.716C126.606 216.365 127.739 216.013 128.884 215.74C130.03 215.466 131.059 215.297 132.139 215.089C134.834 214.633 137.538 214.225 140.25 213.865C142.542 213.572 145.315 213.038 147.411 213.279C153.771 214.002 161.596 212.804 167.988 210.317C167.93 209.575 167.839 208.774 167.8 208Z" fill="#FFE287"/>
<path d="M183.618 205.728C185.805 205.415 187.98 205.077 190.128 204.803L190.987 204.699C193.86 202.06 196.554 199.233 199.053 196.237L197.666 196.406C195.738 196.61 193.822 196.912 191.925 197.311C189.776 197.805 187.661 198.45 185.591 199.14C184.041 199.628 182.544 199.726 181.034 200.364C180.568 200.567 180.114 200.795 179.673 201.047C181.498 202.094 182.895 203.752 183.618 205.728Z" fill="#FFE287"/>
<path d="M167.8 207.999C167.766 207.389 167.823 206.777 167.969 206.183L165.176 206.457C161.921 206.756 158.562 206.645 155.294 207.472C152.795 208.123 150.653 209.256 148.062 209.757C146.415 210.07 144.625 210.128 143.115 210.668C142.362 210.981 141.628 211.336 140.914 211.73C138.848 212.665 136.593 213.11 134.327 213.031C133.44 212.938 132.547 212.921 131.658 212.979C130.518 213.103 129.086 213.559 128.338 213.227C128.051 213.097 127.921 212.862 127.543 212.791C127.257 212.779 126.97 212.805 126.691 212.869C123.384 213.435 119.719 214.171 117.766 215.629C114.632 214.832 111.392 214.529 108.164 214.731H107.904C108.882 216.417 109.567 218.257 109.928 220.173C110.455 220.042 110.983 219.919 111.523 219.808C114.446 219.216 117.46 219.112 120.435 218.649C125.897 217.816 131.195 215.824 136.546 215.713C138.649 215.674 140.661 215.941 142.776 215.603C144.469 215.265 146.214 215.285 147.899 215.661C149.266 215.857 149.917 215.557 151.343 215.245C155.014 214.418 159.155 214.529 162.969 213.832C164.766 213.507 166.55 213.077 168.307 212.608C168.054 211.082 167.885 209.544 167.8 207.999Z" fill="#FFE287"/>
<path d="M183.801 206.216C184.024 206.917 184.211 207.63 184.36 208.351C185.18 208.403 186.002 208.403 186.821 208.351C189.956 205.762 192.926 202.979 195.713 200.019C191.832 200.593 188.042 201.67 184.438 203.221C183.879 203.475 183.325 203.736 182.759 203.983C183.196 204.682 183.546 205.432 183.801 206.216Z" fill="#FFE287"/>
<path d="M167.995 237.768C166.289 237.905 164.577 238.055 162.924 238.348C160.717 238.738 158.536 239.279 156.414 239.865C154.813 240.288 153.283 240.314 151.74 240.88C149.787 241.59 148.401 242.683 146.409 243.347C143.46 244.33 141.813 243.614 138.968 243.842C134.411 244.207 129.288 247.24 124.647 247.051C124.223 247.015 123.811 246.893 123.436 246.693C121.294 245.749 117.414 245.619 114.602 246.778C113.951 247.038 113.417 247.344 112.766 247.585C112.406 247.715 112.039 247.824 111.666 247.911C111.79 249.447 111.92 251.087 112.031 252.773C113.68 252.516 115.354 252.455 117.017 252.591C124.614 253.62 134.372 252.142 141.474 248.959C142.837 248.257 144.268 247.696 145.745 247.286C146.604 247.111 147.474 246.991 148.349 246.928C152.489 246.511 156.635 246.12 160.717 245.762C163.152 245.548 165.645 245.554 168.119 245.235C167.869 242.754 167.828 240.256 167.995 237.768Z" fill="#FFE287"/>
<path d="M203.733 184.63C203.233 182.958 202.6 181.33 201.839 179.76C201.291 180.719 200.648 181.62 199.919 182.449C198.721 183.83 197.164 184.853 195.42 185.404C195.106 185.499 194.778 185.541 194.45 185.528C194.277 185.524 194.11 185.462 193.975 185.352C193.839 185.241 193.718 185.112 193.617 184.968C193.526 184.805 193.435 184.682 193.344 184.486L193.064 183.835C192.719 182.924 192.458 181.941 192.192 181.017C191.925 180.092 191.658 179.253 191.391 178.523C191.124 177.794 190.903 177.176 190.655 176.505C190.233 175.227 189.74 173.973 189.178 172.749C188.713 171.835 188.168 170.964 187.55 170.145C186.998 169.325 186.197 168.704 185.265 168.375C184.754 168.235 184.214 168.235 183.703 168.375C183.282 168.487 182.88 168.662 182.512 168.896C181.797 169.344 181.206 169.964 180.793 170.699C180.018 172.252 179.608 173.962 179.595 175.698C179.511 177.651 179.634 179.754 179.764 182.058C179.849 183.542 179.953 185.033 179.934 186.478L179.888 187.565V187.839C179.893 187.904 179.893 187.969 179.888 188.034L179.836 188.392C179.781 188.819 179.694 189.241 179.576 189.655C179.459 190.043 179.249 190.396 178.964 190.684C178.757 190.894 178.517 191.07 178.254 191.204C178.072 191.329 177.866 191.416 177.649 191.458C177.426 191.488 177.2 191.452 176.998 191.354C176.773 191.256 176.571 191.112 176.405 190.931C176.315 190.836 176.232 190.733 176.158 190.625L175.976 190.332C175.898 190.202 175.82 190.072 175.748 189.929C175.24 188.965 175.136 187.976 174.693 186.915L173.932 185.092C173.476 183.911 173.097 182.702 172.799 181.472C172.58 180.513 172.266 179.577 171.862 178.68C171.438 177.781 170.807 176.995 170.019 176.388C169.233 175.768 168.323 175.324 167.35 175.086C166.201 174.816 164.992 174.983 163.959 175.555C163.323 175.966 162.772 176.497 162.338 177.117L161.993 177.567L161.674 178.094C161.459 178.419 161.277 178.836 161.082 179.214C160.357 180.844 159.769 182.531 159.324 184.259C159.168 184.805 159.025 185.365 158.881 185.919L158.536 187.273L157.97 189.492L157.384 191.673C157.137 192.552 157.065 192.734 156.941 193.099C156.755 193.674 156.518 194.232 156.232 194.765C155.952 195.221 155.581 195.585 155.093 195.045C154.904 194.769 154.764 194.463 154.676 194.14C154.593 193.875 154.532 193.602 154.494 193.327C154.445 192.969 154.458 192.606 154.533 192.252C154.562 192.1 154.631 191.958 154.735 191.842L154.696 191.654L154.604 191.25L154.422 190.423L154.22 189.557L153.953 188.483L153.797 187.904L153.55 187.051L153.042 185.365L152.391 183.79L152.072 183.015L151.701 182.325C151.454 181.876 151.206 181.42 150.952 180.984L150.106 179.904C149.975 179.722 149.834 179.548 149.683 179.383L149.234 178.96C148.952 178.674 148.649 178.408 148.329 178.165C147.216 177.276 145.847 176.767 144.423 176.714C143.72 176.677 143.018 176.81 142.376 177.099C141.734 177.389 141.17 177.828 140.732 178.38C139.476 179.91 138.844 182.195 138.226 184.708C137.874 186.088 137.536 187.481 137.217 188.874L136.768 190.885L136.572 191.719L136.475 192.129L136.41 192.344C136.292 192.8 136.112 193.238 135.876 193.646C135.688 193.969 135.47 194.274 135.225 194.557C134.991 194.785 134.763 195.013 134.418 194.974C134.073 194.934 133.923 194.498 133.838 194.153C133.752 193.834 133.698 193.507 133.676 193.177C133.676 192.897 133.676 192.682 133.611 192.526C133.6 192.445 133.578 192.366 133.545 192.292L133.487 192.181C133.487 192.181 133.487 192.181 133.435 192.09L133.311 191.771C132.768 190.486 132.16 189.23 131.488 188.008L130.499 186.094L129.998 185.066L129.347 183.679C128.788 182.346 128.064 181.089 127.192 179.936C126.793 179.43 126.316 178.991 125.779 178.634C125.291 178.283 124.731 178.045 124.139 177.938C123.547 177.862 122.947 177.924 122.382 178.117C121.818 178.31 121.306 178.629 120.884 179.051C118.716 181.004 116.861 184.701 115.481 186.452C114.833 187.232 114.264 188.073 113.782 188.965C113.203 190.13 112.773 191.725 112.07 192.22C111.796 192.415 111.53 192.415 111.256 192.715C111.084 192.968 110.944 193.241 110.84 193.528L109.765 195.97C109.368 196.835 109.004 197.688 108.691 198.502C108.084 199.913 107.681 201.403 107.494 202.928L105.899 204.12C105.719 204.274 105.511 204.394 105.287 204.471C105.118 204.543 104.955 204.595 104.805 204.647C104.344 204.841 103.827 204.859 103.353 204.699C103.223 204.63 103.107 204.535 103.015 204.419C102.728 204.055 102.65 203.768 102.156 203.592C101.919 203.516 101.698 203.397 101.505 203.241C100.925 202.375 100.632 200.858 100.431 199.439C100.261 198.468 100.206 197.481 100.268 196.497C100.365 195.625 100.652 194.961 100.776 194.082C100.908 192.951 100.881 191.807 100.697 190.684C100.606 190.085 100.522 189.473 100.431 188.867C100.32 188.054 100.209 187.24 100.099 186.439C99.9442 184.487 99.5349 182.563 98.8812 180.717C98.5698 179.91 98.1006 179.173 97.5011 178.55C97.1876 178.236 96.8328 177.967 96.4466 177.749C96.0238 177.533 95.5721 177.38 95.1056 177.293C94.1522 177.171 93.1835 177.322 92.3129 177.729C91.4513 178.132 90.667 178.683 89.9954 179.357C89.635 179.702 89.2939 180.067 88.9734 180.45C88.6479 180.834 88.3224 181.219 88.0165 181.642C87.7105 182.065 87.3655 182.455 87.0856 182.905C86.8057 183.354 86.4997 183.699 86.2003 184.115L85.6014 184.929C85.4191 185.183 85.2499 185.43 85.0936 185.691C84.7223 186.498 84.4111 187.331 84.1627 188.184C83.7352 189.077 83.2137 189.921 82.6069 190.703C80.9274 193.079 79.2935 195.462 77.8027 197.734C76.4227 199.823 74.958 201.952 73.5909 204.165L73.63 204.543L74.0336 204.732C74.9662 205.228 75.7741 205.929 76.3966 206.782C76.4552 206.717 76.5073 206.652 76.5659 206.593C77.4968 205.617 78.3951 205.689 79.3651 204.875C80.422 203.84 81.2049 202.558 81.6435 201.145C82.0796 199.797 82.2163 198.665 82.6915 197.35C83.4705 195.357 84.587 193.514 85.992 191.901C86.6812 191.077 87.4134 190.291 88.1857 189.544C88.5476 189.182 88.9278 188.839 89.3249 188.516L89.8978 188.067L90.4316 187.702L90.7571 187.494C90.8295 187.466 90.9034 187.442 90.9784 187.422L91.369 187.331C91.5776 187.303 91.7827 187.253 91.9809 187.181C92.3194 187.051 92.5147 186.706 92.9639 186.218C93.1898 185.98 93.4719 185.804 93.7841 185.704C94.0507 185.632 94.3313 185.632 94.5978 185.704C94.9115 185.804 95.2008 185.969 95.4473 186.188C95.6939 186.406 95.8923 186.674 96.0299 186.973C96.2585 187.385 96.4397 187.822 96.5703 188.275C96.7333 188.889 96.8422 189.517 96.8957 190.15C97.1171 192.591 96.6028 195.052 97.039 197.441C97.2114 198.153 97.3268 198.878 97.384 199.608C97.3572 200.295 97.2255 200.973 96.9934 201.62C96.8061 202.407 96.7186 203.214 96.733 204.022C96.788 205.263 97.034 206.488 97.4621 207.654C97.6615 208.167 97.9123 208.657 98.2107 209.119C100.142 209.294 102.018 209.851 103.731 210.76C103.92 210.864 104.089 210.987 104.271 211.098C106.061 210.213 107.526 208.598 108.828 206.886L109.251 206.32L109.629 205.793C109.876 205.441 110.117 205.09 110.351 204.732C110.82 204.016 111.263 203.286 111.653 202.544C112.387 201.193 113.05 199.805 113.639 198.385C114.29 196.959 114.791 195.494 115.299 194.062C116.314 191.224 117.349 188.399 119.061 186.159L119.543 185.58L119.979 185.157C120.246 184.926 120.524 184.708 120.812 184.506C121.306 184.092 121.874 183.776 122.485 183.575C122.653 183.538 122.826 183.545 122.99 183.594C123.154 183.643 123.303 183.733 123.423 183.855C123.623 184.047 123.774 184.283 123.866 184.545C124.052 185.088 124.117 185.666 124.054 186.237C124.008 186.508 124.033 186.786 124.126 187.045C124.276 187.409 124.543 187.917 124.835 188.62C125.219 189.568 125.541 190.54 125.799 191.53C125.936 192.038 126.066 192.558 126.202 193.073L126.398 193.867C126.463 194.147 126.502 194.342 126.645 194.85C127.099 196.617 127.655 198.356 128.312 200.058C128.845 201.492 129.675 202.799 130.746 203.892C131.247 204.374 131.826 204.768 132.458 205.057C133.158 205.388 133.939 205.503 134.704 205.389C136.299 205.07 137.308 204.087 138.259 202.824C138.981 201.823 139.616 200.763 140.159 199.654C140.769 198.443 141.208 197.152 141.461 195.82C141.579 194.994 141.629 194.16 141.611 193.327C141.623 193.175 141.623 193.023 141.611 192.871L141.565 192.48L141.468 191.706L141.305 190.801C141.273 190.599 141.233 190.397 141.201 190.189C141.126 189.759 141.091 189.323 141.097 188.887C141.05 187.86 141.333 186.845 141.904 185.99C142.102 185.735 142.342 185.515 142.613 185.339C142.912 185.131 143.248 184.983 143.603 184.903C143.986 184.868 144.369 184.964 144.69 185.176C145 185.353 145.296 185.554 145.575 185.775C146.203 186.261 146.735 186.859 147.144 187.539C148.127 189.017 148.934 191.562 149.39 194.492C149.453 195.084 149.473 195.68 149.449 196.275C149.491 198.51 150.318 200.658 151.786 202.343C151.967 202.572 152.174 202.78 152.404 202.961L153.055 203.508C153.523 203.79 154.018 204.023 154.533 204.204C155.078 204.357 155.654 204.357 156.199 204.204C156.694 204.031 157.14 203.743 157.501 203.365C158.119 202.672 158.618 201.883 158.979 201.028C159.524 199.907 159.996 198.753 160.392 197.571C160.815 196.269 161.199 194.967 161.563 193.6C161.83 192.637 162.097 191.647 162.37 190.69C162.644 189.733 162.924 188.737 163.204 187.793L163.718 186.27C163.887 185.782 164.063 185.307 164.252 184.831C164.43 184.326 164.682 183.85 165 183.419C165.175 183.217 165.407 183.074 165.666 183.009C165.924 182.944 166.196 182.96 166.446 183.054C166.849 183.245 167.21 183.515 167.507 183.848C167.929 184.24 168.307 184.676 168.633 185.15C168.913 185.554 169.225 186.042 169.538 186.569C169.681 186.817 169.876 187.168 170.052 187.494L170.586 188.477C171.295 189.779 171.985 191.081 172.767 192.383C173.565 193.821 174.656 195.076 175.969 196.067C176.673 196.55 177.505 196.813 178.358 196.822C179.222 196.801 180.063 196.539 180.786 196.067C182.354 195.036 183.507 193.485 184.041 191.686C184.178 191.237 184.328 190.723 184.425 190.287C184.523 189.85 184.608 189.46 184.666 189.102L184.751 188.574C184.751 188.392 184.81 188.197 184.823 188.138C184.862 187.95 184.901 187.774 184.927 187.598C185.161 186.192 185.018 185.326 184.777 183.21C184.712 182.527 184.588 181.59 184.582 180.698C184.575 179.806 184.679 178.966 185.044 178.777C185.408 178.589 185.747 178.999 186.164 179.721C186.583 180.545 186.891 181.421 187.081 182.325C187.407 183.751 187.524 184.734 187.615 185.385C187.706 186.036 187.745 186.381 187.797 186.602C187.908 187.006 188.058 187.051 188.702 187.559C188.762 187.617 188.817 187.68 188.865 187.748L189.093 188.015C189.331 188.31 189.59 188.589 189.868 188.848C190.453 189.423 191.142 189.883 191.899 190.202C192.673 190.529 193.506 190.695 194.346 190.69C194.717 190.688 195.087 190.658 195.453 190.599C195.789 190.552 196.121 190.484 196.449 190.397C197.453 190.141 198.433 189.799 199.378 189.375C200.263 188.998 201.122 188.563 201.95 188.073C202.682 187.607 203.386 187.098 204.059 186.55C204.026 185.899 203.917 185.255 203.733 184.63Z" fill="#FFD8E0"/>
<path d="M107.76 151.092C107.513 151.423 107.253 151.742 106.986 152.042C106.345 152.669 105.757 153.349 105.228 154.073C104.577 155.043 103.998 156.397 103.275 156.735C102.989 156.859 102.715 156.827 102.481 156.95C102.327 157.08 102.2 157.239 102.11 157.419L101.661 158.142L101.4 158.584C101.238 158.903 101.036 159.235 100.834 159.645C100.305 160.787 99.6363 161.859 98.8421 162.835C98.5047 162.211 98.347 161.506 98.3865 160.797C98.4028 160.18 98.4769 159.565 98.6078 158.962C98.8356 157.933 99.0635 157.341 99.1741 156.898V156.755V156.286C99.1741 155.954 99.1741 155.596 99.1741 155.245C99.1612 154.584 99.065 153.928 98.8877 153.292C98.738 152.804 98.5297 152.433 98.3865 151.931C98.086 150.686 97.9849 149.4 98.087 148.123C98.087 147.654 98.1196 147.173 98.1521 146.691C98.1736 146.252 98.2368 145.816 98.3409 145.389C98.5557 144.634 98.9398 144.087 99.1741 143.273C99.3298 142.765 99.4259 142.241 99.4606 141.711C99.4606 141.425 99.4606 141.151 99.4996 140.832C99.5387 140.513 99.4996 140.012 99.4541 139.569C99.3706 137.909 98.8859 136.294 98.0415 134.863C97.9373 134.7 97.8266 134.544 97.716 134.394C96.5077 134.528 95.308 134.73 94.1226 134.999C91.6315 135.481 89.2393 136.379 87.0465 137.655C86.9359 137.721 86.4997 138.02 86.2263 138.209C85.8809 138.502 85.5567 138.82 85.2564 139.159C85.2564 139.595 85.7251 138.671 85.2564 139.159C85.1445 140.214 84.8654 141.245 84.4296 142.212C84.7421 142.063 85.0806 141.913 85.354 141.789C86.3227 141.455 87.2724 141.068 88.1988 140.63C89.0288 140.198 89.8119 139.681 90.5357 139.088C90.7245 138.899 90.9784 138.632 91.1867 138.437C91.4112 138.169 91.6644 137.926 91.9418 137.714C92.2666 137.423 92.6584 137.218 93.0821 137.115C93.5059 137.013 93.9484 137.017 94.37 137.128C95.2032 137.441 95.6719 138.365 95.724 139.42C95.7539 139.911 95.7321 140.404 95.6589 140.891C95.5938 141.431 95.4896 141.978 95.392 142.518C95.1449 143.607 95.0312 144.722 95.0535 145.838C95.1327 146.487 95.1327 147.143 95.0535 147.791C94.9165 148.401 94.6694 148.981 94.3244 149.503C93.6519 150.887 93.2645 152.393 93.1852 153.93C93.1559 154.461 93.1559 154.993 93.1852 155.525C93.1852 155.785 93.1852 156.065 93.2373 156.332L93.3154 157.256C93.4361 158.615 93.6273 159.966 93.8882 161.305C94.1212 163.026 94.6825 164.685 95.5417 166.194C95.7549 166.568 96.0492 166.888 96.403 167.133C96.7568 167.377 97.161 167.539 97.5858 167.607C98.4189 167.649 99.2434 167.421 99.9358 166.956C100.272 166.768 100.59 166.55 100.886 166.305C101.222 166.044 101.527 165.747 101.798 165.419L102.676 164.449L103.106 163.961L103.503 163.388C104.004 162.633 104.571 161.859 104.974 161.169L106.146 159.138C107.154 157.19 108.271 155.301 109.492 153.481C108.926 152.66 108.333 151.892 107.76 151.092Z" fill="#FFD8E0"/>
<path d="M179.087 139.114C178.338 138.695 177.567 138.316 176.777 137.981C176.372 140.005 175.79 141.989 175.038 143.911C174.693 144.758 174.316 145.526 173.912 146.353C173.496 147.283 173.157 148.136 172.838 148.956L171.972 151.215C171.955 151.267 171.929 151.316 171.894 151.358L171.842 151.443C171.806 151.495 171.774 151.55 171.744 151.606C171.681 151.712 171.631 151.826 171.595 151.944C171.474 152.482 171.324 153.012 171.146 153.533C171.102 153.687 171.021 153.828 170.91 153.942C170.798 154.057 170.66 154.142 170.507 154.189C170.354 154.236 170.192 154.244 170.035 154.213C169.878 154.181 169.732 154.111 169.609 154.008C169.253 153.747 168.985 153.384 168.841 152.966C168.753 152.757 168.687 152.539 168.646 152.315L168.49 151.547C168.34 150.818 168.197 150.083 168.053 149.347C167.91 148.611 167.741 147.726 167.539 146.899C166.999 144.738 166.153 142.531 165.521 140.22C164.703 142.276 163.744 144.273 162.65 146.196C162.748 146.945 162.846 147.7 162.95 148.462C163.139 149.809 163.347 151.176 163.679 152.556C163.738 152.882 163.881 153.298 163.998 153.689L164.18 154.288L164.278 154.587L164.421 154.919L165.013 156.26C165.235 156.696 165.502 157.087 165.756 157.504C166.005 157.91 166.297 158.287 166.628 158.63L167.103 159.164L167.637 159.593C168.315 160.187 169.118 160.618 169.987 160.856C170.412 160.963 170.851 161.005 171.289 160.98C171.741 160.942 172.183 160.821 172.591 160.622C173.385 160.205 174.071 159.61 174.596 158.884C175.329 157.898 175.897 156.798 176.275 155.629C176.458 155.043 176.62 154.457 176.757 153.865L176.978 152.986L177.095 152.543L177.2 152.179C177.618 151.013 178.208 149.916 178.951 148.924L179.647 147.837C179.9 147.38 180.128 146.911 180.331 146.431C180.78 145.372 181.158 144.284 181.464 143.176C181.743 142.186 181.978 141.158 182.18 140.123C181.093 139.992 180.042 139.649 179.087 139.114Z" fill="#FFD8E0"/>
<path d="M168.158 236.219C168.158 236.148 168.158 236.076 168.158 236.004C168.075 236.045 167.988 236.074 167.897 236.089C167.675 236.115 167.449 236.079 167.246 235.985C167.023 235.885 166.821 235.741 166.654 235.562C166.564 235.466 166.481 235.364 166.407 235.256L166.224 234.963C166.146 234.833 166.068 234.702 165.996 234.559C165.489 233.596 165.384 232.606 164.942 231.545L164.18 229.716C163.723 228.538 163.345 227.331 163.047 226.103C162.83 225.143 162.516 224.207 162.11 223.31C161.688 222.41 161.057 221.624 160.268 221.019C159.482 220.399 158.571 219.955 157.599 219.717C156.449 219.45 155.241 219.617 154.207 220.186C153.574 220.601 153.024 221.131 152.586 221.748L152.241 222.204L151.922 222.725C151.708 223.057 151.525 223.467 151.33 223.851C150.606 225.481 150.018 227.168 149.572 228.896C149.416 229.443 149.273 229.996 149.13 230.556L148.785 231.91L148.218 234.13L147.632 236.31C147.385 237.189 147.314 237.371 147.19 237.729C147.005 238.308 146.767 238.868 146.48 239.402C146.2 239.858 145.829 240.216 145.341 239.676C145.152 239.402 145.011 239.099 144.924 238.777C144.842 238.512 144.781 238.239 144.742 237.964C144.693 237.606 144.707 237.243 144.781 236.89C144.808 236.737 144.878 236.594 144.983 236.48L144.944 236.284L144.853 235.887L144.671 235.06L144.469 234.188L144.202 233.114L144.046 232.541L143.798 231.688L143.29 229.996L142.64 228.427L142.321 227.646L141.949 226.962C141.702 226.513 141.455 226.051 141.201 225.621L140.355 224.534C140.211 224.365 140.081 224.163 139.931 224.02L139.482 223.597C139.2 223.311 138.898 223.045 138.577 222.803C137.466 221.911 136.096 221.401 134.672 221.351C133.968 221.314 133.266 221.447 132.624 221.737C131.982 222.026 131.419 222.466 130.981 223.017C129.724 224.547 129.093 226.832 128.474 229.345C128.123 230.725 127.784 232.118 127.465 233.511L127.016 235.523L126.821 236.356L126.723 236.766L126.658 236.981C126.54 237.437 126.361 237.875 126.124 238.283C125.938 238.605 125.72 238.908 125.473 239.188C125.381 239.316 125.26 239.421 125.12 239.495C124.98 239.568 124.824 239.608 124.666 239.611C124.367 239.572 124.171 239.136 124.087 238.79C124.001 238.471 123.947 238.144 123.924 237.814C123.924 237.534 123.892 237.319 123.859 237.163C123.848 237.084 123.826 237.008 123.794 236.935L123.735 236.825C123.735 236.792 123.735 236.825 123.683 236.727L123.56 236.414C123.015 235.128 122.407 233.87 121.737 232.645L120.747 230.738L120.246 229.709L119.595 228.316C119.035 226.984 118.311 225.727 117.44 224.573C117.039 224.069 116.563 223.63 116.028 223.271C115.538 222.925 114.978 222.689 114.387 222.581C113.796 222.506 113.195 222.567 112.631 222.76C112.067 222.953 111.554 223.273 111.132 223.694C110.918 223.89 110.709 224.111 110.482 224.345C110.605 225.83 110.677 227.307 110.729 228.713C110.729 228.928 110.729 229.143 110.729 229.364C110.827 229.286 110.918 229.208 111.015 229.143C111.507 228.727 112.075 228.411 112.688 228.212C112.855 228.174 113.03 228.179 113.194 228.228C113.358 228.277 113.507 228.368 113.626 228.492C113.825 228.682 113.977 228.916 114.068 229.176C114.255 229.721 114.319 230.301 114.257 230.875C114.211 231.143 114.236 231.419 114.329 231.675C114.478 232.04 114.745 232.554 115.038 233.257C115.422 234.203 115.743 235.173 116.002 236.161C116.138 236.675 116.269 237.189 116.405 237.71L116.601 238.504C116.666 238.784 116.705 238.979 116.848 239.481C117.3 241.248 117.856 242.987 118.514 244.688C119.045 246.125 119.875 247.432 120.949 248.523C121.45 249.007 122.028 249.403 122.661 249.694C123.361 250.023 124.143 250.136 124.907 250.02C126.502 249.707 127.511 248.718 128.461 247.455C129.183 246.456 129.819 245.398 130.362 244.291C130.971 243.079 131.409 241.789 131.664 240.457C131.782 239.629 131.832 238.793 131.814 237.957C131.826 237.808 131.826 237.658 131.814 237.508L131.768 237.111L131.671 236.336L131.573 235.568C131.54 235.366 131.501 235.158 131.469 234.956C131.395 234.526 131.36 234.091 131.365 233.654C131.318 232.627 131.601 231.612 132.172 230.758C132.368 230.501 132.609 230.28 132.881 230.107C133.179 229.896 133.515 229.746 133.871 229.664C134.253 229.635 134.635 229.731 134.958 229.937C135.267 230.119 135.562 230.321 135.843 230.543C136.471 231.028 137.003 231.626 137.412 232.307C138.395 233.778 139.202 236.323 139.658 239.253C139.721 239.847 139.741 240.445 139.717 241.043C139.76 243.277 140.587 245.424 142.054 247.11C142.235 247.338 142.442 247.543 142.672 247.722L143.323 248.275C143.791 248.555 144.286 248.786 144.801 248.965C145.345 249.121 145.923 249.121 146.467 248.965C146.961 248.794 147.407 248.509 147.769 248.132C148.387 247.44 148.886 246.65 149.247 245.795C149.791 244.674 150.263 243.52 150.659 242.338C151.083 241.036 151.467 239.734 151.831 238.367L152.638 235.451L153.472 232.554L153.986 231.037C154.155 230.549 154.331 230.074 154.52 229.599C154.696 229.093 154.949 228.616 155.268 228.186C155.442 227.984 155.674 227.839 155.933 227.773C156.191 227.707 156.464 227.721 156.714 227.815C157.116 228.01 157.477 228.282 157.775 228.616C158.197 229.006 158.575 229.443 158.901 229.918C159.181 230.328 159.493 230.81 159.806 231.343C159.949 231.584 160.144 231.942 160.32 232.268L160.854 233.244C161.563 234.546 162.253 235.848 163.034 237.15C163.829 238.591 164.921 239.847 166.237 240.835C166.731 241.154 167.281 241.375 167.858 241.486C167.823 239.725 167.923 237.964 168.158 236.219Z" fill="#FFD8E0"/>
</g>
<path style="mix-blend-mode:multiply" d="M79.0396 250.202C58.8594 235.92 47.9166 209.842 40.7429 178.999L25.1716 186.953C21.5587 190.111 20.6148 189.421 20.3089 184.512C17.3014 185.756 16.1036 184.057 17.054 179.637C14.5673 179.519 13.2393 176.883 15.4461 173.127C11.6184 171.233 7.72558 170.276 5.81823 167.919C1.67805 162.841 -0.125145 158.513 0.0506171 156.853C0.0580002 156.759 0.077698 156.667 0.109202 156.579C1.33303 158.408 2.66753 160.212 4.15174 162.054C9.23583 168.375 16.0775 169.605 23.9152 170.302C31.2387 170.953 36.5767 170.041 42.3378 175.679C54.6607 187.715 62.2315 205.122 68.5524 220.843C72.4452 230.51 75.7717 240.34 79.0396 250.202Z" fill="url(#paint2_linear_1_124)"/>
<path d="M24.5141 162.099C24.271 163.599 23.8874 165.072 23.3684 166.5C21.8712 170.848 19.2868 175.763 17.0345 179.669C14.5413 179.558 13.2068 176.922 15.407 173.159C16.2859 171.174 17.1972 168.922 18.0956 166.747C19.1176 164.274 20.1331 161.898 21.064 160.094C21.9949 158.291 22.8216 157.126 23.5247 156.931C24.6118 158.044 24.8396 159.873 24.5141 162.099Z" fill="#9B5E35"/>
<path d="M20.2763 184.538C17.2753 185.788 16.0775 184.096 17.0214 179.669C24.3253 173.993 30.4314 169.188 34.0639 169.905C34.4805 172.001 26.773 178.048 20.2763 184.538Z" fill="#9B5E35"/>
<path d="M35.6979 174.8C35.6979 177.475 30.0475 181.993 25.1456 186.973C21.5393 190.143 20.5888 189.453 20.2764 184.538C25.9528 180.288 32.5277 175.581 35.6979 174.8Z" fill="#9B5E35"/>
<path style="mix-blend-mode:multiply" d="M167.585 137.642C167.552 147.355 164.206 154.9 159.005 160.244C150.119 158.786 141.344 154.672 137.809 147.453C134.652 141.027 136.039 134.433 138.63 128.073C139.437 126.081 140.381 123.822 141.435 121.459L142.008 121.785C143.652 121.571 145.269 121.185 146.832 120.632L141.891 143.827C150.783 141.431 160.183 137.681 167.585 137.642Z" fill="url(#paint3_linear_1_124)"/>
<path style="mix-blend-mode:multiply" d="M158.608 85.7664C151.506 87.7194 144.723 91.6252 139.333 96.0323C135.493 99.1196 132.235 102.867 129.711 107.099C129.31 105.575 129.036 104.02 128.891 102.451C117.388 105.152 120.598 81.7239 129.431 93.526C138.838 90.4339 146.142 85.4345 149.045 78.9182C152.93 80.0242 156.31 82.4448 158.608 85.7664Z" fill="url(#paint4_linear_1_124)"/>
<g style="mix-blend-mode:screen">
<path d="M150.451 100.999C150.275 100.805 150.076 100.632 149.859 100.485C149.143 100.003 148.908 100.661 148.889 101.292C148.889 101.645 148.915 101.998 148.967 102.347C149.026 102.874 149.195 103.082 149.787 103.108C149.946 103.115 150.105 103.087 150.253 103.027C150.4 102.966 150.533 102.875 150.642 102.759C150.752 102.643 150.835 102.505 150.886 102.354C150.937 102.203 150.955 102.043 150.939 101.885C150.862 101.55 150.693 101.243 150.451 100.999Z" fill="#9B5E35"/>
</g>
<path d="M91.4276 111.265C88.5438 111.265 85.7316 110.614 83.5248 108.804C82.5032 107.998 81.6611 106.988 81.0524 105.838C80.4438 104.688 80.0819 103.423 79.99 102.125C79.9421 101.194 80.1005 100.264 80.4538 99.4004C80.8072 98.5373 81.3468 97.7629 82.0341 97.1324C82.1118 97.0573 82.2156 97.0153 82.3237 97.0153C82.4319 97.0153 82.5357 97.0573 82.6134 97.1324C82.6512 97.17 82.6812 97.2146 82.7017 97.2637C82.7221 97.3129 82.7327 97.3656 82.7327 97.4189C82.7327 97.4721 82.7221 97.5248 82.7017 97.574C82.6812 97.6232 82.6512 97.6678 82.6134 97.7053C82.0128 98.2574 81.5411 98.935 81.2317 99.6899C80.9223 100.445 80.7829 101.258 80.8233 102.073C80.9145 103.257 81.251 104.409 81.8113 105.456C82.3717 106.502 83.1436 107.421 84.0781 108.153C88.5112 111.721 95.6719 110.542 100.463 108.453C106.537 105.797 110.735 100.999 111.992 95.2967C112.015 95.1919 112.079 95.1005 112.169 95.0421C112.259 94.9837 112.368 94.9629 112.474 94.9842C112.579 95.0091 112.67 95.074 112.729 95.1651C112.787 95.2562 112.807 95.3664 112.786 95.4725C111.484 101.429 107.103 106.435 100.789 109.195C97.8385 110.505 94.6551 111.209 91.4276 111.265Z" fill="#90A5B6"/>
<path d="M142.164 74.101C142.08 74.1 141.998 74.0727 141.93 74.0228C141.886 73.9924 141.848 73.9533 141.82 73.908C141.791 73.8627 141.772 73.812 141.764 73.7591C141.755 73.7062 141.757 73.6521 141.77 73.6001C141.783 73.5481 141.807 73.4992 141.839 73.4565C144.892 69.1991 145.009 61.2443 142.093 56.7721C140.823 54.8192 138.415 52.697 134.131 53.5953C134.027 53.6165 133.918 53.5956 133.829 53.537C133.74 53.4785 133.678 53.3871 133.656 53.2829C133.645 53.2307 133.644 53.1768 133.653 53.1242C133.663 53.0717 133.683 53.0216 133.712 52.9768C133.741 52.9319 133.779 52.8933 133.823 52.8632C133.867 52.8331 133.916 52.812 133.969 52.8012C138.695 51.8117 141.364 54.1682 142.77 56.3294C145.849 61.0425 145.719 69.4335 142.496 73.9057C142.462 73.9633 142.413 74.0114 142.355 74.0455C142.297 74.0796 142.232 74.0986 142.164 74.101Z" fill="#90A5B6"/>
<path d="M123.013 79.4129C120.549 79.3992 118.101 79.0331 115.741 78.3258C110.345 76.7244 105.905 72.9032 103.874 68.1055C102.331 64.4796 101.68 58.9919 104.916 55.4506C106.738 53.4587 109.01 52.697 111.308 53.3024C112.561 53.6592 113.696 54.3428 114.598 55.2831C115.499 56.2235 116.134 57.3867 116.438 58.6534C116.705 59.7897 116.642 60.9788 116.256 62.0803C115.869 63.1819 115.176 64.1499 114.257 64.8702C114.176 64.941 114.07 64.9766 113.963 64.9693C113.855 64.962 113.755 64.9123 113.684 64.8311C113.613 64.75 113.578 64.6441 113.585 64.5366C113.592 64.4292 113.642 64.3291 113.723 64.2583C114.534 63.6361 115.148 62.7944 115.495 61.8332C115.841 60.872 115.904 59.8317 115.676 58.8357C115.399 57.7147 114.832 56.6862 114.033 55.8533C113.233 55.0204 112.228 54.4124 111.119 54.0901C109.127 53.5628 107.142 54.2398 105.534 55.9975C102.559 59.2523 103.197 64.382 104.642 67.7931C106.595 72.3499 110.827 76.0148 115.989 77.5576C121.952 79.3283 130.239 79.3804 133.962 73.6518C133.986 73.5967 134.021 73.5476 134.066 73.5079C134.11 73.4682 134.164 73.439 134.221 73.4223C134.279 73.4056 134.339 73.402 134.398 73.4116C134.457 73.4212 134.513 73.4438 134.563 73.4778C134.612 73.5118 134.653 73.5563 134.683 73.6081C134.713 73.6599 134.731 73.7178 134.736 73.7774C134.74 73.8371 134.732 73.897 134.711 73.953C134.69 74.009 134.656 74.0595 134.613 74.101C132.042 78.0263 127.57 79.4129 123.013 79.4129Z" fill="#90A5B6"/>
<path d="M127.12 94.6197C127.927 95.9216 127.29 97.8745 125.2 98.1024L124.152 100.836L122.479 100.784C123.013 95.7133 125.2 92.836 127.12 94.6197Z" fill="#DD4545"/>
<path d="M163.464 102.145C161.947 102.607 161.147 104.482 162.611 106.051L161.596 108.778L162.93 109.839C165.938 105.68 166.159 102.067 163.464 102.145Z" fill="#DD4545"/>
<path d="M147.951 110.926C147.182 110.927 146.421 110.765 145.719 110.451C145.669 110.43 145.624 110.399 145.587 110.36C145.549 110.321 145.52 110.275 145.501 110.225C145.483 110.174 145.474 110.12 145.477 110.066C145.479 110.012 145.493 109.959 145.517 109.911C145.561 109.813 145.642 109.737 145.742 109.7C145.842 109.662 145.953 109.665 146.051 109.709C146.85 110.067 147.735 110.191 148.602 110.067C148.655 110.059 148.709 110.062 148.76 110.075C148.812 110.088 148.86 110.111 148.903 110.143C148.945 110.175 148.981 110.215 149.008 110.26C149.036 110.306 149.054 110.356 149.061 110.409C149.069 110.462 149.066 110.515 149.053 110.567C149.04 110.618 149.017 110.667 148.985 110.709C148.954 110.752 148.914 110.788 148.868 110.815C148.823 110.842 148.772 110.86 148.72 110.868C148.465 110.907 148.209 110.926 147.951 110.926Z" fill="#F76666"/>
<path d="M169.473 20.6301C169.127 20.3648 168.758 20.1296 168.372 19.927C167.986 19.7715 167.591 19.6411 167.188 19.5365C166.417 19.3753 165.625 19.3423 164.844 19.4388C163.352 19.5888 161.95 20.2245 160.854 21.2485C160.088 21.967 159.573 22.9113 159.382 23.9435C159.263 24.162 159.184 24.4001 159.148 24.6466C159.091 25.0468 159.188 25.4538 159.418 25.7858C159.649 26.1179 159.997 26.3504 160.391 26.4368C161.941 26.6516 163.334 24.7573 163.06 23.3121C162.846 22.1273 161.804 22.1078 160.925 22.4854C161.082 22.2775 161.266 22.0914 161.472 21.932C162.438 21.1688 163.656 20.7991 164.883 20.897C165.428 20.922 165.961 21.0724 166.438 21.3366C166.916 21.6008 167.326 21.9717 167.637 22.4203C168.091 23.2621 168.268 24.2255 168.145 25.1739C167.988 27.1268 166.843 29.3922 165.384 31.5534C163.817 33.7324 161.922 35.656 159.767 37.2559C159.68 37.325 159.625 37.4255 159.613 37.5354C159.6 37.6452 159.632 37.7555 159.701 37.8418C159.77 37.9281 159.871 37.9835 159.981 37.9957C160.091 38.0079 160.201 37.9759 160.287 37.9069C162.364 36.1883 164.688 34.7692 166.908 33.0051C168.075 32.1123 169.108 31.0554 169.974 29.8674C170.917 28.53 171.449 26.9461 171.504 25.3106C171.535 24.4284 171.369 23.5503 171.018 22.7405C170.666 21.9307 170.138 21.2096 169.473 20.6301Z" fill="#283B4B"/>
<path d="M175.162 22.3618C174.977 22.2175 174.745 22.1479 174.511 22.1665C173.828 22.212 173.125 22.8695 173.418 23.5791C174.088 25.2 176.477 23.4163 175.162 22.3618Z" fill="#283B4B"/>
<path d="M174.147 29.516C173.962 29.3718 173.729 29.3021 173.496 29.3207C172.812 29.3598 172.116 30.0238 172.402 30.7333C173.072 32.3477 175.462 30.5706 174.147 29.516Z" fill="#283B4B"/>
<path d="M224.493 15.9367L223.191 19.7904H223.262L219.357 31.3517C219.221 31.1355 219.024 30.9653 218.79 30.8635C218.313 30.6983 217.807 30.6299 217.303 30.6624C216.799 30.6948 216.307 30.8273 215.854 31.0522C215.614 31.1609 215.398 31.3171 215.22 31.5115C215.042 31.7059 214.904 31.9344 214.817 32.1832C214.729 32.432 214.693 32.696 214.71 32.9592C214.727 33.2224 214.798 33.4794 214.917 33.7147C215.672 35.0167 217.553 34.242 218.497 33.6561L218.725 33.5129C218.744 33.5705 218.777 33.6229 218.82 33.6658C218.863 33.7088 218.915 33.7411 218.973 33.7603C219.015 33.7694 219.06 33.7694 219.103 33.7603C219.188 33.7593 219.271 33.7318 219.339 33.6816C219.408 33.6315 219.46 33.5611 219.487 33.4804L224.096 19.81L231.79 19.9792L228.073 31.0457C227.93 30.786 227.699 30.5854 227.422 30.4794C226.483 30.1625 225.456 30.228 224.564 30.6617C224.325 30.7709 224.109 30.9276 223.932 31.1222C223.754 31.3169 223.618 31.5455 223.531 31.7942C223.444 32.043 223.408 32.3068 223.426 32.5697C223.443 32.8326 223.514 33.0893 223.634 33.3241C224.382 34.6261 226.27 33.8514 227.214 33.259L227.435 33.1223C227.418 33.1728 227.411 33.2261 227.414 33.2793C227.417 33.3326 227.431 33.3846 227.455 33.4324C227.479 33.4802 227.511 33.5229 227.552 33.5579C227.592 33.593 227.638 33.6197 227.689 33.6366C227.732 33.6434 227.776 33.6434 227.819 33.6366C227.905 33.6366 227.988 33.6095 228.057 33.5592C228.126 33.5089 228.177 33.438 228.203 33.3567L232.702 19.9727L234.004 16.1189L224.493 15.9367Z" fill="#283B4B"/>
<path d="M211.636 4.3038C211.371 3.93244 211.14 3.53811 210.946 3.12554C210.559 2.28741 210.396 1.36355 210.471 0.443537C210.477 0.367703 210.462 0.291614 210.428 0.223785C210.393 0.155956 210.34 0.0990618 210.276 0.059463C210.181 0.00167354 210.068 -0.0163896 209.961 0.00924402C209.853 0.0348777 209.761 0.10211 209.703 0.196167C209.378 0.743488 209.184 1.35835 209.136 1.99285L205.602 11.6728C205.524 11.542 205.43 11.4217 205.322 11.3148C205.128 11.1446 204.892 11.0299 204.638 10.9828C202.431 10.4815 198.48 13.0854 200.205 15.5982C201.357 17.2647 203.33 16.516 204.606 15.1425L205.126 15.3313L209.338 3.80255C209.489 4.34441 209.708 4.86499 209.989 5.35186C210.308 5.86613 210.64 6.27624 210.829 6.65381C211.012 6.92782 211.111 7.24887 211.115 7.57819C211.095 7.95753 210.988 8.32719 210.803 8.6588C210.399 9.46601 209.709 10.2927 209.208 11.3148C209.175 11.3847 209.162 11.4623 209.17 11.5392C209.178 11.6161 209.207 11.6893 209.253 11.7509C209.288 11.7937 209.33 11.8293 209.378 11.8557C209.426 11.8821 209.479 11.8988 209.533 11.9049C209.587 11.9109 209.642 11.9062 209.695 11.8909C209.748 11.8757 209.797 11.8502 209.839 11.816C210.74 11.1867 211.55 10.4377 212.248 9.58969C212.669 9.05482 212.936 8.4159 213.023 7.74093C213.082 7.01339 212.914 6.28533 212.541 5.65782C212.241 5.07846 211.883 4.67485 211.636 4.3038Z" fill="#283B4B"/>
<path d="M199.639 123.269L199.43 122.488C210.809 119.513 220.632 109.904 225.059 97.4123C231.966 77.9287 224.46 54.4482 207.216 41.5459C205.38 40.1723 203.492 38.942 201.67 37.8158C197.568 35.2119 193.695 32.7513 190.518 28.5655L191.169 28.0708C194.255 32.1459 198.07 34.5805 202.106 37.1323C203.948 38.2975 205.849 39.5018 207.704 40.8949C225.215 53.9925 232.845 77.8766 225.821 97.7118C221.309 110.425 211.271 120.229 199.639 123.269Z" fill="#90A5B6"/>
<path d="M197.035 129.421C193.725 129.407 190.436 128.909 187.27 127.943C179.374 125.56 170.267 119.383 167.741 110.939L168.516 110.712C170.97 118.862 179.823 124.844 187.511 127.162C198.193 130.384 208.765 128.184 218.107 120.808C231.673 110.074 240.754 89.6201 239.699 72.1676L240.513 72.1155C241.581 89.8154 232.369 110.562 218.608 121.446C211.89 126.732 204.573 129.421 197.035 129.421Z" fill="#90A5B6"/>
<path d="M217.26 126.765L216.792 126.114C236.842 111.636 252.159 83.7354 242.622 58.4126L243.377 58.1261C253.057 83.8265 237.584 112.105 217.26 126.765Z" fill="#90A5B6"/>
<defs>
<linearGradient id="paint0_linear_1_124" x1="103.132" y1="83.117" x2="235.689" y2="83.117" gradientUnits="userSpaceOnUse">
<stop offset="0.35" stop-color="#FF9C59"/>
<stop offset="0.8" stop-color="#B49B4E"/>
</linearGradient>
<linearGradient id="paint1_linear_1_124" x1="214.181" y1="171.141" x2="262.998" y2="171.141" gradientUnits="userSpaceOnUse">
<stop offset="0.35" stop-color="#FDC097"/>
<stop offset="0.8" stop-color="#9B5E35"/>
</linearGradient>
<linearGradient id="paint2_linear_1_124" x1="78.1087" y1="219.404" x2="5.33" y2="188.314" gradientUnits="userSpaceOnUse">
<stop offset="0.35" stop-color="#FDC097"/>
<stop offset="0.8" stop-color="#9B5E35"/>
</linearGradient>
<linearGradient id="paint3_linear_1_124" x1="137.223" y1="148.416" x2="164.532" y2="132.519" gradientUnits="userSpaceOnUse">
<stop offset="0.35" stop-color="#FDC097"/>
<stop offset="0.8" stop-color="#9B5E35"/>
</linearGradient>
<linearGradient id="paint4_linear_1_124" x1="144.579" y1="91.3127" x2="109.251" y2="102.757" gradientUnits="userSpaceOnUse">
<stop offset="0.35" stop-color="#FDC097"/>
<stop offset="0.8" stop-color="#9B5E35"/>
</linearGradient>
</defs>
</svg>
